<mxfile host="app.diagrams.net" modified="2022-01-12T03:00:49.902Z" agent="5.0 (Macintosh; Intel Mac OS X 10_15_7) AppleWebKit/537.36 (KHTML, like Gecko) Chrome/97.0.4692.71 Safari/537.36" etag="HhbQqfxllU_aBD9aGn_f" version="16.2.4" type="github">
  <diagram id="o-3maCQvsbmOnAmrUsoz" name="GDL_SSO">
    <mxGraphModel dx="3670" dy="3245" grid="1" gridSize="10" guides="1" tooltips="1" connect="1" arrows="1" fold="1" page="1" pageScale="1" pageWidth="1100" pageHeight="850" math="0" shadow="0">
      <root>
        <mxCell id="0X5DWx-J_k25tCR8zMgC-0" />
        <mxCell id="0X5DWx-J_k25tCR8zMgC-1" parent="0X5DWx-J_k25tCR8zMgC-0" />
        <mxCell id="d2YbWiwlK6z3USRgEM1a-434" value="" style="whiteSpace=wrap;html=1;fillColor=#dae8fc;strokeColor=#6c8ebf;" vertex="1" parent="0X5DWx-J_k25tCR8zMgC-1">
          <mxGeometry x="3369.77" y="521.38" width="375" height="335.5" as="geometry" />
        </mxCell>
        <mxCell id="d2YbWiwlK6z3USRgEM1a-415" value="EXCELERATE" style="rounded=0;whiteSpace=wrap;html=1;sketch=0;dashed=1;labelPosition=center;verticalLabelPosition=top;align=left;verticalAlign=bottom;fontFamily=Roboto Mono;fontSize=14;strokeColor=#d6b656;fontStyle=0;strokeWidth=1;fontSource=https://fonts.googleapis.com/css?family=Roboto+Mono;fillColor=#fff2cc;" vertex="1" parent="0X5DWx-J_k25tCR8zMgC-1">
          <mxGeometry x="1543.03" y="552.38" width="89.94" height="130" as="geometry" />
        </mxCell>
        <mxCell id="d2YbWiwlK6z3USRgEM1a-374" value="ONBOARDING" style="group;dashed=1;dashPattern=1 1;shadow=0;fontFamily=Roboto;fontSource=https%3A%2F%2Ffonts.googleapis.com%2Fcss%3Ffamily%3DRoboto;fillColor=#FFFFFF;container=0;strokeColor=default;align=right;spacingRight=11;verticalAlign=middle;" vertex="1" connectable="0" parent="0X5DWx-J_k25tCR8zMgC-1">
          <mxGeometry x="1488.12" y="618.38" width="148.94" height="40" as="geometry" />
        </mxCell>
        <mxCell id="d2YbWiwlK6z3USRgEM1a-329" value="" style="rounded=0;whiteSpace=wrap;html=1;sketch=0;labelPosition=center;verticalLabelPosition=top;align=left;verticalAlign=bottom;fontFamily=Roboto Mono;fontSize=14;strokeColor=#007FFF;fontStyle=0;strokeWidth=3;fontSource=https://fonts.googleapis.com/css?family=Roboto+Mono;fillColor=#7EA6E0;opacity=60;" vertex="1" parent="0X5DWx-J_k25tCR8zMgC-1">
          <mxGeometry x="2060" y="112.38" width="540" height="310" as="geometry" />
        </mxCell>
        <mxCell id="d2YbWiwlK6z3USRgEM1a-246" value="ELEVATE" style="rounded=0;whiteSpace=wrap;html=1;sketch=0;dashed=1;labelPosition=center;verticalLabelPosition=top;align=left;verticalAlign=bottom;fontFamily=Roboto Mono;fontSize=14;strokeColor=#9673a6;fontStyle=0;strokeWidth=1;fontSource=https://fonts.googleapis.com/css?family=Roboto+Mono;fillColor=#e1d5e7;" vertex="1" parent="0X5DWx-J_k25tCR8zMgC-1">
          <mxGeometry x="1860" y="1218.1299999999999" width="848.94" height="275.49" as="geometry" />
        </mxCell>
        <mxCell id="d2YbWiwlK6z3USRgEM1a-178" value="" style="whiteSpace=wrap;html=1;fillColor=#D4E1F5;strokeColor=#b85450;gradientColor=#F8CECC;gradientDirection=east;" vertex="1" parent="0X5DWx-J_k25tCR8zMgC-1">
          <mxGeometry x="3910" y="505.25" width="575" height="335.5" as="geometry" />
        </mxCell>
        <mxCell id="iTqYewabS4GiflsHvlJ8-0" value="" style="whiteSpace=wrap;html=1;fillColor=#dae8fc;strokeColor=#6c8ebf;" parent="0X5DWx-J_k25tCR8zMgC-1" vertex="1">
          <mxGeometry x="4570" y="494.5" width="375" height="335.5" as="geometry" />
        </mxCell>
        <mxCell id="uyaUZQChRGQ64ifGFfR3-0" value="" style="verticalLabelPosition=bottom;verticalAlign=top;html=1;shape=mxgraph.basic.corner_round_rect;dx=6;rounded=1;fillColor=#f8cecc;strokeColor=#b85450;opacity=70;" parent="0X5DWx-J_k25tCR8zMgC-1" vertex="1">
          <mxGeometry x="4625" y="510" width="270" height="230" as="geometry" />
        </mxCell>
        <mxCell id="2q1jHSVGC-Nx0SEC5J3e-87" value="" style="group;fillColor=#f5f5f5;fontColor=#333333;strokeColor=#666666;" parent="0X5DWx-J_k25tCR8zMgC-1" vertex="1" connectable="0">
          <mxGeometry x="4642.73" y="530" width="234.62075620767496" height="40" as="geometry" />
        </mxCell>
        <mxCell id="2q1jHSVGC-Nx0SEC5J3e-88" value="&lt;font color=&quot;#172b4d&quot;&gt;&lt;span style=&quot;font-size: 11px ; line-height: 1&quot;&gt;OD BRIEFCASE VIEW&lt;br&gt;&amp;nbsp;(READ ONLY)&amp;nbsp;&lt;/span&gt;&lt;/font&gt;" style="whiteSpace=wrap;html=1;fontFamily=Roboto Mono;align=left;fontSize=14;spacingLeft=8;dashed=1;dashPattern=1 1;fontSource=https%3A%2F%2Ffonts.googleapis.com%2Fcss%3Ffamily%3DRoboto%2BMono;spacing=0;spacingBottom=4;" parent="2q1jHSVGC-Nx0SEC5J3e-87" vertex="1">
          <mxGeometry x="54.62075620767496" width="180" height="40" as="geometry" />
        </mxCell>
        <mxCell id="2q1jHSVGC-Nx0SEC5J3e-89" value="" style="group;" parent="2q1jHSVGC-Nx0SEC5J3e-87" vertex="1" connectable="0">
          <mxGeometry width="45" height="40" as="geometry" />
        </mxCell>
        <mxCell id="2q1jHSVGC-Nx0SEC5J3e-90" value="" style="whiteSpace=wrap;html=1;dashed=1;dashPattern=1 1;fontFamily=Roboto Mono;fontSource=https%3A%2F%2Ffonts.googleapis.com%2Fcss%3Ffamily%3DRoboto%2BMono;strokeWidth=1;fillColor=none;align=left;verticalAlign=middle;noLabel=1;connectable=1;allowArrows=1;snapToPoint=1;" parent="2q1jHSVGC-Nx0SEC5J3e-89" vertex="1">
          <mxGeometry width="45" height="40" as="geometry" />
        </mxCell>
        <mxCell id="2q1jHSVGC-Nx0SEC5J3e-91" value="" style="shape=parallelogram;html=1;strokeWidth=2;perimeter=parallelogramPerimeter;whiteSpace=wrap;rounded=1;arcSize=12;size=0.23;fillColor=#f5f5f5;strokeColor=#666666;aspect=fixed;fontColor=#333333;" parent="2q1jHSVGC-Nx0SEC5J3e-89" vertex="1">
          <mxGeometry x="11.259999999999764" y="8.77000000000001" width="25" height="16.88" as="geometry" />
        </mxCell>
        <mxCell id="uyaUZQChRGQ64ifGFfR3-1" value="" style="verticalLabelPosition=bottom;verticalAlign=top;html=1;shape=mxgraph.basic.rect;fillColor2=none;strokeWidth=1;size=20;indent=5;rounded=1;fillColor=#f8cecc;strokeColor=#b85450;" parent="0X5DWx-J_k25tCR8zMgC-1" vertex="1">
          <mxGeometry x="4995" y="510" width="375" height="221.12" as="geometry" />
        </mxCell>
        <mxCell id="0X5DWx-J_k25tCR8zMgC-2" value="GREAT DATA LAKES" style="rounded=0;whiteSpace=wrap;html=1;sketch=0;dashed=1;labelPosition=center;verticalLabelPosition=top;align=left;verticalAlign=bottom;fontFamily=Roboto Mono;fontSize=14;strokeColor=#6c8ebf;fontStyle=0;strokeWidth=1;fontSource=https://fonts.googleapis.com/css?family=Roboto+Mono;fillColor=#dae8fc;" parent="0X5DWx-J_k25tCR8zMgC-1" vertex="1">
          <mxGeometry x="2720" y="262.38" width="360" height="800" as="geometry" />
        </mxCell>
        <mxCell id="0X5DWx-J_k25tCR8zMgC-22" value="" style="group" parent="0X5DWx-J_k25tCR8zMgC-1" vertex="1" connectable="0">
          <mxGeometry x="2200" y="130.88" width="290" height="40" as="geometry" />
        </mxCell>
        <mxCell id="0X5DWx-J_k25tCR8zMgC-23" value="&lt;font color=&quot;#172b4d&quot;&gt;&lt;span style=&quot;font-size: 11px ; line-height: 1&quot;&gt;GraphCMS&lt;br&gt;&lt;/span&gt;&lt;/font&gt;" style="whiteSpace=wrap;html=1;fontFamily=Roboto Mono;align=left;fontSize=14;spacingLeft=8;dashed=1;dashPattern=1 1;fontSource=https%3A%2F%2Ffonts.googleapis.com%2Fcss%3Ffamily%3DRoboto%2BMono;spacing=0;spacingBottom=4;container=0;" parent="0X5DWx-J_k25tCR8zMgC-22" vertex="1">
          <mxGeometry x="54.62075620767496" width="180" height="40" as="geometry" />
        </mxCell>
        <mxCell id="0X5DWx-J_k25tCR8zMgC-24" value="" style="group" parent="0X5DWx-J_k25tCR8zMgC-22" vertex="1" connectable="0">
          <mxGeometry width="45" height="40" as="geometry" />
        </mxCell>
        <mxCell id="0X5DWx-J_k25tCR8zMgC-25" value="" style="whiteSpace=wrap;html=1;dashed=1;dashPattern=1 1;fontFamily=Roboto Mono;fontSource=https%3A%2F%2Ffonts.googleapis.com%2Fcss%3Ffamily%3DRoboto%2BMono;strokeWidth=1;fillColor=none;align=left;verticalAlign=middle;noLabel=1;connectable=1;allowArrows=1;snapToPoint=1;fontSize=11;" parent="0X5DWx-J_k25tCR8zMgC-24" vertex="1">
          <mxGeometry width="45" height="40" as="geometry" />
        </mxCell>
        <mxCell id="0X5DWx-J_k25tCR8zMgC-26" value="" style="shape=image;verticalLabelPosition=bottom;labelBackgroundColor=#ffffff;verticalAlign=top;aspect=fixed;imageAspect=0;image=data:image/png,iVBORw0KGgoAAAANSUhEUgAAAMgAAADICAIAAAAiOjnJAAALyElEQVR4nOzde1RU9frHcYeZYbgjYqCIooaE5j2lTJP1s0grzSwvpUTknRSU2zDMyJ0ZYAi8kCKKWpAmkaHmhdS0DCzvoj+pTM8hTQspiYNyyQHPOsfWOisXygx+n9mz9/68/mae9SzXe82Me76zR2br5N0JgDUrrhcAYUJYQAJhAQmEBSQQFpBAWEACYQEJhAUkEBaQQFhAAmEBCYQFJBAWkEBYQAJhAQmEBSQQFpBAWEACYQEJhAUkEBaQQFhAAmEBCYQFJBAWkEBYQAJhAQmEBSQQFpBAWEACYQEJhAUkEBaQQFhAAmEBCYRlVjY2Cq5XMBOpXNGF6x1E5OC+Irlcfqai8s6dO1zvQgvPWGbl6uqyIivxaPnOAf19uN6FFsLiwID+Pt+W7VyRleTq6sL1LlQQFjdkMun8uTPPnToQuuhtuVzG9TrsISwude7slKFTn/h2z5TJE2xtbbhehyWExb1+3n02F+RUnNz3+vSXJRKut2EEYVkKzx7dN67P+rQ4v7eXJ9e7MICwLMv4AP9Tx0qTE6IcHOy53uWhICzzMuLqlY2NIipiwf69W8yxDxmEZV5Gv4VycnKg3YQYwgISCAtIICwggbCABMICEggLSCAs87G2liusrY39a56f10JYZjJpYsCpo3s9PLoZ+wCef2gowAMblmbQQF99mtp/7CiuFzErhEXIydFBmxITHDRNKpVyvYu5ISwqU199KTU5ulfPHlwvwg2ExZiVlVVQ4NTgoKl+I4dxvQuXEBZL/mOf0qdpBg305XoR7iEsNvr26aVLVb08MYDrRSwFwnpYMplUGRkSHRmiUBh9jUoEENZDCXhubIYu1vcxb64XsTgIq4N8fPpmaNXjn/fnehELhbBM5tLZWR0bOn/OLEF+H5AV/NOYQCaTzp09c1lsWJcunbnexdIhLKNIJJLRo0asWp7s64u3U0ZBWO17ym+4Pl0z4onBXC/CJwjrQXp6eqQkRU+fOpHrRfgHYbXNzs42MnzB0tA5ArulgtkgrHtJJJI3ZkxOTojy8HBnO7n2jzprudze3s6ov8ZBPyHp7eVZtCU3Py+TbVUGQ8u6/M2DhwVcr/nN2MfgoJ8wODjYR0cuDF30to2C8W1CD315RBmrPV95ge1YC4ew/vPaFzhzSlJ8ZLdubmwnV1fXhIbH79p9gO1YXhB7WKOeHK5PX/bE8EFsxxoMhvUbP0rVraytrWM7mS/EG9aY0SNXZif3Z33Bs6mpOWf1psys3Ju3GthO5hcxhuXq6hKnXjo7eIZMxvgo+vYdn6vj0qt++pntWD4SV1hymWz+vECNanHnzs5sJ589951SpT1cdpTtWP4SUVjjA/zTderHfPqyHdvY2JSYkr0694PW1la2k3lNLGGNGT2y5JN85mO3lezRxOkvX7lq7AOMv+zJ8wukYglLLpezHXjq9DllrO7INydMe5jxlz1xgVRsfvn1emJy1odbSgT/ezgPA2GZoKmpadV7mzKz194S96UEYyAsoxgMho3vF2WvXH/5stFvp8QNYbVv/4HDMZq077+/yPUifIKwHuTChX+oNGml+77kehH+QVhtq62t02Xk5K3fbDAYuN6FlxBWG/aWHpq3UHmj9g+uF+ExHPRrQ/k3J1DVQ0JYQAJhAQmEBSQQFpBAWEACYQEJhAUkEFbHyWTSdxYGTZk8wYTHiOagH8LqoIDnnjl2ZNe7GXEuLqYcn8dBP7ifft590nWxL4z/P64XsWgIywTOzo7qmNAF8wOtWR90Fh6EZRRbG5ulYXPVqlCpFG8ejIKw2vffX8VR9urpwfUifIKwHmTY0Mcz05c9PWoE14vwD8Jqm7tb18T4yDdnvWplhde+jkBYbZg86fmYqBBHRwf2o0VzHQthtWHkiCFUo0VzHQvP80ACYQEJhAUkEBaQQFhAAmEBCYQFJHAdq+MaG5tW5mwo+ngn14tYIoTVQcXbdi9L0F+5co3rRSwUwjLZyVNnlSrtN0dPcb2IRUNYJjhfeWHFqvwtW7fjJpHtQlhGuXHjD236qty8Qq4X4Q2E1Y7btw3rN2zRpq8S7a/idAzCepDP93+lUqf9cOES14vwD8Jq2/c/XFJpdPv2H+Z6Eb5CWPe6efNWQnL2+g2bDYYWtpOHDB5gwm/48Py/B7jy/je79nwx6pnJuXkFbKtyc3NdnaMt+7LExfiweH7QD89Yf6msvKBU6w4eKmc71tpavigkOCYqxMnJke1kC4ewOv1+ozZVuzJ/09aWFsavfU/6DcvPy3y0rxfbsbwg6rCu/VIdn/juR0U7mF/wHDPaLzNdM2TwALZjeUSkYbW2tubmFSSmLGf+qzhevTx1KTFTXjHlFjRCJMawjh47Ha1KPXHyLNux9vZ20RELwxbPtrFRsJ3MR+IK6+rVX+MSM4uKd7J96ZNIJDNffyU5IbJ7d3eWc/lMLGE1NjbpMt7LXrGuoaGR7eQ+vXuuydH6jx3FdizfP+eW2Dp5c70DXzk62isjQxa/E6xQMH7t++JgWYxaV/ndj2zHmpNYnrHYsrKyCgp8LWFZhLt7V7aTL16qUqnT9pQeZDvW/BCWyZ4Z46dPY38p4c/bt/PWfajLyKmrq2c7mRMIywQvvTBu7pyZ4wP82Y5taGhck1dQ+OG2Hy/+k+1kDiEso7i7P5IUFxH05lS2Y+/cuVNU/FlcYubVq7+yncw5hNUOhUIRtujtqMiFjg72bCcfO3FGqdIeO36G7VgLgbAeZMorE7TJMb29PNmOra+/uSQioaj4M75fU3gAhNW2oUMe16drxjw9ku3Y1tbWws2fJqZkV1fXsJ1saRDWvZydHdO1aoqbRJYdOa5Uac9UnGc71jIhrP+RSCQzpk1KSYzu0aMb28lVP/2sic8o2V7KdqwlQ1h/8Rs5VJ+u8RsxlO3Y+vpbmdlrc1ZvbG7+k+1kC4ewOg0a6Bu+ZN6MaZMkEpbHgZubm3fvORgZkyL4t1NtEnVY/bz7pGlVL04Yx3zy9h2l6nh9VdUV5pP5QqRhyeWyWOXiiPD5zH8Vp6KiUhmr/br8GNuxvCPGsF6cMC5Nq+rn3Yft2OrqmqSU5QWbt7W2trKdzEfiCmtA/34ZOvWz48awHdvc3Pzemvf17+bW37zFdjJ/iSUsV1eXOPWS2cGvy2RStpOPn6h4J0xz/vwPbMfynfDDkstkC+YHqmMWm/AtZONcu1Ydl5i59eOdAv5kpsMEHtaggb6Fm1b6+PRlO7axqWlVzobM7DzmB50FQ7Bhde3aJWFZeHDQNKmU8WvftpI9mnj95ctX2Y4VGAGG5dmje2pS9PRpk5hP/qCwOCE5+/r135hPFh5BhWVraxOxZF74knl2drZsJ1+8VBWrSdu9l/dH0c1GOGFNnzoxNUnp6dmd7di6f9Wn61fnri348/ZttpOFTQhh9ezpoU/TTJ70PNuxLS0tHxR+kpS6vKbmd7aTxYDfYdnZ2UaFL1gSOsfW1obt5K/LjkartGfPfcd2rHjwOyxV9KKIpfPYnsi7XvP70sjE7TtEdHaKglSu6ML1Dh136Ksj+w4c7u/bj8lbK4OhJX/jR7PeCj19+v9ZbCdqAvmK/aw3pmTp4x7mrnkC+Fa7RRFIWJ06dXJ7xPXNWa+Fhc55pKtpz8ElO0o3bNrK/CaRIiecsO5ydnJUKReFLAiytm7/oNWZivPKWG1Z+XGzrCYuQgvrrkcf9UpLjZ344rP3+4OGhsb4pKy16wpxdooIv9+8309tbV3xtl1Hvj05ZPAAN7e/3RDm7rfap88MOXioHKcS6AgzrLuqqq5sfH+rTCp7YvhgmUx291vtgW+FrVlbUF9/k+vtBE6YL4X38OrVQ60KO/RVedHHQv5Wu0URRVhgfvjJEyCBsIAEwgISCAtIICwggbCABMICEggLSCAsIIGwgATCAhIIC0ggLCCBsIAEwgISCAtIICwggbCABMICEggLSCAsIIGwgATCAhIIC0ggLCCBsIAEwgISCAtIICwggbCABMICEggLSCAsIIGwgATCAhL/DgAA//8OFzb1PgB4EAAAAABJRU5ErkJggg==;allowArrows=0;connectable=0;" parent="0X5DWx-J_k25tCR8zMgC-24" vertex="1">
          <mxGeometry x="7.5" y="5" width="30" height="30" as="geometry" />
        </mxCell>
        <mxCell id="0X5DWx-J_k25tCR8zMgC-27" value="" style="group" parent="0X5DWx-J_k25tCR8zMgC-1" vertex="1" connectable="0">
          <mxGeometry x="2100" y="132.38" width="90" height="90" as="geometry" />
        </mxCell>
        <mxCell id="0X5DWx-J_k25tCR8zMgC-28" value="" style="group" parent="0X5DWx-J_k25tCR8zMgC-27" vertex="1" connectable="0">
          <mxGeometry width="90" height="90" as="geometry" />
        </mxCell>
        <object label="&lt;span&gt;%apiAction%&lt;/span&gt;" placeholders="1" apiAction="Page&#xa;Builder" id="0X5DWx-J_k25tCR8zMgC-29">
          <mxCell style="shape=hexagon;perimeter=hexagonPerimeter2;whiteSpace=wrap;html=1;fixedSize=1;direction=south;strokeWidth=1;fontFamily=Roboto Mono;verticalAlign=bottom;spacingTop=26;labelPosition=center;verticalLabelPosition=middle;align=center;spacingBottom=7;fontSize=11;fillColor=#dae8fc;strokeColor=#6c8ebf;fontSource=https%3A%2F%2Ffonts.googleapis.com%2Fcss%3Ffamily%3DRoboto%2BMono;points=[[0,0],[0,0.25],[0,0.5],[0,0.75],[0,1],[0.25,0],[0.5,0],[0.75,0],[0,1],[1,0],[1,0.25],[1,0.5],[1,0.75],[0.25,1],[0.5,1],[0.75,1],[1,1]];snapToPoint=1;" parent="0X5DWx-J_k25tCR8zMgC-28" vertex="1">
            <mxGeometry x="-0.005000000000109139" width="90" height="90" as="geometry" />
          </mxCell>
        </object>
        <mxCell id="0X5DWx-J_k25tCR8zMgC-30" value="" style="aspect=fixed;pointerEvents=1;shadow=0;dashed=0;html=1;strokeColor=none;labelPosition=center;verticalLabelPosition=bottom;verticalAlign=top;align=center;shape=mxgraph.mscae.enterprise.website_generic;fillColor=#7D7D7D;connectable=0;allowArrows=0;noLabel=1;" parent="0X5DWx-J_k25tCR8zMgC-27" vertex="1">
          <mxGeometry x="18.3" y="16.5" width="51.7" height="45.5" as="geometry" />
        </mxCell>
        <mxCell id="0X5DWx-J_k25tCR8zMgC-31" value="" style="group" parent="0X5DWx-J_k25tCR8zMgC-1" vertex="1" connectable="0">
          <mxGeometry x="2100" y="252.38" width="90" height="90" as="geometry" />
        </mxCell>
        <object label="&lt;span&gt;%apiAction%&lt;/span&gt;" placeholders="1" apiAction="Email&#xa;Builder" id="0X5DWx-J_k25tCR8zMgC-32">
          <mxCell style="shape=hexagon;perimeter=hexagonPerimeter2;whiteSpace=wrap;html=1;fixedSize=1;direction=south;strokeWidth=1;fontFamily=Roboto Mono;verticalAlign=bottom;spacingTop=17;labelPosition=center;verticalLabelPosition=middle;align=center;spacingBottom=9;fontSize=11;fillColor=#dae8fc;strokeColor=#6c8ebf;fontSource=https%3A%2F%2Ffonts.googleapis.com%2Fcss%3Ffamily%3DRoboto%2BMono;points=[[0,0],[0,0.25],[0,0.5],[0,0.75],[0,1],[0.25,0],[0.5,0],[0.75,0],[0,1],[1,0],[1,0.25],[1,0.5],[1,0.75],[0.25,1],[0.5,1],[0.75,1],[1,1]];snapToPoint=1;" parent="0X5DWx-J_k25tCR8zMgC-31" vertex="1">
            <mxGeometry width="90" height="90" as="geometry" />
          </mxCell>
        </object>
        <mxCell id="0X5DWx-J_k25tCR8zMgC-33" value="" style="shape=mxgraph.signs.tech.mail;html=1;pointerEvents=1;strokeColor=none;verticalLabelPosition=bottom;verticalAlign=top;align=center;fontFamily=Roboto Mono;fontSource=https%3A%2F%2Ffonts.googleapis.com%2Fcss%3Ffamily%3DRoboto%2BMono;fontSize=14;fontColor=#575757;fillColor=#575757;aspect=fixed;connectable=0;allowArrows=0;" parent="0X5DWx-J_k25tCR8zMgC-31" vertex="1">
          <mxGeometry x="25" y="14" width="40" height="30.3" as="geometry" />
        </mxCell>
        <mxCell id="0X5DWx-J_k25tCR8zMgC-34" value="" style="group" parent="0X5DWx-J_k25tCR8zMgC-1" vertex="1" connectable="0">
          <mxGeometry x="2811.38" y="702.38" width="234.62075620767496" height="40" as="geometry" />
        </mxCell>
        <mxCell id="0X5DWx-J_k25tCR8zMgC-35" value="&lt;font color=&quot;#172b4d&quot;&gt;&lt;span style=&quot;font-size: 11px ; line-height: 1&quot;&gt;EA AUTH USERS&lt;br&gt;&lt;/span&gt;&lt;/font&gt;" style="whiteSpace=wrap;html=1;fontFamily=Roboto Mono;align=left;fontSize=14;spacingLeft=8;dashed=1;dashPattern=1 1;fontSource=https%3A%2F%2Ffonts.googleapis.com%2Fcss%3Ffamily%3DRoboto%2BMono;spacing=0;spacingBottom=4;" parent="0X5DWx-J_k25tCR8zMgC-34" vertex="1">
          <mxGeometry x="54.62075620767496" width="180" height="40" as="geometry" />
        </mxCell>
        <mxCell id="0X5DWx-J_k25tCR8zMgC-36" value="" style="group" parent="0X5DWx-J_k25tCR8zMgC-34" vertex="1" connectable="0">
          <mxGeometry width="45" height="40" as="geometry" />
        </mxCell>
        <mxCell id="0X5DWx-J_k25tCR8zMgC-37" value="" style="whiteSpace=wrap;html=1;dashed=1;dashPattern=1 1;fontFamily=Roboto Mono;fontSource=https%3A%2F%2Ffonts.googleapis.com%2Fcss%3Ffamily%3DRoboto%2BMono;strokeWidth=1;fillColor=none;align=left;verticalAlign=middle;noLabel=1;connectable=1;allowArrows=1;snapToPoint=1;" parent="0X5DWx-J_k25tCR8zMgC-36" vertex="1">
          <mxGeometry width="45" height="40" as="geometry" />
        </mxCell>
        <mxCell id="0X5DWx-J_k25tCR8zMgC-38" value="" style="group;noLabel=1;allowArrows=0;" parent="0X5DWx-J_k25tCR8zMgC-36" vertex="1" connectable="0">
          <mxGeometry x="7.5" y="3.6000000000000227" width="30" height="32.799999999999955" as="geometry" />
        </mxCell>
        <mxCell id="0X5DWx-J_k25tCR8zMgC-39" value="&lt;pre&gt;&lt;br&gt;&lt;/pre&gt;" style="dashed=0;connectable=0;html=1;strokeColor=none;shape=mxgraph.gcp2.report;part=1;labelPosition=center;verticalLabelPosition=top;align=center;verticalAlign=middle;fontFamily=Roboto Mono;fontSource=https%3A%2F%2Ffonts.googleapis.com%2Fcss%3Ffamily%3DRoboto%2BMono;spacingTop=6;allowArrows=0;dashPattern=1 1;fillColor=#f0a30a;fontColor=#000000;" parent="0X5DWx-J_k25tCR8zMgC-38" vertex="1">
          <mxGeometry y="8.799999999999955" width="30" height="24" as="geometry" />
        </mxCell>
        <mxCell id="0X5DWx-J_k25tCR8zMgC-40" value="&lt;b style=&quot;font-size: 8px&quot;&gt;&lt;font color=&quot;#ffffff&quot; style=&quot;font-size: 8px&quot;&gt;FSDB&lt;/font&gt;&lt;/b&gt;" style="whiteSpace=wrap;html=1;fontFamily=Roboto Mono;fontSource=https%3A%2F%2Ffonts.googleapis.com%2Fcss%3Ffamily%3DRoboto%2BMono;fontSize=8;strokeWidth=1;verticalAlign=middle;strokeColor=none;connectable=0;allowArrows=0;dashed=1;dashPattern=1 1;fillColor=#f0a30a;fontColor=#000000;" parent="0X5DWx-J_k25tCR8zMgC-38" vertex="1">
          <mxGeometry width="30" height="10.6" as="geometry" />
        </mxCell>
        <mxCell id="0X5DWx-J_k25tCR8zMgC-41" style="edgeStyle=orthogonalEdgeStyle;rounded=0;orthogonalLoop=1;jettySize=auto;html=1;exitX=1;exitY=0.5;exitDx=0;exitDy=0;entryX=0;entryY=0.5;entryDx=0;entryDy=0;fontFamily=Roboto;fontSource=https%3A%2F%2Ffonts.googleapis.com%2Fcss%3Ffamily%3DRoboto;" parent="0X5DWx-J_k25tCR8zMgC-1" source="0X5DWx-J_k25tCR8zMgC-42" target="0X5DWx-J_k25tCR8zMgC-131" edge="1">
          <mxGeometry relative="1" as="geometry" />
        </mxCell>
        <mxCell id="0X5DWx-J_k25tCR8zMgC-42" value="create ea auth user" style="html=1;dashed=0;whitespace=wrap;" parent="0X5DWx-J_k25tCR8zMgC-1" vertex="1">
          <mxGeometry x="2320" y="753.38" width="160" height="35" as="geometry" />
        </mxCell>
        <mxCell id="0X5DWx-J_k25tCR8zMgC-43" value="" style="group" parent="0X5DWx-J_k25tCR8zMgC-1" vertex="1" connectable="0">
          <mxGeometry x="2820" y="431.15" width="226" height="70" as="geometry" />
        </mxCell>
        <mxCell id="0X5DWx-J_k25tCR8zMgC-44" value="" style="group" parent="0X5DWx-J_k25tCR8zMgC-43" vertex="1" connectable="0">
          <mxGeometry width="190" height="40" as="geometry" />
        </mxCell>
        <mxCell id="0X5DWx-J_k25tCR8zMgC-45" value="&lt;font color=&quot;#172b4d&quot;&gt;&lt;span style=&quot;font-size: 11px ; line-height: 1&quot;&gt;EA CONTACT&lt;/span&gt;&lt;/font&gt;" style="whiteSpace=wrap;html=1;fontFamily=Roboto Mono;align=left;fontSize=14;spacingLeft=8;dashed=1;dashPattern=1 1;fontSource=https://fonts.googleapis.com/css?family=Roboto+Mono;spacing=0;spacingBottom=4;" parent="0X5DWx-J_k25tCR8zMgC-44" vertex="1">
          <mxGeometry x="55.190000000000055" width="134.81" height="40" as="geometry" />
        </mxCell>
        <mxCell id="0X5DWx-J_k25tCR8zMgC-46" value="" style="group" parent="0X5DWx-J_k25tCR8zMgC-44" connectable="0" vertex="1">
          <mxGeometry width="45" height="40" as="geometry" />
        </mxCell>
        <mxCell id="0X5DWx-J_k25tCR8zMgC-47" value="" style="whiteSpace=wrap;html=1;dashed=1;dashPattern=1 1;fontFamily=Roboto Mono;fontSource=https://fonts.googleapis.com/css?family=Roboto+Mono;strokeWidth=1;fillColor=none;align=left;verticalAlign=middle;noLabel=1;connectable=1;allowArrows=1;snapToPoint=1;fontSize=11;" parent="0X5DWx-J_k25tCR8zMgC-46" vertex="1">
          <mxGeometry width="45" height="40" as="geometry" />
        </mxCell>
        <mxCell id="0X5DWx-J_k25tCR8zMgC-48" value="" style="group;aspect=fixed;allowArrows=0;" parent="0X5DWx-J_k25tCR8zMgC-46" connectable="0" vertex="1">
          <mxGeometry x="8.190000000000055" y="2" width="28.62" height="36" as="geometry" />
        </mxCell>
        <mxCell id="0X5DWx-J_k25tCR8zMgC-49" value="" style="shadow=0;dashed=0;html=1;strokeColor=none;fillColor=#808080;labelPosition=center;verticalLabelPosition=bottom;verticalAlign=top;align=center;outlineConnect=0;shape=mxgraph.veeam.2d.user;pointerEvents=0;fontSize=36;" parent="0X5DWx-J_k25tCR8zMgC-48" vertex="1">
          <mxGeometry x="5.151599999999999" width="18.3168" height="33.14285714285713" as="geometry" />
        </mxCell>
        <mxCell id="0X5DWx-J_k25tCR8zMgC-50" value="" style="rounded=1;whiteSpace=wrap;html=1;pointerEvents=0;fontSize=36;strokeWidth=1;fillColor=#808080;strokeColor=none;connectable=0;allowArrows=0;" parent="0X5DWx-J_k25tCR8zMgC-48" vertex="1">
          <mxGeometry y="19.428571428571416" width="28.62" height="16.571428571428566" as="geometry" />
        </mxCell>
        <mxCell id="0X5DWx-J_k25tCR8zMgC-51" value="@" style="text;html=1;strokeColor=none;fillColor=none;align=center;verticalAlign=middle;whiteSpace=wrap;labelBackgroundColor=none;fontFamily=Verdana;fontSize=16;fontColor=#FFFFFF;fontStyle=0;aspect=fixed;spacingTop=-8;" parent="0X5DWx-J_k25tCR8zMgC-48" vertex="1">
          <mxGeometry x="9.53" y="23.93" width="9.57" height="9.57" as="geometry" />
        </mxCell>
        <mxCell id="0X5DWx-J_k25tCR8zMgC-52" value="" style="group" parent="0X5DWx-J_k25tCR8zMgC-43" vertex="1" connectable="0">
          <mxGeometry x="56" y="40" width="170" height="30" as="geometry" />
        </mxCell>
        <mxCell id="0X5DWx-J_k25tCR8zMgC-53" value="has ea auth account" style="rounded=0;whiteSpace=wrap;html=1;align=right;fontFamily=Roboto;fontSource=https%3A%2F%2Ffonts.googleapis.com%2Fcss%3Ffamily%3DRoboto;spacingRight=9;" parent="0X5DWx-J_k25tCR8zMgC-52" vertex="1">
          <mxGeometry width="170" height="30" as="geometry" />
        </mxCell>
        <mxCell id="0X5DWx-J_k25tCR8zMgC-54" value="" style="group;aspect=fixed;" parent="0X5DWx-J_k25tCR8zMgC-52" vertex="1" connectable="0">
          <mxGeometry x="10" y="5" width="20" height="20" as="geometry" />
        </mxCell>
        <mxCell id="0X5DWx-J_k25tCR8zMgC-55" value="" style="shape=image;html=1;verticalAlign=top;verticalLabelPosition=bottom;labelBackgroundColor=#ffffff;imageAspect=0;aspect=fixed;image=https://cdn2.iconfinder.com/data/icons/essential-web-1-1/50/box-square-form-uncheck-rectangle-128.png;fontFamily=Roboto;fontSource=https%3A%2F%2Ffonts.googleapis.com%2Fcss%3Ffamily%3DRoboto;" parent="0X5DWx-J_k25tCR8zMgC-54" vertex="1">
          <mxGeometry width="20" height="20" as="geometry" />
        </mxCell>
        <mxCell id="0X5DWx-J_k25tCR8zMgC-56" value="" style="group" parent="0X5DWx-J_k25tCR8zMgC-1" vertex="1" connectable="0">
          <mxGeometry x="2820" y="592.38" width="226" height="70" as="geometry" />
        </mxCell>
        <mxCell id="0X5DWx-J_k25tCR8zMgC-57" value="" style="group" parent="0X5DWx-J_k25tCR8zMgC-56" vertex="1" connectable="0">
          <mxGeometry width="190" height="40" as="geometry" />
        </mxCell>
        <mxCell id="0X5DWx-J_k25tCR8zMgC-58" value="&lt;font color=&quot;#172b4d&quot;&gt;&lt;span style=&quot;font-size: 11px ; line-height: 1&quot;&gt;EA CONTACT&lt;/span&gt;&lt;/font&gt;" style="whiteSpace=wrap;html=1;fontFamily=Roboto Mono;align=left;fontSize=14;spacingLeft=8;dashed=1;dashPattern=1 1;fontSource=https://fonts.googleapis.com/css?family=Roboto+Mono;spacing=0;spacingBottom=4;" parent="0X5DWx-J_k25tCR8zMgC-57" vertex="1">
          <mxGeometry x="55.190000000000055" width="134.81" height="40" as="geometry" />
        </mxCell>
        <mxCell id="0X5DWx-J_k25tCR8zMgC-59" value="" style="group" parent="0X5DWx-J_k25tCR8zMgC-57" connectable="0" vertex="1">
          <mxGeometry width="45" height="40" as="geometry" />
        </mxCell>
        <mxCell id="0X5DWx-J_k25tCR8zMgC-60" value="" style="whiteSpace=wrap;html=1;dashed=1;dashPattern=1 1;fontFamily=Roboto Mono;fontSource=https://fonts.googleapis.com/css?family=Roboto+Mono;strokeWidth=1;fillColor=none;align=left;verticalAlign=middle;noLabel=1;connectable=1;allowArrows=1;snapToPoint=1;fontSize=11;" parent="0X5DWx-J_k25tCR8zMgC-59" vertex="1">
          <mxGeometry width="45" height="40" as="geometry" />
        </mxCell>
        <mxCell id="0X5DWx-J_k25tCR8zMgC-61" value="" style="group;aspect=fixed;allowArrows=0;" parent="0X5DWx-J_k25tCR8zMgC-59" connectable="0" vertex="1">
          <mxGeometry x="8.190000000000055" y="2" width="28.62" height="36" as="geometry" />
        </mxCell>
        <mxCell id="0X5DWx-J_k25tCR8zMgC-62" value="" style="shadow=0;dashed=0;html=1;strokeColor=none;fillColor=#808080;labelPosition=center;verticalLabelPosition=bottom;verticalAlign=top;align=center;outlineConnect=0;shape=mxgraph.veeam.2d.user;pointerEvents=0;fontSize=36;" parent="0X5DWx-J_k25tCR8zMgC-61" vertex="1">
          <mxGeometry x="5.151599999999999" width="18.3168" height="33.14285714285713" as="geometry" />
        </mxCell>
        <mxCell id="0X5DWx-J_k25tCR8zMgC-63" value="" style="rounded=1;whiteSpace=wrap;html=1;pointerEvents=0;fontSize=36;strokeWidth=1;fillColor=#808080;strokeColor=none;connectable=0;allowArrows=0;" parent="0X5DWx-J_k25tCR8zMgC-61" vertex="1">
          <mxGeometry y="19.428571428571416" width="28.62" height="16.571428571428566" as="geometry" />
        </mxCell>
        <mxCell id="0X5DWx-J_k25tCR8zMgC-64" value="@" style="text;html=1;strokeColor=none;fillColor=none;align=center;verticalAlign=middle;whiteSpace=wrap;labelBackgroundColor=none;fontFamily=Verdana;fontSize=16;fontColor=#FFFFFF;fontStyle=0;aspect=fixed;spacingTop=-8;" parent="0X5DWx-J_k25tCR8zMgC-61" vertex="1">
          <mxGeometry x="9.53" y="23.93" width="9.57" height="9.57" as="geometry" />
        </mxCell>
        <mxCell id="0X5DWx-J_k25tCR8zMgC-65" value="" style="group" parent="0X5DWx-J_k25tCR8zMgC-56" vertex="1" connectable="0">
          <mxGeometry x="56" y="40" width="170" height="30" as="geometry" />
        </mxCell>
        <mxCell id="0X5DWx-J_k25tCR8zMgC-66" value="has ea auth account" style="rounded=0;whiteSpace=wrap;html=1;align=right;fontFamily=Roboto;fontSource=https%3A%2F%2Ffonts.googleapis.com%2Fcss%3Ffamily%3DRoboto;spacingRight=9;" parent="0X5DWx-J_k25tCR8zMgC-65" vertex="1">
          <mxGeometry width="170" height="30" as="geometry" />
        </mxCell>
        <mxCell id="0X5DWx-J_k25tCR8zMgC-67" value="" style="group;aspect=fixed;" parent="0X5DWx-J_k25tCR8zMgC-65" vertex="1" connectable="0">
          <mxGeometry x="10" y="5" width="20" height="20" as="geometry" />
        </mxCell>
        <mxCell id="0X5DWx-J_k25tCR8zMgC-68" value="" style="shape=image;html=1;verticalAlign=top;verticalLabelPosition=bottom;labelBackgroundColor=#ffffff;imageAspect=0;aspect=fixed;image=https://cdn2.iconfinder.com/data/icons/essential-web-1-1/50/box-square-form-uncheck-rectangle-128.png;fontFamily=Roboto;fontSource=https%3A%2F%2Ffonts.googleapis.com%2Fcss%3Ffamily%3DRoboto;" parent="0X5DWx-J_k25tCR8zMgC-67" vertex="1">
          <mxGeometry width="20" height="20" as="geometry" />
        </mxCell>
        <mxCell id="0X5DWx-J_k25tCR8zMgC-69" value="" style="verticalLabelPosition=bottom;verticalAlign=top;html=1;shape=mxgraph.basic.tick;fontFamily=Roboto;fontSource=https%3A%2F%2Ffonts.googleapis.com%2Fcss%3Ffamily%3DRoboto;fillColor=#314354;" parent="0X5DWx-J_k25tCR8zMgC-67" vertex="1">
          <mxGeometry x="3.359375" y="2.1875" width="13.28125" height="15.625" as="geometry" />
        </mxCell>
        <mxCell id="0X5DWx-J_k25tCR8zMgC-73" style="rounded=0;orthogonalLoop=1;jettySize=auto;html=1;exitX=0.5;exitY=0;exitDx=0;exitDy=0;fontFamily=Roboto;fontSource=https%3A%2F%2Ffonts.googleapis.com%2Fcss%3Ffamily%3DRoboto;entryX=0.5;entryY=1;entryDx=0;entryDy=0;" parent="0X5DWx-J_k25tCR8zMgC-1" source="0X5DWx-J_k25tCR8zMgC-74" target="0X5DWx-J_k25tCR8zMgC-84" edge="1">
          <mxGeometry relative="1" as="geometry">
            <mxPoint x="2690" y="710.38" as="targetPoint" />
          </mxGeometry>
        </mxCell>
        <mxCell id="0X5DWx-J_k25tCR8zMgC-74" value="update ea contact record" style="html=1;dashed=0;whitespace=wrap;" parent="0X5DWx-J_k25tCR8zMgC-1" vertex="1">
          <mxGeometry x="2550" y="612.38" width="160" height="30" as="geometry" />
        </mxCell>
        <mxCell id="0X5DWx-J_k25tCR8zMgC-75" value=" " style="group" parent="0X5DWx-J_k25tCR8zMgC-1" vertex="1" connectable="0">
          <mxGeometry x="2800" y="758.38" width="235.1907562076749" height="41.21" as="geometry" />
        </mxCell>
        <mxCell id="0X5DWx-J_k25tCR8zMgC-76" value="" style="group" parent="0X5DWx-J_k25tCR8zMgC-75" vertex="1" connectable="0">
          <mxGeometry width="235.19" height="41.21" as="geometry" />
        </mxCell>
        <mxCell id="0X5DWx-J_k25tCR8zMgC-77" value="&lt;font color=&quot;#172b4d&quot;&gt;&lt;span style=&quot;font-size: 11px ; line-height: 1&quot;&gt;EA AUTH USER&lt;/span&gt;&lt;/font&gt;" style="whiteSpace=wrap;html=1;fontFamily=Roboto Mono;align=left;fontSize=14;spacingLeft=8;dashed=1;dashPattern=1 1;fontSource=https://fonts.googleapis.com/css?family=Roboto+Mono;spacing=0;spacingBottom=4;" parent="0X5DWx-J_k25tCR8zMgC-76" vertex="1">
          <mxGeometry x="55.1905787531095" width="179.9994212468905" height="40.000000000000014" as="geometry" />
        </mxCell>
        <mxCell id="0X5DWx-J_k25tCR8zMgC-78" value="" style="group" parent="0X5DWx-J_k25tCR8zMgC-76" connectable="0" vertex="1">
          <mxGeometry width="44.99985531172263" height="41.21" as="geometry" />
        </mxCell>
        <mxCell id="0X5DWx-J_k25tCR8zMgC-79" value="" style="whiteSpace=wrap;html=1;dashed=1;dashPattern=1 1;fontFamily=Roboto Mono;fontSource=https://fonts.googleapis.com/css?family=Roboto+Mono;strokeWidth=1;fillColor=none;align=left;verticalAlign=middle;noLabel=1;connectable=1;allowArrows=1;snapToPoint=1;fontSize=11;" parent="0X5DWx-J_k25tCR8zMgC-78" vertex="1">
          <mxGeometry x="-2.039993440798056" width="44.99985531172263" height="40.000000000000014" as="geometry" />
        </mxCell>
        <mxCell id="0X5DWx-J_k25tCR8zMgC-80" value="" style="shadow=0;dashed=0;html=1;strokeColor=none;fillColor=#808080;labelPosition=center;verticalLabelPosition=bottom;verticalAlign=top;align=center;outlineConnect=0;shape=mxgraph.veeam.2d.user;pointerEvents=0;fontSize=36;" parent="0X5DWx-J_k25tCR8zMgC-78" vertex="1">
          <mxGeometry x="11.301563662021469" y="2.000000000000001" width="18.31674110608358" height="33.142857142857146" as="geometry" />
        </mxCell>
        <mxCell id="0X5DWx-J_k25tCR8zMgC-81" value="" style="rounded=1;whiteSpace=wrap;html=1;pointerEvents=0;fontSize=36;strokeWidth=1;fillColor=#808080;strokeColor=none;connectable=0;allowArrows=0;" parent="0X5DWx-J_k25tCR8zMgC-78" vertex="1">
          <mxGeometry x="8.189973666733572" y="21.428571428571427" width="28.61990797825559" height="16.571428571428573" as="geometry" />
        </mxCell>
        <mxCell id="0X5DWx-J_k25tCR8zMgC-82" value="" style="sketch=0;html=1;aspect=fixed;strokeColor=none;shadow=0;align=center;verticalAlign=top;fillColor=#FFFFFF;shape=mxgraph.gcp2.lock;fontFamily=Roboto;fontSource=https%3A%2F%2Ffonts.googleapis.com%2Fcss%3Ffamily%3DRoboto;" parent="0X5DWx-J_k25tCR8zMgC-78" vertex="1">
          <mxGeometry x="14.999951770574244" y="21.979999999999972" width="10.919964888978024" height="13.99995498586926" as="geometry" />
        </mxCell>
        <mxCell id="0X5DWx-J_k25tCR8zMgC-83" value="" style="group;connectable=1;snapToPoint=1;expand=0;resizeWidth=1;resizable=0;rotatable=0;shadow=0;fontFamily=Roboto;fontSource=https%3A%2F%2Ffonts.googleapis.com%2Fcss%3Ffamily%3DRoboto;fillColor=#dae8fc;strokeColor=#6c8ebf;" parent="0X5DWx-J_k25tCR8zMgC-1" vertex="1" connectable="0">
          <mxGeometry x="2550.000000000001" y="522.38" width="160" height="36" as="geometry" />
        </mxCell>
        <mxCell id="0X5DWx-J_k25tCR8zMgC-84" value="EA CONTACT API" style="rounded=0;fontFamily=Roboto Mono;fontSize=11;strokeColor=#6c8ebf;align=left;fontStyle=2;fontSource=https%3A%2F%2Ffonts.googleapis.com%2Fcss%3Ffamily%3DRoboto%2BMono;spacingLeft=35;fillColor=#dae8fc;labelBackgroundColor=none;labelBorderColor=none;sketch=0;pointerEvents=0;resizeWidth=1;shadow=0;" parent="0X5DWx-J_k25tCR8zMgC-83" vertex="1">
          <mxGeometry width="160" height="36" as="geometry" />
        </mxCell>
        <mxCell id="0X5DWx-J_k25tCR8zMgC-85" value="" style="html=1;aspect=fixed;strokeColor=none;shadow=0;align=center;verticalAlign=top;shape=mxgraph.gcp2.gear;fillColor=#4D4D4D;labelBackgroundColor=none;labelBorderColor=none;sketch=0;pointerEvents=0;fontColor=#808080;connectable=0;allowArrows=0;expand=0;resizable=0;rotatable=0;portConstraint=west;fontFamily=Roboto;fontSource=https%3A%2F%2Ffonts.googleapis.com%2Fcss%3Ffamily%3DRoboto;" parent="0X5DWx-J_k25tCR8zMgC-83" vertex="1">
          <mxGeometry x="5.383833333333335" y="6" width="24" height="24" as="geometry" />
        </mxCell>
        <mxCell id="0X5DWx-J_k25tCR8zMgC-86" value="" style="group;connectable=1;snapToPoint=1;expand=0;resizeWidth=1;resizable=0;rotatable=0;shadow=0;fontFamily=Roboto;fontSource=https%3A%2F%2Ffonts.googleapis.com%2Fcss%3Ffamily%3DRoboto;fillColor=#dae8fc;strokeColor=#6c8ebf;" parent="0X5DWx-J_k25tCR8zMgC-1" vertex="1" connectable="0">
          <mxGeometry x="2520" y="986.38" width="160" height="36" as="geometry" />
        </mxCell>
        <mxCell id="0X5DWx-J_k25tCR8zMgC-87" value="TEAM ACCOUNT API" style="rounded=0;fontFamily=Roboto Mono;fontSize=11;strokeColor=#6c8ebf;align=left;fontStyle=2;fontSource=https%3A%2F%2Ffonts.googleapis.com%2Fcss%3Ffamily%3DRoboto%2BMono;spacingLeft=35;fillColor=#dae8fc;labelBackgroundColor=none;labelBorderColor=none;sketch=0;pointerEvents=0;resizeWidth=1;shadow=0;" parent="0X5DWx-J_k25tCR8zMgC-86" vertex="1">
          <mxGeometry width="160" height="36" as="geometry" />
        </mxCell>
        <mxCell id="0X5DWx-J_k25tCR8zMgC-88" value="" style="html=1;aspect=fixed;strokeColor=none;shadow=0;align=center;verticalAlign=top;shape=mxgraph.gcp2.gear;fillColor=#4D4D4D;labelBackgroundColor=none;labelBorderColor=none;sketch=0;pointerEvents=0;fontColor=#808080;connectable=0;allowArrows=0;expand=0;resizable=0;rotatable=0;portConstraint=west;fontFamily=Roboto;fontSource=https%3A%2F%2Ffonts.googleapis.com%2Fcss%3Ffamily%3DRoboto;" parent="0X5DWx-J_k25tCR8zMgC-86" vertex="1">
          <mxGeometry x="5.383833333333335" y="6" width="24" height="24" as="geometry" />
        </mxCell>
        <mxCell id="0X5DWx-J_k25tCR8zMgC-89" value="is member &lt;br&gt;connected &lt;br&gt;to a team?" style="shape=rhombus;html=1;dashed=0;whitespace=wrap;perimeter=rhombusPerimeter;" parent="0X5DWx-J_k25tCR8zMgC-1" vertex="1">
          <mxGeometry x="1920" y="1263.6200000000001" width="110" height="100" as="geometry" />
        </mxCell>
        <mxCell id="0X5DWx-J_k25tCR8zMgC-90" style="rounded=0;orthogonalLoop=1;jettySize=auto;html=1;exitX=0.5;exitY=1;exitDx=0;exitDy=0;fontFamily=Roboto Mono;fontSource=https%3A%2F%2Ffonts.googleapis.com%2Fcss%3Ffamily%3DRoboto%2BMono;fontSize=12;startArrow=none;startFill=0;edgeStyle=orthogonalEdgeStyle;exitPerimeter=0;" parent="0X5DWx-J_k25tCR8zMgC-1" source="d2YbWiwlK6z3USRgEM1a-403" edge="1">
          <mxGeometry relative="1" as="geometry">
            <mxPoint x="1970" y="1472.38" as="targetPoint" />
            <mxPoint x="1472.9299999999998" y="1309.38" as="sourcePoint" />
            <Array as="points">
              <mxPoint x="1606" y="1390.38" />
              <mxPoint x="1810" y="1390.38" />
              <mxPoint x="1810" y="1472.38" />
            </Array>
          </mxGeometry>
        </mxCell>
        <mxCell id="0X5DWx-J_k25tCR8zMgC-91" style="edgeStyle=orthogonalEdgeStyle;rounded=0;orthogonalLoop=1;jettySize=auto;html=1;exitX=0.5;exitY=1;exitDx=0;exitDy=0;" parent="0X5DWx-J_k25tCR8zMgC-1" source="0X5DWx-J_k25tCR8zMgC-89" edge="1" target="0X5DWx-J_k25tCR8zMgC-97">
          <mxGeometry relative="1" as="geometry">
            <mxPoint x="1642.06" y="1415.6200000000001" as="targetPoint" />
          </mxGeometry>
        </mxCell>
        <mxCell id="0X5DWx-J_k25tCR8zMgC-92" value="NO" style="edgeLabel;html=1;align=center;verticalAlign=middle;resizable=0;points=[];" parent="0X5DWx-J_k25tCR8zMgC-91" vertex="1" connectable="0">
          <mxGeometry x="-0.3" y="-1" relative="1" as="geometry">
            <mxPoint as="offset" />
          </mxGeometry>
        </mxCell>
        <mxCell id="d2YbWiwlK6z3USRgEM1a-421" style="edgeStyle=orthogonalEdgeStyle;rounded=0;jumpStyle=arc;orthogonalLoop=1;jettySize=auto;html=1;exitX=1;exitY=0.5;exitDx=0;exitDy=0;fontFamily=Roboto;fontSource=https%3A%2F%2Ffonts.googleapis.com%2Fcss%3Ffamily%3DRoboto;fontSize=12;fontColor=default;startArrow=oval;startFill=0;endArrow=classic;endFill=0;strokeColor=default;" edge="1" parent="0X5DWx-J_k25tCR8zMgC-1" source="0X5DWx-J_k25tCR8zMgC-93">
          <mxGeometry relative="1" as="geometry">
            <mxPoint x="2230" y="1263.5510344827587" as="targetPoint" />
          </mxGeometry>
        </mxCell>
        <mxCell id="0X5DWx-J_k25tCR8zMgC-93" value="add member &lt;br&gt;to team" style="html=1;dashed=0;whitespace=wrap;" parent="0X5DWx-J_k25tCR8zMgC-1" vertex="1">
          <mxGeometry x="2080" y="1238.6200000000001" width="100" height="50" as="geometry" />
        </mxCell>
        <mxCell id="0X5DWx-J_k25tCR8zMgC-94" style="edgeStyle=orthogonalEdgeStyle;rounded=0;orthogonalLoop=1;jettySize=auto;html=1;exitX=1;exitY=0.5;exitDx=0;exitDy=0;entryX=0;entryY=0.5;entryDx=0;entryDy=0;" parent="0X5DWx-J_k25tCR8zMgC-1" source="0X5DWx-J_k25tCR8zMgC-89" target="0X5DWx-J_k25tCR8zMgC-93" edge="1">
          <mxGeometry relative="1" as="geometry" />
        </mxCell>
        <mxCell id="0X5DWx-J_k25tCR8zMgC-95" value="YES" style="edgeLabel;html=1;align=center;verticalAlign=middle;resizable=0;points=[];" parent="0X5DWx-J_k25tCR8zMgC-94" vertex="1" connectable="0">
          <mxGeometry x="0.0492" y="-1" relative="1" as="geometry">
            <mxPoint as="offset" />
          </mxGeometry>
        </mxCell>
        <mxCell id="d2YbWiwlK6z3USRgEM1a-423" style="edgeStyle=none;rounded=0;jumpStyle=arc;orthogonalLoop=1;jettySize=auto;html=1;exitX=0.5;exitY=1;exitDx=0;exitDy=0;fontFamily=Roboto;fontSource=https%3A%2F%2Ffonts.googleapis.com%2Fcss%3Ffamily%3DRoboto;fontSize=12;fontColor=default;startArrow=oval;startFill=0;endArrow=classic;endFill=0;strokeColor=default;" edge="1" parent="0X5DWx-J_k25tCR8zMgC-1" source="0X5DWx-J_k25tCR8zMgC-97" target="d2YbWiwlK6z3USRgEM1a-422">
          <mxGeometry relative="1" as="geometry" />
        </mxCell>
        <mxCell id="0X5DWx-J_k25tCR8zMgC-97" value="create &lt;br&gt;team Account&lt;br&gt;" style="html=1;dashed=0;whitespace=wrap;" parent="0X5DWx-J_k25tCR8zMgC-1" vertex="1">
          <mxGeometry x="2080" y="1323.6200000000001" width="100" height="50" as="geometry" />
        </mxCell>
        <mxCell id="0X5DWx-J_k25tCR8zMgC-117" value="" style="group" parent="0X5DWx-J_k25tCR8zMgC-1" vertex="1" connectable="0">
          <mxGeometry x="2810" y="892.38" width="232.12075620767519" height="40" as="geometry" />
        </mxCell>
        <mxCell id="0X5DWx-J_k25tCR8zMgC-118" value="&lt;font color=&quot;#172b4d&quot;&gt;&lt;span style=&quot;font-size: 11px ; line-height: 1&quot;&gt;EA CUSTOMERS / Team&lt;br&gt;&lt;/span&gt;&lt;/font&gt;" style="whiteSpace=wrap;html=1;fontFamily=Roboto Mono;align=left;fontSize=14;spacingLeft=8;dashed=1;dashPattern=1 1;fontSource=https%3A%2F%2Ffonts.googleapis.com%2Fcss%3Ffamily%3DRoboto%2BMono;spacing=0;spacingBottom=4;" parent="0X5DWx-J_k25tCR8zMgC-117" vertex="1">
          <mxGeometry x="52.120756207675186" width="180" height="40" as="geometry" />
        </mxCell>
        <mxCell id="0X5DWx-J_k25tCR8zMgC-119" value="" style="group" parent="0X5DWx-J_k25tCR8zMgC-117" vertex="1" connectable="0">
          <mxGeometry width="45" height="40" as="geometry" />
        </mxCell>
        <mxCell id="0X5DWx-J_k25tCR8zMgC-120" value="" style="group;allowArrows=0;dropTarget=0;expand=0;rotatable=0;" parent="0X5DWx-J_k25tCR8zMgC-119" vertex="1" connectable="0">
          <mxGeometry x="7.5" y="3.6000000000000227" width="30" height="32.799999999999955" as="geometry" />
        </mxCell>
        <mxCell id="0X5DWx-J_k25tCR8zMgC-121" value="&lt;pre&gt;&lt;br&gt;&lt;/pre&gt;" style="dashed=0;connectable=0;html=1;strokeColor=none;shape=mxgraph.gcp2.report;part=1;labelPosition=center;verticalLabelPosition=top;align=center;verticalAlign=middle;fontFamily=Roboto Mono;fontSource=https://fonts.googleapis.com/css?family=Roboto+Mono;spacingTop=6;fillColor=#4D4D4D;allowArrows=0;dashPattern=1 1;" parent="0X5DWx-J_k25tCR8zMgC-120" vertex="1">
          <mxGeometry y="8.799999999999955" width="30" height="24" as="geometry" />
        </mxCell>
        <mxCell id="0X5DWx-J_k25tCR8zMgC-122" value="&lt;b style=&quot;font-size: 8px&quot;&gt;&lt;font color=&quot;#ffffff&quot; style=&quot;font-size: 8px&quot;&gt;SQL&lt;/font&gt;&lt;/b&gt;" style="rounded=0;whiteSpace=wrap;html=1;fontFamily=Roboto Mono;fontSource=https://fonts.googleapis.com/css?family=Roboto+Mono;fontSize=8;fontColor=#4D4D4D;strokeWidth=1;verticalAlign=middle;strokeColor=none;fillColor=#4D4D4D;connectable=0;allowArrows=0;dashed=1;dashPattern=1 1;" parent="0X5DWx-J_k25tCR8zMgC-120" vertex="1">
          <mxGeometry width="30" height="10.6" as="geometry" />
        </mxCell>
        <mxCell id="0X5DWx-J_k25tCR8zMgC-123" value="" style="whiteSpace=wrap;html=1;dashed=1;dashPattern=1 1;fontFamily=Roboto Mono;fontSource=https%3A%2F%2Ffonts.googleapis.com%2Fcss%3Ffamily%3DRoboto%2BMono;strokeWidth=1;fillColor=none;align=left;verticalAlign=middle;noLabel=1;connectable=0;allowArrows=0;snapToPoint=0;" parent="0X5DWx-J_k25tCR8zMgC-119" vertex="1">
          <mxGeometry width="45" height="40" as="geometry" />
        </mxCell>
        <mxCell id="0X5DWx-J_k25tCR8zMgC-124" value="" style="group;connectable=1;" parent="0X5DWx-J_k25tCR8zMgC-1" vertex="1" connectable="0">
          <mxGeometry x="2800" y="521.38" width="232.12075620767496" height="40" as="geometry" />
        </mxCell>
        <mxCell id="0X5DWx-J_k25tCR8zMgC-125" value="&lt;font color=&quot;#172b4d&quot;&gt;&lt;span style=&quot;font-size: 11px ; line-height: 1&quot;&gt;EA CONTACTS&lt;br&gt;&lt;/span&gt;&lt;/font&gt;" style="whiteSpace=wrap;html=1;fontFamily=Roboto Mono;align=left;fontSize=14;spacingLeft=8;dashed=1;dashPattern=1 1;fontSource=https%3A%2F%2Ffonts.googleapis.com%2Fcss%3Ffamily%3DRoboto%2BMono;spacing=0;spacingBottom=4;" parent="0X5DWx-J_k25tCR8zMgC-124" vertex="1">
          <mxGeometry x="52.12075620767496" width="180" height="40" as="geometry" />
        </mxCell>
        <mxCell id="0X5DWx-J_k25tCR8zMgC-126" value="" style="group" parent="0X5DWx-J_k25tCR8zMgC-124" vertex="1" connectable="0">
          <mxGeometry width="45" height="40" as="geometry" />
        </mxCell>
        <mxCell id="0X5DWx-J_k25tCR8zMgC-127" value="" style="group;allowArrows=0;dropTarget=0;expand=0;rotatable=0;" parent="0X5DWx-J_k25tCR8zMgC-126" vertex="1" connectable="0">
          <mxGeometry x="7.5" y="3.6000000000000227" width="30" height="32.799999999999955" as="geometry" />
        </mxCell>
        <mxCell id="0X5DWx-J_k25tCR8zMgC-128" value="&lt;pre&gt;&lt;br&gt;&lt;/pre&gt;" style="dashed=0;connectable=0;html=1;strokeColor=none;shape=mxgraph.gcp2.report;part=1;labelPosition=center;verticalLabelPosition=top;align=center;verticalAlign=middle;fontFamily=Roboto Mono;fontSource=https://fonts.googleapis.com/css?family=Roboto+Mono;spacingTop=6;fillColor=#4D4D4D;allowArrows=0;dashPattern=1 1;" parent="0X5DWx-J_k25tCR8zMgC-127" vertex="1">
          <mxGeometry y="8.799999999999955" width="30" height="24" as="geometry" />
        </mxCell>
        <mxCell id="0X5DWx-J_k25tCR8zMgC-129" value="&lt;b style=&quot;font-size: 8px&quot;&gt;&lt;font color=&quot;#ffffff&quot; style=&quot;font-size: 8px&quot;&gt;SQL&lt;/font&gt;&lt;/b&gt;" style="rounded=0;whiteSpace=wrap;html=1;fontFamily=Roboto Mono;fontSource=https://fonts.googleapis.com/css?family=Roboto+Mono;fontSize=8;fontColor=#4D4D4D;strokeWidth=1;verticalAlign=middle;strokeColor=none;fillColor=#4D4D4D;connectable=0;allowArrows=0;dashed=1;dashPattern=1 1;" parent="0X5DWx-J_k25tCR8zMgC-127" vertex="1">
          <mxGeometry width="30" height="10.6" as="geometry" />
        </mxCell>
        <mxCell id="0X5DWx-J_k25tCR8zMgC-130" value="" style="whiteSpace=wrap;html=1;dashed=1;dashPattern=1 1;fontFamily=Roboto Mono;fontSource=https%3A%2F%2Ffonts.googleapis.com%2Fcss%3Ffamily%3DRoboto%2BMono;strokeWidth=1;fillColor=none;align=left;verticalAlign=middle;noLabel=1;connectable=0;allowArrows=0;snapToPoint=0;" parent="0X5DWx-J_k25tCR8zMgC-126" vertex="1">
          <mxGeometry width="45" height="40" as="geometry" />
        </mxCell>
        <mxCell id="0X5DWx-J_k25tCR8zMgC-131" value="" style="group;connectable=1;snapToPoint=1;expand=0;resizeWidth=1;resizable=0;rotatable=0;shadow=0;fontFamily=Roboto;fontSource=https%3A%2F%2Ffonts.googleapis.com%2Fcss%3Ffamily%3DRoboto;fillColor=#dae8fc;strokeColor=#6c8ebf;" parent="0X5DWx-J_k25tCR8zMgC-1" vertex="1" connectable="0">
          <mxGeometry x="2550" y="752.38" width="160" height="36" as="geometry" />
        </mxCell>
        <mxCell id="0X5DWx-J_k25tCR8zMgC-132" value="EA AUTH API" style="rounded=0;fontFamily=Roboto Mono;fontSize=11;strokeColor=#6c8ebf;align=left;fontStyle=2;fontSource=https%3A%2F%2Ffonts.googleapis.com%2Fcss%3Ffamily%3DRoboto%2BMono;spacingLeft=35;fillColor=#dae8fc;labelBackgroundColor=none;labelBorderColor=none;sketch=0;pointerEvents=0;resizeWidth=1;shadow=0;" parent="0X5DWx-J_k25tCR8zMgC-131" vertex="1">
          <mxGeometry width="160" height="36" as="geometry" />
        </mxCell>
        <mxCell id="0X5DWx-J_k25tCR8zMgC-133" value="" style="html=1;aspect=fixed;strokeColor=none;shadow=0;align=center;verticalAlign=top;shape=mxgraph.gcp2.gear;fillColor=#4D4D4D;labelBackgroundColor=none;labelBorderColor=none;sketch=0;pointerEvents=0;fontColor=#808080;connectable=0;allowArrows=0;expand=0;resizable=0;rotatable=0;portConstraint=west;fontFamily=Roboto;fontSource=https%3A%2F%2Ffonts.googleapis.com%2Fcss%3Ffamily%3DRoboto;" parent="0X5DWx-J_k25tCR8zMgC-131" vertex="1">
          <mxGeometry x="5.383833333333335" y="6" width="24" height="24" as="geometry" />
        </mxCell>
        <mxCell id="0X5DWx-J_k25tCR8zMgC-137" style="edgeStyle=orthogonalEdgeStyle;rounded=0;orthogonalLoop=1;jettySize=auto;html=1;exitX=0.974;exitY=0.552;exitDx=0;exitDy=0;fontFamily=Roboto;fontSource=https%3A%2F%2Ffonts.googleapis.com%2Fcss%3Ffamily%3DRoboto;entryX=0.5;entryY=0;entryDx=0;entryDy=0;exitPerimeter=0;" parent="0X5DWx-J_k25tCR8zMgC-1" source="0X5DWx-J_k25tCR8zMgC-139" target="0X5DWx-J_k25tCR8zMgC-42" edge="1">
          <mxGeometry relative="1" as="geometry" />
        </mxCell>
        <mxCell id="0X5DWx-J_k25tCR8zMgC-138" value="NO" style="edgeLabel;html=1;align=center;verticalAlign=middle;resizable=0;points=[];fontFamily=Roboto;" parent="0X5DWx-J_k25tCR8zMgC-137" vertex="1" connectable="0">
          <mxGeometry x="-0.2658" y="-2" relative="1" as="geometry">
            <mxPoint as="offset" />
          </mxGeometry>
        </mxCell>
        <mxCell id="d2YbWiwlK6z3USRgEM1a-342" value="YES" style="edgeStyle=orthogonalEdgeStyle;rounded=0;orthogonalLoop=1;jettySize=auto;html=1;exitX=0.5;exitY=1;exitDx=0;exitDy=0;fontFamily=Roboto;fontSource=https%3A%2F%2Ffonts.googleapis.com%2Fcss%3Ffamily%3DRoboto;startArrow=oval;startFill=0;endArrow=classic;endFill=0;strokeColor=default;entryX=0.5;entryY=0;entryDx=0;entryDy=0;" edge="1" parent="0X5DWx-J_k25tCR8zMgC-1" source="0X5DWx-J_k25tCR8zMgC-139" target="d2YbWiwlK6z3USRgEM1a-343">
          <mxGeometry relative="1" as="geometry">
            <mxPoint x="2170" y="882.38" as="targetPoint" />
          </mxGeometry>
        </mxCell>
        <mxCell id="0X5DWx-J_k25tCR8zMgC-139" value="does contact &lt;br&gt;match &lt;br&gt;an existing &lt;br&gt;auth user&lt;br&gt;" style="shape=rhombus;html=1;dashed=0;whitespace=wrap;perimeter=rhombusPerimeter;" parent="0X5DWx-J_k25tCR8zMgC-1" vertex="1">
          <mxGeometry x="2148.04" y="572.38" width="138.5" height="120" as="geometry" />
        </mxCell>
        <mxCell id="0X5DWx-J_k25tCR8zMgC-141" style="edgeStyle=orthogonalEdgeStyle;rounded=0;orthogonalLoop=1;jettySize=auto;html=1;exitX=0.5;exitY=0;exitDx=0;exitDy=0;entryX=0.5;entryY=1;entryDx=0;entryDy=0;fontFamily=Roboto;fontSource=https%3A%2F%2Ffonts.googleapis.com%2Fcss%3Ffamily%3DRoboto;" parent="0X5DWx-J_k25tCR8zMgC-1" source="0X5DWx-J_k25tCR8zMgC-132" target="0X5DWx-J_k25tCR8zMgC-74" edge="1">
          <mxGeometry relative="1" as="geometry" />
        </mxCell>
        <mxCell id="0X5DWx-J_k25tCR8zMgC-225" value="" style="group" parent="0X5DWx-J_k25tCR8zMgC-1" vertex="1" connectable="0">
          <mxGeometry x="1949.9999999999995" y="572.38" width="90" height="90" as="geometry" />
        </mxCell>
        <object label="&lt;span&gt;%apiAction%&lt;/span&gt;" placeholders="1" apiAction="Auth&#xa;Gateway" id="0X5DWx-J_k25tCR8zMgC-226">
          <mxCell style="shape=hexagon;perimeter=hexagonPerimeter2;whiteSpace=wrap;html=1;fixedSize=1;direction=south;strokeWidth=1;fontFamily=Roboto Mono;verticalAlign=bottom;spacingTop=17;labelPosition=center;verticalLabelPosition=middle;align=center;spacingBottom=9;fontSize=11;fillColor=#dae8fc;strokeColor=#6c8ebf;fontSource=https%3A%2F%2Ffonts.googleapis.com%2Fcss%3Ffamily%3DRoboto%2BMono;points=[[0,0],[0,0.25],[0,0.5],[0,0.75],[0,1],[0.25,0],[0.5,0],[0.75,0],[0,1],[1,0],[1,0.25],[1,0.5],[1,0.75],[0.25,1],[0.5,1],[0.75,1],[1,1]];snapToPoint=1;" parent="0X5DWx-J_k25tCR8zMgC-225" vertex="1">
            <mxGeometry width="90" height="90" as="geometry" />
          </mxCell>
        </object>
        <mxCell id="0X5DWx-J_k25tCR8zMgC-227" value="" style="html=1;aspect=fixed;strokeColor=none;shadow=0;align=center;verticalAlign=top;shape=mxgraph.gcp2.lock;fontFamily=Verdana;fontSize=12;fillColor=#575757;connectable=0;allowArrows=0;" parent="0X5DWx-J_k25tCR8zMgC-225" vertex="1">
          <mxGeometry x="30" y="10.000000000000455" width="29.02" height="37.2" as="geometry" />
        </mxCell>
        <mxCell id="0X5DWx-J_k25tCR8zMgC-228" style="edgeStyle=orthogonalEdgeStyle;rounded=0;orthogonalLoop=1;jettySize=auto;html=1;exitX=0.5;exitY=0;exitDx=0;exitDy=0;entryX=0;entryY=0.5;entryDx=0;entryDy=0;fontFamily=Roboto;fontSource=https%3A%2F%2Ffonts.googleapis.com%2Fcss%3Ffamily%3DRoboto;" parent="0X5DWx-J_k25tCR8zMgC-1" source="0X5DWx-J_k25tCR8zMgC-226" target="0X5DWx-J_k25tCR8zMgC-139" edge="1">
          <mxGeometry relative="1" as="geometry" />
        </mxCell>
        <mxCell id="0X5DWx-J_k25tCR8zMgC-241" value="" style="group;shadow=0;fontFamily=Roboto;fontSource=https%3A%2F%2Ffonts.googleapis.com%2Fcss%3Ffamily%3DRoboto;fillColor=#FFFFFF;" parent="0X5DWx-J_k25tCR8zMgC-1" vertex="1" connectable="0">
          <mxGeometry x="2260" y="262.38" width="234.62075620767496" height="40" as="geometry" />
        </mxCell>
        <mxCell id="0X5DWx-J_k25tCR8zMgC-242" value="" style="group;shadow=0;fontFamily=Roboto;fontSource=https%3A%2F%2Ffonts.googleapis.com%2Fcss%3Ffamily%3DRoboto;fillColor=#FFFFFF;" parent="0X5DWx-J_k25tCR8zMgC-241" vertex="1" connectable="0">
          <mxGeometry width="50" height="40" as="geometry" />
        </mxCell>
        <mxCell id="0X5DWx-J_k25tCR8zMgC-243" value="" style="shape=image;verticalLabelPosition=bottom;verticalAlign=top;aspect=fixed;imageAspect=0;image=data:image/svg+xml,PHN2ZyB4bWxucz0iaHR0cDovL3d3dy53My5vcmcvMjAwMC9zdmciIHhtbG5zOnhsaW5rPSJodHRwOi8vd3d3LnczLm9yZy8xOTk5L3hsaW5rIiB3aWR0aD0iMjU2IiBoZWlnaHQ9IjI1NiIgdmlld0JveD0iMCAwIDI1NiAyNTYiIHZlcnNpb249IjEuMSIgcHJlc2VydmVBc3BlY3RSYXRpbz0ieE1pZFlNaWQiPiYjeGE7CTxnPiYjeGE7CQk8cG9seWdvbiBmaWxsPSIjOURFMUYzIiBwb2ludHM9Ijg1LjMzMzUgODUuMzMzIDAuMDAwNSA4NS4zMzMgMC4wMDA1IDE3MC42NjYgMC4wMDA1IDI1NiA4NS4zMzM1IDI1NiAxNzAuNjY2NSAyNTYgMTcwLjY2NjUgMTcwLjY2NiAxNzAuNjY2NSA4NS4zMzMiLz4mI3hhOwkJPHBvbHlnb24gZmlsbD0iIzI3QjRFMSIgcG9pbnRzPSI4NS4zMzM1IDAuMDAwNCA4NS4zMzM1IDg1LjMzMzQgODUuMzMzNSAxNzAuNjY2NCAxNzAuNjY2NSAxNzAuNjY2NCAyNTUuOTk5NSAxNzAuNjY2NCAyNTUuOTk5NSAwLjAwMDQiLz4mI3hhOwkJPHBvbHlnb24gZmlsbD0iIzFBODJFMiIgcG9pbnRzPSIwIDI1NiA4NS4zMzMgMjU2IDg1LjMzMyAxNzAuNjY3IDAgMTcwLjY2NyIvPiYjeGE7CQk8cG9seWdvbiBmaWxsPSIjMUE4MkUyIiBwb2ludHM9IjE3MC42NjcgODUuMzMzIDI1NiA4NS4zMzMgMjU2IDAgMTcwLjY2NyAwIi8+JiN4YTsJCTxwb2x5Z29uIGZpbGw9IiMyMzlGRDciIHBvaW50cz0iODUuMzM0IDE3MC42NjcgMTcwLjY2NyAxNzAuNjY3IDE3MC42NjcgODUuMzM0IDg1LjMzNCA4NS4zMzQiLz4mI3hhOwk8L2c+JiN4YTs8L3N2Zz4=;shadow=0;fontFamily=Roboto;fontSource=https%3A%2F%2Ffonts.googleapis.com%2Fcss%3Ffamily%3DRoboto;fillColor=#FFFFFF;" parent="0X5DWx-J_k25tCR8zMgC-242" vertex="1">
          <mxGeometry x="7.5" y="5" width="30" height="30" as="geometry" />
        </mxCell>
        <mxCell id="0X5DWx-J_k25tCR8zMgC-244" value="" style="whiteSpace=wrap;html=1;dashed=1;dashPattern=1 1;fontFamily=Roboto Mono;fontSource=https%3A%2F%2Ffonts.googleapis.com%2Fcss%3Ffamily%3DRoboto%2BMono;strokeWidth=1;fillColor=none;align=left;verticalAlign=middle;noLabel=1;connectable=1;allowArrows=1;snapToPoint=1;shadow=0;" parent="0X5DWx-J_k25tCR8zMgC-242" vertex="1">
          <mxGeometry width="50" height="40" as="geometry" />
        </mxCell>
        <mxCell id="0X5DWx-J_k25tCR8zMgC-245" value="&lt;font color=&quot;#172b4d&quot;&gt;&lt;span style=&quot;font-size: 11px ; line-height: 1&quot;&gt;SendGrid&amp;nbsp;&lt;/span&gt;&lt;/font&gt;" style="whiteSpace=wrap;html=1;fontFamily=Roboto Mono;align=left;fontSize=14;spacingLeft=8;dashed=1;dashPattern=1 1;fontSource=https%3A%2F%2Ffonts.googleapis.com%2Fcss%3Ffamily%3DRoboto%2BMono;spacing=0;spacingBottom=4;shadow=0;fillColor=#FFFFFF;" parent="0X5DWx-J_k25tCR8zMgC-241" vertex="1">
          <mxGeometry x="54.62075620767496" width="180" height="40" as="geometry" />
        </mxCell>
        <mxCell id="0X5DWx-J_k25tCR8zMgC-251" style="edgeStyle=none;rounded=0;orthogonalLoop=1;jettySize=auto;html=1;exitX=1;exitY=0.5;exitDx=0;exitDy=0;fontFamily=Roboto;fontSource=https%3A%2F%2Ffonts.googleapis.com%2Fcss%3Ffamily%3DRoboto;" parent="0X5DWx-J_k25tCR8zMgC-1" source="0X5DWx-J_k25tCR8zMgC-87" edge="1">
          <mxGeometry relative="1" as="geometry">
            <mxPoint x="2830" y="1002.38" as="targetPoint" />
          </mxGeometry>
        </mxCell>
        <mxCell id="0X5DWx-J_k25tCR8zMgC-252" style="edgeStyle=none;rounded=0;orthogonalLoop=1;jettySize=auto;html=1;fontFamily=Roboto;fontSource=https%3A%2F%2Ffonts.googleapis.com%2Fcss%3Ffamily%3DRoboto;" parent="0X5DWx-J_k25tCR8zMgC-1" source="0X5DWx-J_k25tCR8zMgC-84" edge="1">
          <mxGeometry relative="1" as="geometry">
            <mxPoint x="2800" y="542.38" as="targetPoint" />
          </mxGeometry>
        </mxCell>
        <mxCell id="0X5DWx-J_k25tCR8zMgC-294" value="" style="group;connectable=1;snapToPoint=1;expand=0;resizeWidth=1;resizable=0;rotatable=0;shadow=0;fontFamily=Roboto;fontSource=https%3A%2F%2Ffonts.googleapis.com%2Fcss%3Ffamily%3DRoboto;fillColor=#dae8fc;strokeColor=#6c8ebf;" parent="0X5DWx-J_k25tCR8zMgC-1" vertex="1" connectable="0">
          <mxGeometry x="2650.000000000001" y="338.26" width="160" height="36" as="geometry" />
        </mxCell>
        <mxCell id="0X5DWx-J_k25tCR8zMgC-295" value="ASSET MANAGER API" style="rounded=0;fontFamily=Roboto Mono;fontSize=11;strokeColor=#6c8ebf;align=left;fontStyle=2;fontSource=https%3A%2F%2Ffonts.googleapis.com%2Fcss%3Ffamily%3DRoboto%2BMono;spacingLeft=35;fillColor=#dae8fc;labelBackgroundColor=none;labelBorderColor=none;sketch=0;pointerEvents=0;resizeWidth=1;shadow=0;" parent="0X5DWx-J_k25tCR8zMgC-294" vertex="1">
          <mxGeometry width="160" height="36" as="geometry" />
        </mxCell>
        <mxCell id="0X5DWx-J_k25tCR8zMgC-296" value="" style="html=1;aspect=fixed;strokeColor=none;shadow=0;align=center;verticalAlign=top;shape=mxgraph.gcp2.gear;fillColor=#4D4D4D;labelBackgroundColor=none;labelBorderColor=none;sketch=0;pointerEvents=0;fontColor=#808080;connectable=0;allowArrows=0;expand=0;resizable=0;rotatable=0;portConstraint=west;fontFamily=Roboto;fontSource=https%3A%2F%2Ffonts.googleapis.com%2Fcss%3Ffamily%3DRoboto;" parent="0X5DWx-J_k25tCR8zMgC-294" vertex="1">
          <mxGeometry x="5.383833333333335" y="6" width="24" height="24" as="geometry" />
        </mxCell>
        <mxCell id="0X5DWx-J_k25tCR8zMgC-297" value="" style="group;shadow=0;fontFamily=Roboto;fontSource=https%3A%2F%2Ffonts.googleapis.com%2Fcss%3Ffamily%3DRoboto;fillColor=none;" parent="0X5DWx-J_k25tCR8zMgC-1" vertex="1" connectable="0">
          <mxGeometry x="2820.005" y="322.38" width="234.62075620767496" height="40" as="geometry" />
        </mxCell>
        <mxCell id="0X5DWx-J_k25tCR8zMgC-298" value="" style="shape=image;html=1;verticalAlign=top;verticalLabelPosition=bottom;labelBackgroundColor=#ffffff;imageAspect=0;aspect=fixed;image=https://cdn3.iconfinder.com/data/icons/essential-pack-2/48/6-Photo-128.png;shadow=0;fontFamily=Roboto;fontSource=https%3A%2F%2Ffonts.googleapis.com%2Fcss%3Ffamily%3DRoboto;fillColor=#FFFFFF;" parent="0X5DWx-J_k25tCR8zMgC-297" vertex="1">
          <mxGeometry x="7.499999999999659" y="5" width="30" height="30" as="geometry" />
        </mxCell>
        <mxCell id="0X5DWx-J_k25tCR8zMgC-299" value="&lt;font color=&quot;#172b4d&quot;&gt;&lt;span style=&quot;font-size: 11px ; line-height: 1&quot;&gt;MediaAsset&lt;/span&gt;&lt;/font&gt;" style="whiteSpace=wrap;html=1;fontFamily=Roboto Mono;align=left;fontSize=14;spacingLeft=8;dashed=1;dashPattern=1 1;fontSource=https%3A%2F%2Ffonts.googleapis.com%2Fcss%3Ffamily%3DRoboto%2BMono;spacing=0;spacingBottom=4;shadow=0;fillColor=#FFFFFF;" parent="0X5DWx-J_k25tCR8zMgC-297" vertex="1">
          <mxGeometry x="54.62075620767496" width="180" height="40" as="geometry" />
        </mxCell>
        <mxCell id="0X5DWx-J_k25tCR8zMgC-300" value="" style="whiteSpace=wrap;html=1;dashed=1;dashPattern=1 1;fontFamily=Roboto Mono;fontSource=https%3A%2F%2Ffonts.googleapis.com%2Fcss%3Ffamily%3DRoboto%2BMono;strokeWidth=1;fillColor=none;align=left;verticalAlign=middle;noLabel=1;connectable=1;allowArrows=1;snapToPoint=1;fontSize=11;shadow=0;" parent="0X5DWx-J_k25tCR8zMgC-297" vertex="1">
          <mxGeometry width="45" height="40" as="geometry" />
        </mxCell>
        <mxCell id="2q1jHSVGC-Nx0SEC5J3e-11" value="" style="group;" parent="0X5DWx-J_k25tCR8zMgC-1" vertex="1" connectable="0">
          <mxGeometry x="5065.01" y="530" width="234.62075620767496" height="40" as="geometry" />
        </mxCell>
        <mxCell id="2q1jHSVGC-Nx0SEC5J3e-12" value="&lt;font color=&quot;#172b4d&quot;&gt;&lt;span style=&quot;font-size: 11px ; line-height: 1&quot;&gt;OD BRIEFCASE DATA&amp;nbsp;&lt;/span&gt;&lt;/font&gt;" style="whiteSpace=wrap;html=1;fontFamily=Roboto Mono;align=left;fontSize=14;spacingLeft=8;dashed=1;dashPattern=1 1;fontSource=https%3A%2F%2Ffonts.googleapis.com%2Fcss%3Ffamily%3DRoboto%2BMono;spacing=0;spacingBottom=4;" parent="2q1jHSVGC-Nx0SEC5J3e-11" vertex="1">
          <mxGeometry x="54.62075620767496" width="180" height="40" as="geometry" />
        </mxCell>
        <mxCell id="2q1jHSVGC-Nx0SEC5J3e-13" value="" style="group;" parent="2q1jHSVGC-Nx0SEC5J3e-11" vertex="1" connectable="0">
          <mxGeometry width="45" height="40" as="geometry" />
        </mxCell>
        <mxCell id="2q1jHSVGC-Nx0SEC5J3e-14" value="" style="whiteSpace=wrap;html=1;dashed=1;dashPattern=1 1;fontFamily=Roboto Mono;fontSource=https%3A%2F%2Ffonts.googleapis.com%2Fcss%3Ffamily%3DRoboto%2BMono;strokeWidth=1;align=left;verticalAlign=middle;noLabel=1;connectable=1;allowArrows=1;snapToPoint=1;" parent="2q1jHSVGC-Nx0SEC5J3e-13" vertex="1">
          <mxGeometry width="45" height="40" as="geometry" />
        </mxCell>
        <mxCell id="2q1jHSVGC-Nx0SEC5J3e-15" value="" style="shape=image;verticalLabelPosition=bottom;verticalAlign=top;aspect=fixed;imageAspect=0;image=data:image/svg+xml,PHN2ZyB4bWxucz0iaHR0cDovL3d3dy53My5vcmcvMjAwMC9zdmciIGlkPSJQcm9kdWN0X0ljb25zIiBkYXRhLW5hbWU9IlByb2R1Y3QgSWNvbnMiIHZpZXdCb3g9IjQuNjcwMDAwMDc2MjkzOTQ1IDIgMTQuNjU5OTk5ODQ3NDEyMTEgMjAiIHdpZHRoPSIxNC42NTk5OTk4NDc0MTIxMSIgaGVpZ2h0PSIyMCI+PGRlZnM+PHN0eWxlPi5jbHMtMXtmaWxsOiNhZWNiZmE7fS5jbHMtMSwuY2xzLTIsLmNscy0ze2ZpbGwtcnVsZTpldmVub2RkO30uY2xzLTJ7ZmlsbDojNjY5ZGY2O30uY2xzLTN7ZmlsbDojNDI4NWY0O308L3N0eWxlPjwvZGVmcz48dGl0bGU+SWNvbl8yNHB4X0NvbG9yX1NRTDwvdGl0bGU+PGcgaWQ9IlNoYXBlIj48cG9seWdvbiBjbGFzcz0iY2xzLTEiIHBvaW50cz0iNC42NyAxMC40NCA0LjY3IDEzLjQ1IDEyIDE3LjM1IDEyIDE0LjM0IDQuNjcgMTAuNDQiLz48cG9seWdvbiBjbGFzcz0iY2xzLTEiIHBvaW50cz0iNC42NyAxNS4wOSA0LjY3IDE4LjEgMTIgMjIgMTIgMTguOTkgNC42NyAxNS4wOSIvPjxwb2x5Z29uIGNsYXNzPSJjbHMtMiIgcG9pbnRzPSIxMiAxNy4zNSAxOS4zMyAxMy40NSAxOS4zMyAxMC40NCAxMiAxNC4zNCAxMiAxNy4zNSIvPjxwb2x5Z29uIGNsYXNzPSJjbHMtMiIgcG9pbnRzPSIxMiAyMiAxOS4zMyAxOC4xIDE5LjMzIDE1LjA5IDEyIDE4Ljk5IDEyIDIyIi8+PHBvbHlnb24gY2xhc3M9ImNscy0zIiBwb2ludHM9IjE5LjMzIDguOTEgMTkuMzMgNS45IDEyIDIgMTIgNS4wMSAxOS4zMyA4LjkxIi8+PHBvbHlnb24gY2xhc3M9ImNscy0yIiBwb2ludHM9IjEyIDIgNC42NyA1LjkgNC42NyA4LjkxIDEyIDUuMDEgMTIgMiIvPjxwb2x5Z29uIGNsYXNzPSJjbHMtMSIgcG9pbnRzPSI0LjY3IDUuODcgNC42NyA4Ljg5IDEyIDEyLjc5IDEyIDkuNzcgNC42NyA1Ljg3Ii8+PHBvbHlnb24gY2xhc3M9ImNscy0yIiBwb2ludHM9IjEyIDEyLjc5IDE5LjMzIDguODkgMTkuMzMgNS44NyAxMiA5Ljc3IDEyIDEyLjc5Ii8+PC9nPjwvc3ZnPg==;allowArrows=0;connectable=0;" parent="2q1jHSVGC-Nx0SEC5J3e-13" vertex="1">
          <mxGeometry x="11.25" y="5" width="22.5" height="30" as="geometry" />
        </mxCell>
        <mxCell id="2q1jHSVGC-Nx0SEC5J3e-16" value="" style="group" parent="0X5DWx-J_k25tCR8zMgC-1" vertex="1" connectable="0">
          <mxGeometry x="5065.005" y="460" width="234.5557562076749" height="40" as="geometry" />
        </mxCell>
        <mxCell id="2q1jHSVGC-Nx0SEC5J3e-17" value="&lt;font color=&quot;#172b4d&quot;&gt;&lt;span style=&quot;font-size: 11px ; line-height: 1&quot;&gt;OD DATA (PROVIDER)&lt;/span&gt;&lt;/font&gt;" style="whiteSpace=wrap;html=1;fontFamily=Roboto Mono;align=left;fontSize=14;spacingLeft=8;dashed=1;dashPattern=1 1;fontSource=https%3A%2F%2Ffonts.googleapis.com%2Fcss%3Ffamily%3DRoboto%2BMono;spacing=0;spacingBottom=4;" parent="2q1jHSVGC-Nx0SEC5J3e-16" vertex="1">
          <mxGeometry x="54.555756207674904" width="180" height="40" as="geometry" />
        </mxCell>
        <mxCell id="2q1jHSVGC-Nx0SEC5J3e-18" value="" style="group" parent="2q1jHSVGC-Nx0SEC5J3e-16" vertex="1" connectable="0">
          <mxGeometry width="45" height="40" as="geometry" />
        </mxCell>
        <mxCell id="2q1jHSVGC-Nx0SEC5J3e-19" value="" style="whiteSpace=wrap;html=1;dashed=1;dashPattern=1 1;fontFamily=Roboto Mono;fontSource=https%3A%2F%2Ffonts.googleapis.com%2Fcss%3Ffamily%3DRoboto%2BMono;strokeWidth=1;align=left;verticalAlign=middle;noLabel=1;connectable=1;allowArrows=1;snapToPoint=1;" parent="2q1jHSVGC-Nx0SEC5J3e-18" vertex="1">
          <mxGeometry width="45" height="40" as="geometry" />
        </mxCell>
        <mxCell id="2q1jHSVGC-Nx0SEC5J3e-20" value="" style="shape=mxgraph.signs.nature.snowflake;html=1;pointerEvents=1;fillColor=#29B5E8;strokeColor=none;verticalLabelPosition=bottom;verticalAlign=top;align=center;aspect=fixed;connectable=0;allowArrows=0;noLabel=1;direction=south;" parent="2q1jHSVGC-Nx0SEC5J3e-18" vertex="1">
          <mxGeometry x="7.5" y="5" width="30" height="30" as="geometry" />
        </mxCell>
        <mxCell id="2q1jHSVGC-Nx0SEC5J3e-50" value="" style="group;" parent="0X5DWx-J_k25tCR8zMgC-1" vertex="1" connectable="0">
          <mxGeometry x="4635" y="643" width="240" height="40" as="geometry" />
        </mxCell>
        <mxCell id="2q1jHSVGC-Nx0SEC5J3e-51" value="&lt;font color=&quot;#172b4d&quot;&gt;&lt;span style=&quot;font-size: 11px ; line-height: 1&quot;&gt;OD&amp;nbsp;&lt;/span&gt;&lt;/font&gt;&lt;span style=&quot;color: rgb(23 , 43 , 77) ; font-size: 11px&quot;&gt;BRIEFCASE&lt;/span&gt;&lt;font color=&quot;#172b4d&quot;&gt;&lt;span style=&quot;font-size: 11px ; line-height: 1&quot;&gt;&amp;nbsp;DATA&lt;br&gt;(READ ONLY)&lt;/span&gt;&lt;/font&gt;" style="whiteSpace=wrap;html=1;fontFamily=Roboto Mono;align=left;fontSize=14;spacingLeft=8;dashed=1;dashPattern=1 1;fontSource=https%3A%2F%2Ffonts.googleapis.com%2Fcss%3Ffamily%3DRoboto%2BMono;spacing=0;spacingBottom=4;fillColor=#f5f5f5;fontColor=#333333;strokeColor=#666666;" parent="2q1jHSVGC-Nx0SEC5J3e-50" vertex="1">
          <mxGeometry x="55.873068102459584" width="184.12693189754043" height="40" as="geometry" />
        </mxCell>
        <mxCell id="2q1jHSVGC-Nx0SEC5J3e-52" value="" style="group;" parent="2q1jHSVGC-Nx0SEC5J3e-50" vertex="1" connectable="0">
          <mxGeometry width="46.03173297438511" height="40" as="geometry" />
        </mxCell>
        <mxCell id="2q1jHSVGC-Nx0SEC5J3e-53" value="" style="whiteSpace=wrap;html=1;dashed=1;dashPattern=1 1;fontFamily=Roboto Mono;fontSource=https%3A%2F%2Ffonts.googleapis.com%2Fcss%3Ffamily%3DRoboto%2BMono;strokeWidth=1;align=left;verticalAlign=middle;noLabel=1;connectable=1;allowArrows=1;snapToPoint=1;" parent="2q1jHSVGC-Nx0SEC5J3e-52" vertex="1">
          <mxGeometry width="46.03173297438511" height="40" as="geometry" />
        </mxCell>
        <mxCell id="2q1jHSVGC-Nx0SEC5J3e-54" value="" style="shape=image;verticalLabelPosition=bottom;verticalAlign=top;aspect=fixed;imageAspect=0;image=data:image/svg+xml,PHN2ZyB4bWxucz0iaHR0cDovL3d3dy53My5vcmcvMjAwMC9zdmciIGlkPSJQcm9kdWN0X0ljb25zIiBkYXRhLW5hbWU9IlByb2R1Y3QgSWNvbnMiIHZpZXdCb3g9IjQuNjcwMDAwMDc2MjkzOTQ1IDIgMTQuNjU5OTk5ODQ3NDEyMTEgMjAiIHdpZHRoPSIxNC42NTk5OTk4NDc0MTIxMSIgaGVpZ2h0PSIyMCI+PGRlZnM+PHN0eWxlPi5jbHMtMXtmaWxsOiNhZWNiZmE7fS5jbHMtMSwuY2xzLTIsLmNscy0ze2ZpbGwtcnVsZTpldmVub2RkO30uY2xzLTJ7ZmlsbDojNjY5ZGY2O30uY2xzLTN7ZmlsbDojNDI4NWY0O308L3N0eWxlPjwvZGVmcz48dGl0bGU+SWNvbl8yNHB4X0NvbG9yX1NRTDwvdGl0bGU+PGcgaWQ9IlNoYXBlIj48cG9seWdvbiBjbGFzcz0iY2xzLTEiIHBvaW50cz0iNC42NyAxMC40NCA0LjY3IDEzLjQ1IDEyIDE3LjM1IDEyIDE0LjM0IDQuNjcgMTAuNDQiLz48cG9seWdvbiBjbGFzcz0iY2xzLTEiIHBvaW50cz0iNC42NyAxNS4wOSA0LjY3IDE4LjEgMTIgMjIgMTIgMTguOTkgNC42NyAxNS4wOSIvPjxwb2x5Z29uIGNsYXNzPSJjbHMtMiIgcG9pbnRzPSIxMiAxNy4zNSAxOS4zMyAxMy40NSAxOS4zMyAxMC40NCAxMiAxNC4zNCAxMiAxNy4zNSIvPjxwb2x5Z29uIGNsYXNzPSJjbHMtMiIgcG9pbnRzPSIxMiAyMiAxOS4zMyAxOC4xIDE5LjMzIDE1LjA5IDEyIDE4Ljk5IDEyIDIyIi8+PHBvbHlnb24gY2xhc3M9ImNscy0zIiBwb2ludHM9IjE5LjMzIDguOTEgMTkuMzMgNS45IDEyIDIgMTIgNS4wMSAxOS4zMyA4LjkxIi8+PHBvbHlnb24gY2xhc3M9ImNscy0yIiBwb2ludHM9IjEyIDIgNC42NyA1LjkgNC42NyA4LjkxIDEyIDUuMDEgMTIgMiIvPjxwb2x5Z29uIGNsYXNzPSJjbHMtMSIgcG9pbnRzPSI0LjY3IDUuODcgNC42NyA4Ljg5IDEyIDEyLjc5IDEyIDkuNzcgNC42NyA1Ljg3Ii8+PHBvbHlnb24gY2xhc3M9ImNscy0yIiBwb2ludHM9IjEyIDEyLjc5IDE5LjMzIDguODkgMTkuMzMgNS44NyAxMiA5Ljc3IDEyIDEyLjc5Ii8+PC9nPjwvc3ZnPg==;allowArrows=0;connectable=0;" parent="2q1jHSVGC-Nx0SEC5J3e-52" vertex="1">
          <mxGeometry x="11.507933243596277" y="5" width="22.5" height="30" as="geometry" />
        </mxCell>
        <mxCell id="2q1jHSVGC-Nx0SEC5J3e-55" value="" style="group" parent="0X5DWx-J_k25tCR8zMgC-1" vertex="1" connectable="0">
          <mxGeometry x="4664.995" y="450" width="234.5557562076749" height="40" as="geometry" />
        </mxCell>
        <mxCell id="2q1jHSVGC-Nx0SEC5J3e-56" value="&lt;font color=&quot;#172b4d&quot;&gt;&lt;span style=&quot;font-size: 11px ; line-height: 1&quot;&gt;EA GDL (CONSUMER)&lt;/span&gt;&lt;/font&gt;" style="whiteSpace=wrap;html=1;fontFamily=Roboto Mono;align=left;fontSize=14;spacingLeft=8;dashed=1;dashPattern=1 1;fontSource=https%3A%2F%2Ffonts.googleapis.com%2Fcss%3Ffamily%3DRoboto%2BMono;spacing=0;spacingBottom=4;" parent="2q1jHSVGC-Nx0SEC5J3e-55" vertex="1">
          <mxGeometry x="54.555756207674904" width="180" height="40" as="geometry" />
        </mxCell>
        <mxCell id="2q1jHSVGC-Nx0SEC5J3e-57" value="" style="group" parent="2q1jHSVGC-Nx0SEC5J3e-55" vertex="1" connectable="0">
          <mxGeometry width="45" height="40" as="geometry" />
        </mxCell>
        <mxCell id="2q1jHSVGC-Nx0SEC5J3e-58" value="" style="whiteSpace=wrap;html=1;dashed=1;dashPattern=1 1;fontFamily=Roboto Mono;fontSource=https%3A%2F%2Ffonts.googleapis.com%2Fcss%3Ffamily%3DRoboto%2BMono;strokeWidth=1;fillColor=none;align=left;verticalAlign=middle;noLabel=1;connectable=1;allowArrows=1;snapToPoint=1;" parent="2q1jHSVGC-Nx0SEC5J3e-57" vertex="1">
          <mxGeometry width="45" height="40" as="geometry" />
        </mxCell>
        <mxCell id="2q1jHSVGC-Nx0SEC5J3e-59" value="" style="shape=mxgraph.signs.nature.snowflake;html=1;pointerEvents=1;fillColor=#29B5E8;strokeColor=none;verticalLabelPosition=bottom;verticalAlign=top;align=center;aspect=fixed;connectable=0;allowArrows=0;noLabel=1;" parent="2q1jHSVGC-Nx0SEC5J3e-57" vertex="1">
          <mxGeometry x="7.5" y="5" width="30" height="30" as="geometry" />
        </mxCell>
        <mxCell id="2q1jHSVGC-Nx0SEC5J3e-60" style="edgeStyle=orthogonalEdgeStyle;rounded=0;orthogonalLoop=1;jettySize=auto;html=1;exitX=1;exitY=0.5;exitDx=0;exitDy=0;entryX=0;entryY=0.5;entryDx=0;entryDy=0;startArrow=classic;startFill=0;strokeColor=none;endArrow=none;endFill=0;" parent="0X5DWx-J_k25tCR8zMgC-1" source="2q1jHSVGC-Nx0SEC5J3e-51" target="2q1jHSVGC-Nx0SEC5J3e-85" edge="1">
          <mxGeometry relative="1" as="geometry" />
        </mxCell>
        <mxCell id="2q1jHSVGC-Nx0SEC5J3e-61" style="edgeStyle=orthogonalEdgeStyle;rounded=0;orthogonalLoop=1;jettySize=auto;html=1;exitX=0;exitY=0.25;exitDx=0;exitDy=0;startArrow=none;startFill=0;endArrow=classic;endFill=1;entryX=1;entryY=0.5;entryDx=0;entryDy=0;" parent="0X5DWx-J_k25tCR8zMgC-1" source="2q1jHSVGC-Nx0SEC5J3e-85" target="2q1jHSVGC-Nx0SEC5J3e-88" edge="1">
          <mxGeometry relative="1" as="geometry" />
        </mxCell>
        <mxCell id="2q1jHSVGC-Nx0SEC5J3e-62" value="" style="group;" parent="0X5DWx-J_k25tCR8zMgC-1" vertex="1" connectable="0">
          <mxGeometry x="4230" y="550" width="234.62075620767496" height="40" as="geometry" />
        </mxCell>
        <mxCell id="2q1jHSVGC-Nx0SEC5J3e-63" value="&lt;font color=&quot;#172b4d&quot;&gt;&lt;span style=&quot;font-size: 11px ; line-height: 1&quot;&gt;OD BRIEFCASE DATA RAW&lt;/span&gt;&lt;/font&gt;" style="whiteSpace=wrap;html=1;fontFamily=Roboto Mono;align=left;fontSize=14;spacingLeft=8;dashed=1;dashPattern=1 1;fontSource=https%3A%2F%2Ffonts.googleapis.com%2Fcss%3Ffamily%3DRoboto%2BMono;spacing=0;spacingBottom=4;" parent="2q1jHSVGC-Nx0SEC5J3e-62" vertex="1">
          <mxGeometry x="54.62075620767496" width="180" height="40" as="geometry" />
        </mxCell>
        <mxCell id="2q1jHSVGC-Nx0SEC5J3e-64" value="" style="group;" parent="2q1jHSVGC-Nx0SEC5J3e-62" vertex="1" connectable="0">
          <mxGeometry width="45" height="40" as="geometry" />
        </mxCell>
        <mxCell id="2q1jHSVGC-Nx0SEC5J3e-65" value="" style="whiteSpace=wrap;html=1;dashed=1;dashPattern=1 1;fontFamily=Roboto Mono;fontSource=https%3A%2F%2Ffonts.googleapis.com%2Fcss%3Ffamily%3DRoboto%2BMono;strokeWidth=1;align=left;verticalAlign=middle;noLabel=1;connectable=1;allowArrows=1;snapToPoint=1;strokeColor=default;" parent="2q1jHSVGC-Nx0SEC5J3e-64" vertex="1">
          <mxGeometry width="45" height="40" as="geometry" />
        </mxCell>
        <mxCell id="2q1jHSVGC-Nx0SEC5J3e-66" value="" style="shape=image;verticalLabelPosition=bottom;verticalAlign=top;aspect=fixed;imageAspect=0;image=data:image/svg+xml,PHN2ZyB4bWxucz0iaHR0cDovL3d3dy53My5vcmcvMjAwMC9zdmciIGlkPSJQcm9kdWN0X0ljb25zIiBkYXRhLW5hbWU9IlByb2R1Y3QgSWNvbnMiIHZpZXdCb3g9IjQuNjcwMDAwMDc2MjkzOTQ1IDIgMTQuNjU5OTk5ODQ3NDEyMTEgMjAiIHdpZHRoPSIxNC42NTk5OTk4NDc0MTIxMSIgaGVpZ2h0PSIyMCI+PGRlZnM+PHN0eWxlPi5jbHMtMXtmaWxsOiNhZWNiZmE7fS5jbHMtMSwuY2xzLTIsLmNscy0ze2ZpbGwtcnVsZTpldmVub2RkO30uY2xzLTJ7ZmlsbDojNjY5ZGY2O30uY2xzLTN7ZmlsbDojNDI4NWY0O308L3N0eWxlPjwvZGVmcz48dGl0bGU+SWNvbl8yNHB4X0NvbG9yX1NRTDwvdGl0bGU+PGcgaWQ9IlNoYXBlIj48cG9seWdvbiBjbGFzcz0iY2xzLTEiIHBvaW50cz0iNC42NyAxMC40NCA0LjY3IDEzLjQ1IDEyIDE3LjM1IDEyIDE0LjM0IDQuNjcgMTAuNDQiLz48cG9seWdvbiBjbGFzcz0iY2xzLTEiIHBvaW50cz0iNC42NyAxNS4wOSA0LjY3IDE4LjEgMTIgMjIgMTIgMTguOTkgNC42NyAxNS4wOSIvPjxwb2x5Z29uIGNsYXNzPSJjbHMtMiIgcG9pbnRzPSIxMiAxNy4zNSAxOS4zMyAxMy40NSAxOS4zMyAxMC40NCAxMiAxNC4zNCAxMiAxNy4zNSIvPjxwb2x5Z29uIGNsYXNzPSJjbHMtMiIgcG9pbnRzPSIxMiAyMiAxOS4zMyAxOC4xIDE5LjMzIDE1LjA5IDEyIDE4Ljk5IDEyIDIyIi8+PHBvbHlnb24gY2xhc3M9ImNscy0zIiBwb2ludHM9IjE5LjMzIDguOTEgMTkuMzMgNS45IDEyIDIgMTIgNS4wMSAxOS4zMyA4LjkxIi8+PHBvbHlnb24gY2xhc3M9ImNscy0yIiBwb2ludHM9IjEyIDIgNC42NyA1LjkgNC42NyA4LjkxIDEyIDUuMDEgMTIgMiIvPjxwb2x5Z29uIGNsYXNzPSJjbHMtMSIgcG9pbnRzPSI0LjY3IDUuODcgNC42NyA4Ljg5IDEyIDEyLjc5IDEyIDkuNzcgNC42NyA1Ljg3Ii8+PHBvbHlnb24gY2xhc3M9ImNscy0yIiBwb2ludHM9IjEyIDEyLjc5IDE5LjMzIDguODkgMTkuMzMgNS44NyAxMiA5Ljc3IDEyIDEyLjc5Ii8+PC9nPjwvc3ZnPg==;allowArrows=0;connectable=0;" parent="2q1jHSVGC-Nx0SEC5J3e-64" vertex="1">
          <mxGeometry x="11.25" y="5" width="22.5" height="30" as="geometry" />
        </mxCell>
        <mxCell id="2q1jHSVGC-Nx0SEC5J3e-82" value="" style="group;" parent="0X5DWx-J_k25tCR8zMgC-1" vertex="1" connectable="0">
          <mxGeometry x="5065" y="600" width="234.62075620767496" height="40" as="geometry" />
        </mxCell>
        <mxCell id="2q1jHSVGC-Nx0SEC5J3e-83" value="&lt;font color=&quot;#172b4d&quot;&gt;&lt;span style=&quot;font-size: 11px ; line-height: 1&quot;&gt;OD BRIEFCASE VIEW&amp;nbsp;&amp;nbsp;&lt;/span&gt;&lt;/font&gt;" style="whiteSpace=wrap;html=1;fontFamily=Roboto Mono;align=left;fontSize=14;spacingLeft=8;dashed=1;dashPattern=1 1;fontSource=https%3A%2F%2Ffonts.googleapis.com%2Fcss%3Ffamily%3DRoboto%2BMono;spacing=0;spacingBottom=4;" parent="2q1jHSVGC-Nx0SEC5J3e-82" vertex="1">
          <mxGeometry x="54.62075620767496" width="180" height="40" as="geometry" />
        </mxCell>
        <mxCell id="2q1jHSVGC-Nx0SEC5J3e-84" value="" style="group;" parent="2q1jHSVGC-Nx0SEC5J3e-82" vertex="1" connectable="0">
          <mxGeometry width="45" height="40" as="geometry" />
        </mxCell>
        <mxCell id="2q1jHSVGC-Nx0SEC5J3e-85" value="" style="whiteSpace=wrap;html=1;dashed=1;dashPattern=1 1;fontFamily=Roboto Mono;fontSource=https%3A%2F%2Ffonts.googleapis.com%2Fcss%3Ffamily%3DRoboto%2BMono;strokeWidth=1;align=left;verticalAlign=middle;noLabel=1;connectable=1;allowArrows=1;snapToPoint=1;" parent="2q1jHSVGC-Nx0SEC5J3e-84" vertex="1">
          <mxGeometry width="45" height="40" as="geometry" />
        </mxCell>
        <mxCell id="2q1jHSVGC-Nx0SEC5J3e-81" value="" style="shape=parallelogram;html=1;strokeWidth=2;perimeter=parallelogramPerimeter;whiteSpace=wrap;rounded=1;arcSize=12;size=0.23;fillColor=#dae8fc;strokeColor=#6c8ebf;aspect=fixed;" parent="2q1jHSVGC-Nx0SEC5J3e-84" vertex="1">
          <mxGeometry x="11.259999999999764" y="8.77000000000001" width="25" height="16.88" as="geometry" />
        </mxCell>
        <mxCell id="2q1jHSVGC-Nx0SEC5J3e-92" value="" style="group;" parent="0X5DWx-J_k25tCR8zMgC-1" vertex="1" connectable="0">
          <mxGeometry x="5065" y="660" width="234.62075620767496" height="40" as="geometry" />
        </mxCell>
        <mxCell id="2q1jHSVGC-Nx0SEC5J3e-93" value="&lt;font color=&quot;#172b4d&quot;&gt;&lt;span style=&quot;font-size: 11px ; line-height: 1&quot;&gt;OD BRIEFCASE VIEW&amp;nbsp;&amp;nbsp;&lt;/span&gt;&lt;/font&gt;" style="whiteSpace=wrap;html=1;fontFamily=Roboto Mono;align=left;fontSize=14;spacingLeft=8;dashed=1;dashPattern=1 1;fontSource=https%3A%2F%2Ffonts.googleapis.com%2Fcss%3Ffamily%3DRoboto%2BMono;spacing=0;spacingBottom=4;" parent="2q1jHSVGC-Nx0SEC5J3e-92" vertex="1">
          <mxGeometry x="54.62075620767496" width="180" height="40" as="geometry" />
        </mxCell>
        <mxCell id="2q1jHSVGC-Nx0SEC5J3e-94" value="" style="group;" parent="2q1jHSVGC-Nx0SEC5J3e-92" vertex="1" connectable="0">
          <mxGeometry width="45" height="40" as="geometry" />
        </mxCell>
        <mxCell id="2q1jHSVGC-Nx0SEC5J3e-95" value="" style="whiteSpace=wrap;html=1;dashed=1;dashPattern=1 1;fontFamily=Roboto Mono;fontSource=https%3A%2F%2Ffonts.googleapis.com%2Fcss%3Ffamily%3DRoboto%2BMono;strokeWidth=1;align=left;verticalAlign=middle;noLabel=1;connectable=1;allowArrows=1;snapToPoint=1;" parent="2q1jHSVGC-Nx0SEC5J3e-94" vertex="1">
          <mxGeometry width="45" height="40" as="geometry" />
        </mxCell>
        <mxCell id="2q1jHSVGC-Nx0SEC5J3e-96" value="" style="shape=parallelogram;html=1;strokeWidth=2;perimeter=parallelogramPerimeter;whiteSpace=wrap;rounded=1;arcSize=12;size=0.23;fillColor=#dae8fc;strokeColor=#6c8ebf;aspect=fixed;" parent="2q1jHSVGC-Nx0SEC5J3e-94" vertex="1">
          <mxGeometry x="11.259999999999764" y="8.77000000000001" width="25" height="16.88" as="geometry" />
        </mxCell>
        <mxCell id="2q1jHSVGC-Nx0SEC5J3e-97" style="edgeStyle=orthogonalEdgeStyle;rounded=0;orthogonalLoop=1;jettySize=auto;html=1;exitX=0.25;exitY=1;exitDx=0;exitDy=0;startArrow=none;startFill=0;endArrow=classic;endFill=1;" parent="0X5DWx-J_k25tCR8zMgC-1" source="2q1jHSVGC-Nx0SEC5J3e-88" target="2q1jHSVGC-Nx0SEC5J3e-51" edge="1">
          <mxGeometry relative="1" as="geometry" />
        </mxCell>
        <mxCell id="iTqYewabS4GiflsHvlJ8-1" value="" style="group" parent="0X5DWx-J_k25tCR8zMgC-1" vertex="1" connectable="0">
          <mxGeometry x="4194.995" y="450" width="234.5557562076749" height="40" as="geometry" />
        </mxCell>
        <mxCell id="iTqYewabS4GiflsHvlJ8-2" value="&lt;font color=&quot;#172b4d&quot;&gt;&lt;span style=&quot;font-size: 11px ; line-height: 1&quot;&gt;EA GDL&lt;/span&gt;&lt;/font&gt;" style="whiteSpace=wrap;html=1;fontFamily=Roboto Mono;align=left;fontSize=14;spacingLeft=8;dashed=1;dashPattern=1 1;fontSource=https%3A%2F%2Ffonts.googleapis.com%2Fcss%3Ffamily%3DRoboto%2BMono;spacing=0;spacingBottom=4;" parent="iTqYewabS4GiflsHvlJ8-1" vertex="1">
          <mxGeometry x="54.555756207674904" width="180" height="40" as="geometry" />
        </mxCell>
        <mxCell id="iTqYewabS4GiflsHvlJ8-3" value="" style="group" parent="iTqYewabS4GiflsHvlJ8-1" vertex="1" connectable="0">
          <mxGeometry width="45" height="40" as="geometry" />
        </mxCell>
        <mxCell id="iTqYewabS4GiflsHvlJ8-4" value="" style="whiteSpace=wrap;html=1;dashed=1;dashPattern=1 1;fontFamily=Roboto Mono;fontSource=https%3A%2F%2Ffonts.googleapis.com%2Fcss%3Ffamily%3DRoboto%2BMono;strokeWidth=1;fillColor=none;align=left;verticalAlign=middle;noLabel=1;connectable=1;allowArrows=1;snapToPoint=1;" parent="iTqYewabS4GiflsHvlJ8-3" vertex="1">
          <mxGeometry width="45" height="40" as="geometry" />
        </mxCell>
        <mxCell id="iTqYewabS4GiflsHvlJ8-5" value="" style="shape=mxgraph.signs.nature.snowflake;html=1;pointerEvents=1;fillColor=#29B5E8;strokeColor=none;verticalLabelPosition=bottom;verticalAlign=top;align=center;aspect=fixed;connectable=0;allowArrows=0;noLabel=1;" parent="iTqYewabS4GiflsHvlJ8-3" vertex="1">
          <mxGeometry x="7.5" y="5" width="30" height="30" as="geometry" />
        </mxCell>
        <mxCell id="iTqYewabS4GiflsHvlJ8-6" style="edgeStyle=orthogonalEdgeStyle;rounded=0;orthogonalLoop=1;jettySize=auto;html=1;exitX=0;exitY=0.5;exitDx=0;exitDy=0;startArrow=none;startFill=0;endArrow=classic;endFill=1;entryX=1;entryY=0.5;entryDx=0;entryDy=0;" parent="0X5DWx-J_k25tCR8zMgC-1" source="2q1jHSVGC-Nx0SEC5J3e-53" target="2q1jHSVGC-Nx0SEC5J3e-63" edge="1">
          <mxGeometry relative="1" as="geometry" />
        </mxCell>
        <mxCell id="iTqYewabS4GiflsHvlJ8-8" value="We can query but not clone. So we need &quot;export&quot; or &quot;copy&quot; the data everyday to one of our databases" style="verticalLabelPosition=middle;verticalAlign=middle;shape=mxgraph.basic.rect;fillColor2=none;strokeWidth=1;size=20;indent=5;rounded=1;opacity=70;labelPosition=center;align=left;whiteSpace=wrap;fontFamily=Roboto;fontSource=https%3A%2F%2Ffonts.googleapis.com%2Fcss%3Ffamily%3DRoboto;spacingLeft=5;spacingRight=3;" parent="0X5DWx-J_k25tCR8zMgC-1" vertex="1">
          <mxGeometry x="4625" y="750" width="250" height="60" as="geometry" />
        </mxCell>
        <mxCell id="iTqYewabS4GiflsHvlJ8-9" value="OD sets up a read only shared data base in our account&#xa;Update the view everyday " style="verticalLabelPosition=middle;verticalAlign=middle;shape=mxgraph.basic.rect;fillColor2=none;strokeWidth=1;size=20;indent=5;rounded=1;opacity=70;labelPosition=center;align=left;whiteSpace=wrap;fontFamily=Roboto;fontSource=https%3A%2F%2Ffonts.googleapis.com%2Fcss%3Ffamily%3DRoboto;spacingLeft=5;spacingRight=3;" parent="0X5DWx-J_k25tCR8zMgC-1" vertex="1">
          <mxGeometry x="4995" y="746" width="250" height="60" as="geometry" />
        </mxCell>
        <mxCell id="iTqYewabS4GiflsHvlJ8-40" value="" style="group" parent="0X5DWx-J_k25tCR8zMgC-1" vertex="1" connectable="0">
          <mxGeometry x="4230" y="633" width="237.12075620767519" height="40" as="geometry" />
        </mxCell>
        <mxCell id="iTqYewabS4GiflsHvlJ8-14" value="" style="group;rounded=0;fontFamily=Roboto;fontSource=https%3A%2F%2Ffonts.googleapis.com%2Fcss%3Ffamily%3DRoboto;opacity=70;html=0;container=0;dashed=1;dashPattern=1 1;fillColor=default;gradientColor=none;strokeColor=default;" parent="iTqYewabS4GiflsHvlJ8-40" vertex="1" connectable="0">
          <mxGeometry width="45" height="40" as="geometry" />
        </mxCell>
        <mxCell id="iTqYewabS4GiflsHvlJ8-13" value="&lt;font color=&quot;#172b4d&quot;&gt;&lt;span style=&quot;font-size: 11px ; line-height: 1&quot;&gt;OD BRIEFCASE DAILY&lt;br&gt;&lt;/span&gt;&lt;/font&gt;" style="whiteSpace=wrap;html=1;fontFamily=Roboto Mono;align=left;fontSize=14;spacingLeft=8;dashed=1;dashPattern=1 1;fontSource=https%3A%2F%2Ffonts.googleapis.com%2Fcss%3Ffamily%3DRoboto%2BMono;spacing=0;spacingBottom=4;rounded=0;fillColor=#FFFFFF;" parent="iTqYewabS4GiflsHvlJ8-40" vertex="1">
          <mxGeometry x="57.120756207675186" width="180" height="40" as="geometry" />
        </mxCell>
        <mxCell id="iTqYewabS4GiflsHvlJ8-15" value="" style="whiteSpace=wrap;html=1;dashed=1;dashPattern=1 1;fontFamily=Roboto Mono;fontSource=https%3A%2F%2Ffonts.googleapis.com%2Fcss%3Ffamily%3DRoboto%2BMono;strokeWidth=1;fillColor=none;align=left;verticalAlign=middle;noLabel=1;connectable=1;allowArrows=1;snapToPoint=1;rounded=0;strokeColor=none;" parent="iTqYewabS4GiflsHvlJ8-40" vertex="1">
          <mxGeometry width="45" height="40" as="geometry" />
        </mxCell>
        <mxCell id="iTqYewabS4GiflsHvlJ8-39" value="" style="group" parent="iTqYewabS4GiflsHvlJ8-40" vertex="1" connectable="0">
          <mxGeometry x="7.5" y="4.27000000000001" width="30" height="32.12999999999997" as="geometry" />
        </mxCell>
        <mxCell id="iTqYewabS4GiflsHvlJ8-17" value="&lt;pre&gt;&lt;br&gt;&lt;/pre&gt;" style="dashed=0;connectable=1;html=1;strokeColor=none;shape=mxgraph.gcp2.report;part=1;labelPosition=center;verticalLabelPosition=top;align=center;verticalAlign=middle;fontFamily=Roboto Mono;fontSource=https://fonts.googleapis.com/css?family=Roboto+Mono;spacingTop=6;fillColor=#7EA6E0;editable=1;dashPattern=1 1;rounded=0;movable=1;resizable=1;rotatable=1;deletable=1;" parent="iTqYewabS4GiflsHvlJ8-39" vertex="1">
          <mxGeometry y="8.129999999999967" width="30" height="24" as="geometry" />
        </mxCell>
        <mxCell id="iTqYewabS4GiflsHvlJ8-18" value="&lt;b style=&quot;font-size: 8px&quot;&gt;&lt;font color=&quot;#ffffff&quot; style=&quot;font-size: 8px&quot;&gt;SnowQL&lt;/font&gt;&lt;/b&gt;" style="rounded=0;whiteSpace=wrap;html=1;fontFamily=Roboto Mono;fontSource=https://fonts.googleapis.com/css?family=Roboto+Mono;fontSize=8;fontColor=#4D4D4D;strokeWidth=1;verticalAlign=middle;strokeColor=none;fillColor=#7EA6E0;connectable=1;allowArrows=0;editable=1;dashed=1;dashPattern=1 1;movable=1;resizable=1;rotatable=1;deletable=1;" parent="iTqYewabS4GiflsHvlJ8-39" vertex="1">
          <mxGeometry width="30" height="11" as="geometry" />
        </mxCell>
        <mxCell id="iTqYewabS4GiflsHvlJ8-48" value="" style="group" parent="0X5DWx-J_k25tCR8zMgC-1" vertex="1" connectable="0">
          <mxGeometry x="3922.88" y="600" width="237.12075620767519" height="40" as="geometry" />
        </mxCell>
        <mxCell id="iTqYewabS4GiflsHvlJ8-49" value="" style="group;rounded=0;fontFamily=Roboto;fontSource=https://fonts.googleapis.com/css?family=Roboto;opacity=70;html=0;container=0;dashed=1;dashPattern=1 1;fillColor=default;gradientColor=none;strokeColor=default;" parent="iTqYewabS4GiflsHvlJ8-48" vertex="1" connectable="0">
          <mxGeometry width="45" height="40" as="geometry" />
        </mxCell>
        <mxCell id="iTqYewabS4GiflsHvlJ8-50" value="&lt;font color=&quot;#172b4d&quot;&gt;&lt;span style=&quot;font-size: 11px ; line-height: 1&quot;&gt;OD ACCOUNTS&lt;br&gt;&lt;/span&gt;&lt;/font&gt;" style="whiteSpace=wrap;html=1;fontFamily=Roboto Mono;align=left;fontSize=14;spacingLeft=8;dashed=1;dashPattern=1 1;fontSource=https://fonts.googleapis.com/css?family=Roboto+Mono;spacing=0;spacingBottom=4;rounded=0;fillColor=#FFFFFF;" parent="iTqYewabS4GiflsHvlJ8-48" vertex="1">
          <mxGeometry x="57.120756207675186" width="180" height="40" as="geometry" />
        </mxCell>
        <mxCell id="iTqYewabS4GiflsHvlJ8-51" value="" style="whiteSpace=wrap;html=1;dashed=1;dashPattern=1 1;fontFamily=Roboto Mono;fontSource=https://fonts.googleapis.com/css?family=Roboto+Mono;strokeWidth=1;fillColor=none;align=left;verticalAlign=middle;noLabel=1;connectable=1;allowArrows=1;snapToPoint=1;rounded=0;strokeColor=none;" parent="iTqYewabS4GiflsHvlJ8-48" vertex="1">
          <mxGeometry width="45" height="40" as="geometry" />
        </mxCell>
        <mxCell id="iTqYewabS4GiflsHvlJ8-52" value="" style="group" parent="iTqYewabS4GiflsHvlJ8-48" vertex="1" connectable="0">
          <mxGeometry x="7.5" y="4.27000000000001" width="30" height="32.12999999999997" as="geometry" />
        </mxCell>
        <mxCell id="iTqYewabS4GiflsHvlJ8-53" value="&lt;pre&gt;&lt;br&gt;&lt;/pre&gt;" style="dashed=0;connectable=1;html=1;strokeColor=none;shape=mxgraph.gcp2.report;part=1;labelPosition=center;verticalLabelPosition=top;align=center;verticalAlign=middle;fontFamily=Roboto Mono;fontSource=https://fonts.googleapis.com/css?family=Roboto+Mono;spacingTop=6;fillColor=#7EA6E0;editable=1;dashPattern=1 1;rounded=0;movable=1;resizable=1;rotatable=1;deletable=1;" parent="iTqYewabS4GiflsHvlJ8-52" vertex="1">
          <mxGeometry y="8.129999999999967" width="30" height="24" as="geometry" />
        </mxCell>
        <mxCell id="iTqYewabS4GiflsHvlJ8-54" value="&lt;b style=&quot;font-size: 8px&quot;&gt;&lt;font color=&quot;#ffffff&quot; style=&quot;font-size: 8px&quot;&gt;SnowQL&lt;/font&gt;&lt;/b&gt;" style="rounded=0;whiteSpace=wrap;html=1;fontFamily=Roboto Mono;fontSource=https://fonts.googleapis.com/css?family=Roboto+Mono;fontSize=8;fontColor=#4D4D4D;strokeWidth=1;verticalAlign=middle;strokeColor=none;fillColor=#7EA6E0;connectable=1;allowArrows=0;editable=1;dashed=1;dashPattern=1 1;movable=1;resizable=1;rotatable=1;deletable=1;" parent="iTqYewabS4GiflsHvlJ8-52" vertex="1">
          <mxGeometry width="30" height="11" as="geometry" />
        </mxCell>
        <mxCell id="pmFojNcw346sXbMazvYO-0" value="WITH tmpTable AS {&lt;br&gt;&amp;nbsp;...&lt;br&gt;&amp;nbsp;&lt;font color=&quot;#ff0b03&quot;&gt;CONNECTED_ACCOUNT&lt;/font&gt;&lt;br&gt;&amp;nbsp;LEFT JOIN &lt;br&gt;&lt;font color=&quot;#ff0b03&quot;&gt;&amp;nbsp;OD_DAILY_ACCOUNT_ACTIVITY&lt;/font&gt;&lt;br&gt;&amp;nbsp;ON VENDOR_ACCOUNT_ID&lt;br&gt;})&lt;br&gt;&lt;br&gt;tmpTable &lt;br&gt;LEFT JOIN &lt;br&gt;&lt;font color=&quot;#ff0b03&quot;&gt;SPECIAL_PRODUCT&lt;/font&gt;&lt;br&gt;ON VENDOR_PRODUCT_ID" style="rounded=0;whiteSpace=wrap;html=1;align=left;fontFamily=Roboto Mono;fontSource=https%3A%2F%2Ffonts.googleapis.com%2Fcss%3Ffamily%3DRoboto%2BMono;verticalAlign=top;" parent="0X5DWx-J_k25tCR8zMgC-1" vertex="1">
          <mxGeometry x="3940" y="917.25" width="240" height="181.5" as="geometry" />
        </mxCell>
        <mxCell id="Qn1kcclNdGQqGJFEb3BC-38" style="edgeStyle=orthogonalEdgeStyle;rounded=0;orthogonalLoop=1;jettySize=auto;html=1;entryX=0.5;entryY=1;entryDx=0;entryDy=0;fontFamily=Roboto;fontSource=https%3A%2F%2Ffonts.googleapis.com%2Fcss%3Ffamily%3DRoboto;fontSize=14;fontColor=#FFFFFF;startArrow=none;startFill=0;endArrow=classic;endFill=1;elbow=vertical;" parent="0X5DWx-J_k25tCR8zMgC-1" source="Qn1kcclNdGQqGJFEb3BC-3" target="Qn1kcclNdGQqGJFEb3BC-36" edge="1">
          <mxGeometry relative="1" as="geometry" />
        </mxCell>
        <mxCell id="Qn1kcclNdGQqGJFEb3BC-2" value="" style="group;connectable=1;" parent="0X5DWx-J_k25tCR8zMgC-1" vertex="1" connectable="0">
          <mxGeometry x="2820" y="982.38" width="232.12075620767496" height="40" as="geometry" />
        </mxCell>
        <mxCell id="Qn1kcclNdGQqGJFEb3BC-3" value="&lt;font color=&quot;#172b4d&quot;&gt;&lt;span style=&quot;font-size: 11px ; line-height: 1&quot;&gt;CONNECTED_ACCOUNTS&lt;br&gt;&lt;/span&gt;&lt;/font&gt;" style="whiteSpace=wrap;html=1;fontFamily=Roboto Mono;align=left;fontSize=14;spacingLeft=8;dashed=1;dashPattern=1 1;fontSource=https%3A%2F%2Ffonts.googleapis.com%2Fcss%3Ffamily%3DRoboto%2BMono;spacing=0;spacingBottom=4;" parent="Qn1kcclNdGQqGJFEb3BC-2" vertex="1">
          <mxGeometry x="52.12075620767496" width="180" height="40" as="geometry" />
        </mxCell>
        <mxCell id="Qn1kcclNdGQqGJFEb3BC-4" value="" style="group" parent="Qn1kcclNdGQqGJFEb3BC-2" vertex="1" connectable="0">
          <mxGeometry width="45" height="40" as="geometry" />
        </mxCell>
        <mxCell id="Qn1kcclNdGQqGJFEb3BC-5" value="" style="group;allowArrows=0;dropTarget=0;expand=0;rotatable=0;" parent="Qn1kcclNdGQqGJFEb3BC-4" vertex="1" connectable="0">
          <mxGeometry x="7.5" y="3.6000000000000227" width="30" height="32.799999999999955" as="geometry" />
        </mxCell>
        <mxCell id="Qn1kcclNdGQqGJFEb3BC-6" value="&lt;pre&gt;&lt;br&gt;&lt;/pre&gt;" style="dashed=0;connectable=0;html=1;strokeColor=none;shape=mxgraph.gcp2.report;part=1;labelPosition=center;verticalLabelPosition=top;align=center;verticalAlign=middle;fontFamily=Roboto Mono;fontSource=https://fonts.googleapis.com/css?family=Roboto+Mono;spacingTop=6;fillColor=#4D4D4D;allowArrows=0;dashPattern=1 1;" parent="Qn1kcclNdGQqGJFEb3BC-5" vertex="1">
          <mxGeometry y="8.799999999999955" width="30" height="24" as="geometry" />
        </mxCell>
        <mxCell id="Qn1kcclNdGQqGJFEb3BC-7" value="&lt;b style=&quot;font-size: 8px&quot;&gt;&lt;font color=&quot;#ffffff&quot; style=&quot;font-size: 8px&quot;&gt;SQL&lt;/font&gt;&lt;/b&gt;" style="rounded=0;whiteSpace=wrap;html=1;fontFamily=Roboto Mono;fontSource=https://fonts.googleapis.com/css?family=Roboto+Mono;fontSize=8;fontColor=#4D4D4D;strokeWidth=1;verticalAlign=middle;strokeColor=none;fillColor=#4D4D4D;connectable=0;allowArrows=0;dashed=1;dashPattern=1 1;" parent="Qn1kcclNdGQqGJFEb3BC-5" vertex="1">
          <mxGeometry width="30" height="10.6" as="geometry" />
        </mxCell>
        <mxCell id="Qn1kcclNdGQqGJFEb3BC-8" value="" style="whiteSpace=wrap;html=1;dashed=1;dashPattern=1 1;fontFamily=Roboto Mono;fontSource=https%3A%2F%2Ffonts.googleapis.com%2Fcss%3Ffamily%3DRoboto%2BMono;strokeWidth=1;fillColor=none;align=left;verticalAlign=middle;noLabel=1;connectable=0;allowArrows=0;snapToPoint=0;" parent="Qn1kcclNdGQqGJFEb3BC-4" vertex="1">
          <mxGeometry width="45" height="40" as="geometry" />
        </mxCell>
        <mxCell id="d2YbWiwlK6z3USRgEM1a-183" style="edgeStyle=orthogonalEdgeStyle;rounded=0;orthogonalLoop=1;jettySize=auto;html=1;exitX=0.75;exitY=0;exitDx=0;exitDy=0;entryX=1;entryY=0.75;entryDx=0;entryDy=0;startArrow=ERoneToMany;startFill=0;endArrow=classic;endFill=0;strokeColor=default;" edge="1" parent="0X5DWx-J_k25tCR8zMgC-1" source="Qn1kcclNdGQqGJFEb3BC-9" target="Qn1kcclNdGQqGJFEb3BC-25">
          <mxGeometry relative="1" as="geometry" />
        </mxCell>
        <mxCell id="Qn1kcclNdGQqGJFEb3BC-9" value="" style="group;connectable=1;" parent="0X5DWx-J_k25tCR8zMgC-1" vertex="1" connectable="0">
          <mxGeometry x="4210" y="785" width="232.12075620767496" height="40" as="geometry" />
        </mxCell>
        <mxCell id="Qn1kcclNdGQqGJFEb3BC-10" value="&lt;font color=&quot;#172b4d&quot;&gt;&lt;span style=&quot;font-size: 11px ; line-height: 1&quot;&gt;SPECIAL_PRODUCTS&lt;br&gt;&lt;/span&gt;&lt;/font&gt;" style="whiteSpace=wrap;html=1;fontFamily=Roboto Mono;align=left;fontSize=14;spacingLeft=8;dashed=1;dashPattern=1 1;fontSource=https%3A%2F%2Ffonts.googleapis.com%2Fcss%3Ffamily%3DRoboto%2BMono;spacing=0;spacingBottom=4;" parent="Qn1kcclNdGQqGJFEb3BC-9" vertex="1">
          <mxGeometry x="52.12075620767496" width="180" height="40" as="geometry" />
        </mxCell>
        <mxCell id="Qn1kcclNdGQqGJFEb3BC-11" value="" style="group" parent="Qn1kcclNdGQqGJFEb3BC-9" vertex="1" connectable="0">
          <mxGeometry width="45" height="40" as="geometry" />
        </mxCell>
        <mxCell id="Qn1kcclNdGQqGJFEb3BC-12" value="" style="group;allowArrows=0;dropTarget=0;expand=0;rotatable=0;" parent="Qn1kcclNdGQqGJFEb3BC-11" vertex="1" connectable="0">
          <mxGeometry x="7.5" y="3.6000000000000227" width="30" height="32.799999999999955" as="geometry" />
        </mxCell>
        <mxCell id="Qn1kcclNdGQqGJFEb3BC-13" value="&lt;pre&gt;&lt;br&gt;&lt;/pre&gt;" style="dashed=0;connectable=0;html=1;strokeColor=none;shape=mxgraph.gcp2.report;part=1;labelPosition=center;verticalLabelPosition=top;align=center;verticalAlign=middle;fontFamily=Roboto Mono;fontSource=https://fonts.googleapis.com/css?family=Roboto+Mono;spacingTop=6;fillColor=#4D4D4D;allowArrows=0;dashPattern=1 1;" parent="Qn1kcclNdGQqGJFEb3BC-12" vertex="1">
          <mxGeometry y="8.799999999999955" width="30" height="24" as="geometry" />
        </mxCell>
        <mxCell id="Qn1kcclNdGQqGJFEb3BC-14" value="&lt;b style=&quot;font-size: 8px&quot;&gt;&lt;font color=&quot;#ffffff&quot; style=&quot;font-size: 8px&quot;&gt;SQL&lt;/font&gt;&lt;/b&gt;" style="rounded=0;whiteSpace=wrap;html=1;fontFamily=Roboto Mono;fontSource=https://fonts.googleapis.com/css?family=Roboto+Mono;fontSize=8;fontColor=#4D4D4D;strokeWidth=1;verticalAlign=middle;strokeColor=none;fillColor=#4D4D4D;connectable=0;allowArrows=0;dashed=1;dashPattern=1 1;" parent="Qn1kcclNdGQqGJFEb3BC-12" vertex="1">
          <mxGeometry width="30" height="10.6" as="geometry" />
        </mxCell>
        <mxCell id="Qn1kcclNdGQqGJFEb3BC-15" value="" style="whiteSpace=wrap;html=1;dashed=1;dashPattern=1 1;fontFamily=Roboto Mono;fontSource=https%3A%2F%2Ffonts.googleapis.com%2Fcss%3Ffamily%3DRoboto%2BMono;strokeWidth=1;fillColor=none;align=left;verticalAlign=middle;noLabel=1;connectable=0;allowArrows=0;snapToPoint=0;" parent="Qn1kcclNdGQqGJFEb3BC-11" vertex="1">
          <mxGeometry width="45" height="40" as="geometry" />
        </mxCell>
        <mxCell id="Qn1kcclNdGQqGJFEb3BC-16" value="" style="group;connectable=1;" parent="0X5DWx-J_k25tCR8zMgC-1" vertex="1" connectable="0">
          <mxGeometry x="3420" y="731.12" width="232.12075620767496" height="40" as="geometry" />
        </mxCell>
        <mxCell id="Qn1kcclNdGQqGJFEb3BC-17" value="&lt;font color=&quot;#172b4d&quot;&gt;&lt;span style=&quot;font-size: 11px ; line-height: 1&quot;&gt;VENDOR_ACCOUNT_ACTIVITY&lt;br&gt;&lt;/span&gt;&lt;/font&gt;" style="whiteSpace=wrap;html=1;fontFamily=Roboto Mono;align=left;fontSize=14;spacingLeft=8;dashed=1;dashPattern=1 1;fontSource=https%3A%2F%2Ffonts.googleapis.com%2Fcss%3Ffamily%3DRoboto%2BMono;spacing=0;spacingBottom=4;" parent="Qn1kcclNdGQqGJFEb3BC-16" vertex="1">
          <mxGeometry x="52.12075620767496" width="180" height="40" as="geometry" />
        </mxCell>
        <mxCell id="Qn1kcclNdGQqGJFEb3BC-18" value="" style="group" parent="Qn1kcclNdGQqGJFEb3BC-16" vertex="1" connectable="0">
          <mxGeometry width="45" height="40" as="geometry" />
        </mxCell>
        <mxCell id="Qn1kcclNdGQqGJFEb3BC-19" value="" style="group;allowArrows=0;dropTarget=0;expand=0;rotatable=0;" parent="Qn1kcclNdGQqGJFEb3BC-18" vertex="1" connectable="0">
          <mxGeometry x="7.5" y="3.6000000000000227" width="30" height="32.799999999999955" as="geometry" />
        </mxCell>
        <mxCell id="Qn1kcclNdGQqGJFEb3BC-20" value="&lt;pre&gt;&lt;br&gt;&lt;/pre&gt;" style="dashed=0;connectable=0;html=1;strokeColor=none;shape=mxgraph.gcp2.report;part=1;labelPosition=center;verticalLabelPosition=top;align=center;verticalAlign=middle;fontFamily=Roboto Mono;fontSource=https://fonts.googleapis.com/css?family=Roboto+Mono;spacingTop=6;fillColor=#4D4D4D;allowArrows=0;dashPattern=1 1;" parent="Qn1kcclNdGQqGJFEb3BC-19" vertex="1">
          <mxGeometry y="8.799999999999955" width="30" height="24" as="geometry" />
        </mxCell>
        <mxCell id="Qn1kcclNdGQqGJFEb3BC-21" value="&lt;b style=&quot;font-size: 8px&quot;&gt;&lt;font color=&quot;#ffffff&quot; style=&quot;font-size: 8px&quot;&gt;SQL&lt;/font&gt;&lt;/b&gt;" style="rounded=0;whiteSpace=wrap;html=1;fontFamily=Roboto Mono;fontSource=https://fonts.googleapis.com/css?family=Roboto+Mono;fontSize=8;fontColor=#4D4D4D;strokeWidth=1;verticalAlign=middle;strokeColor=none;fillColor=#4D4D4D;connectable=0;allowArrows=0;dashed=1;dashPattern=1 1;" parent="Qn1kcclNdGQqGJFEb3BC-19" vertex="1">
          <mxGeometry width="30" height="10.6" as="geometry" />
        </mxCell>
        <mxCell id="Qn1kcclNdGQqGJFEb3BC-22" value="" style="whiteSpace=wrap;html=1;dashed=1;dashPattern=1 1;fontFamily=Roboto Mono;fontSource=https%3A%2F%2Ffonts.googleapis.com%2Fcss%3Ffamily%3DRoboto%2BMono;strokeWidth=1;fillColor=none;align=left;verticalAlign=middle;noLabel=1;connectable=0;allowArrows=0;snapToPoint=0;" parent="Qn1kcclNdGQqGJFEb3BC-18" vertex="1">
          <mxGeometry width="45" height="40" as="geometry" />
        </mxCell>
        <mxCell id="Qn1kcclNdGQqGJFEb3BC-34" value="" style="group" parent="0X5DWx-J_k25tCR8zMgC-1" vertex="1" connectable="0">
          <mxGeometry x="2810" y="1082.38" width="270" height="40" as="geometry" />
        </mxCell>
        <mxCell id="Qn1kcclNdGQqGJFEb3BC-28" value="&lt;font color=&quot;#172b4d&quot;&gt;&lt;span style=&quot;font-size: 11px ; line-height: 1&quot;&gt;CONNECTED_ACCOUNTS_ACTIVITY&lt;br&gt;&lt;/span&gt;&lt;/font&gt;" style="whiteSpace=wrap;html=1;fontFamily=Roboto Mono;align=left;fontSize=14;spacingLeft=8;dashed=1;dashPattern=1 1;fontSource=https%3A%2F%2Ffonts.googleapis.com%2Fcss%3Ffamily%3DRoboto%2BMono;spacing=0;spacingBottom=4;" parent="Qn1kcclNdGQqGJFEb3BC-34" vertex="1">
          <mxGeometry x="52.11999999999989" width="217.88" height="40" as="geometry" />
        </mxCell>
        <mxCell id="Qn1kcclNdGQqGJFEb3BC-29" value="" style="group" parent="Qn1kcclNdGQqGJFEb3BC-34" vertex="1" connectable="0">
          <mxGeometry width="45" height="40" as="geometry" />
        </mxCell>
        <mxCell id="Qn1kcclNdGQqGJFEb3BC-30" value="" style="group;allowArrows=0;dropTarget=0;expand=0;rotatable=0;" parent="Qn1kcclNdGQqGJFEb3BC-29" vertex="1" connectable="0">
          <mxGeometry x="7.5" y="3.6000000000000227" width="30" height="32.799999999999955" as="geometry" />
        </mxCell>
        <mxCell id="Qn1kcclNdGQqGJFEb3BC-31" value="&lt;pre&gt;&lt;br&gt;&lt;/pre&gt;" style="dashed=0;connectable=0;html=1;strokeColor=none;shape=mxgraph.gcp2.report;part=1;labelPosition=center;verticalLabelPosition=top;align=center;verticalAlign=middle;fontFamily=Roboto Mono;fontSource=https://fonts.googleapis.com/css?family=Roboto+Mono;spacingTop=6;fillColor=#4D4D4D;allowArrows=0;dashPattern=1 1;" parent="Qn1kcclNdGQqGJFEb3BC-30" vertex="1">
          <mxGeometry y="8.799999999999955" width="30" height="24" as="geometry" />
        </mxCell>
        <mxCell id="Qn1kcclNdGQqGJFEb3BC-32" value="&lt;b style=&quot;font-size: 8px&quot;&gt;&lt;font color=&quot;#ffffff&quot; style=&quot;font-size: 8px&quot;&gt;SQL&lt;/font&gt;&lt;/b&gt;" style="rounded=0;whiteSpace=wrap;html=1;fontFamily=Roboto Mono;fontSource=https://fonts.googleapis.com/css?family=Roboto+Mono;fontSize=8;fontColor=#4D4D4D;strokeWidth=1;verticalAlign=middle;strokeColor=none;fillColor=#4D4D4D;connectable=0;allowArrows=0;dashed=1;dashPattern=1 1;" parent="Qn1kcclNdGQqGJFEb3BC-30" vertex="1">
          <mxGeometry width="30" height="10.6" as="geometry" />
        </mxCell>
        <mxCell id="Qn1kcclNdGQqGJFEb3BC-33" value="" style="whiteSpace=wrap;html=1;dashed=1;dashPattern=1 1;fontFamily=Roboto Mono;fontSource=https%3A%2F%2Ffonts.googleapis.com%2Fcss%3Ffamily%3DRoboto%2BMono;strokeWidth=1;fillColor=none;align=left;verticalAlign=middle;noLabel=1;connectable=0;allowArrows=0;snapToPoint=0;" parent="Qn1kcclNdGQqGJFEb3BC-29" vertex="1">
          <mxGeometry width="45" height="40" as="geometry" />
        </mxCell>
        <mxCell id="Qn1kcclNdGQqGJFEb3BC-35" style="edgeStyle=orthogonalEdgeStyle;rounded=0;orthogonalLoop=1;jettySize=auto;html=1;exitX=1;exitY=0.5;exitDx=0;exitDy=0;fontFamily=Roboto;fontSource=https%3A%2F%2Ffonts.googleapis.com%2Fcss%3Ffamily%3DRoboto;fontSize=14;fontColor=#FFFFFF;startArrow=none;startFill=0;endArrow=classic;endFill=1;elbow=vertical;" parent="0X5DWx-J_k25tCR8zMgC-1" source="Qn1kcclNdGQqGJFEb3BC-36" target="Qn1kcclNdGQqGJFEb3BC-28" edge="1">
          <mxGeometry relative="1" as="geometry">
            <Array as="points">
              <mxPoint x="3597" y="960" />
              <mxPoint x="3710" y="960" />
              <mxPoint x="3710" y="1150" />
              <mxPoint x="2971" y="1150" />
            </Array>
          </mxGeometry>
        </mxCell>
        <mxCell id="Qn1kcclNdGQqGJFEb3BC-36" value="JOIN" style="rounded=1;whiteSpace=wrap;html=1;dashed=1;dashPattern=1 1;fontFamily=Roboto;fontSource=https%3A%2F%2Ffonts.googleapis.com%2Fcss%3Ffamily%3DRoboto;strokeColor=default;fillColor=#808080;gradientColor=none;fontStyle=1;fontSize=14;fontColor=#FFFFFF;" parent="0X5DWx-J_k25tCR8zMgC-1" vertex="1">
          <mxGeometry x="3527.1200000000003" y="890" width="70" height="30" as="geometry" />
        </mxCell>
        <mxCell id="Qn1kcclNdGQqGJFEb3BC-37" value="" style="edgeStyle=orthogonalEdgeStyle;rounded=0;orthogonalLoop=1;jettySize=auto;html=1;exitX=0.5;exitY=1;exitDx=0;exitDy=0;fontFamily=Roboto;fontSource=https%3A%2F%2Ffonts.googleapis.com%2Fcss%3Ffamily%3DRoboto;fontSize=14;fontColor=#FFFFFF;startArrow=ERone;startFill=0;endArrow=classic;endFill=0;elbow=vertical;" parent="0X5DWx-J_k25tCR8zMgC-1" source="Qn1kcclNdGQqGJFEb3BC-17" target="Qn1kcclNdGQqGJFEb3BC-36" edge="1">
          <mxGeometry relative="1" as="geometry">
            <mxPoint x="3874.240756207675" y="865.0000000000002" as="sourcePoint" />
            <mxPoint x="3451.0588235294117" y="984" as="targetPoint" />
          </mxGeometry>
        </mxCell>
        <mxCell id="d2YbWiwlK6z3USRgEM1a-168" style="edgeStyle=orthogonalEdgeStyle;rounded=0;orthogonalLoop=1;jettySize=auto;html=1;exitX=1;exitY=0.5;exitDx=0;exitDy=0;entryX=0.5;entryY=1;entryDx=0;entryDy=0;" edge="1" parent="0X5DWx-J_k25tCR8zMgC-1" source="d2YbWiwlK6z3USRgEM1a-136" target="0X5DWx-J_k25tCR8zMgC-87">
          <mxGeometry relative="1" as="geometry">
            <Array as="points">
              <mxPoint x="2600" y="1533.38" />
            </Array>
          </mxGeometry>
        </mxCell>
        <mxCell id="d2YbWiwlK6z3USRgEM1a-169" value="" style="group;connectable=1;" vertex="1" connectable="0" parent="0X5DWx-J_k25tCR8zMgC-1">
          <mxGeometry x="3430" y="597.38" width="232.12075620767496" height="40" as="geometry" />
        </mxCell>
        <mxCell id="d2YbWiwlK6z3USRgEM1a-170" value="&lt;font color=&quot;#172b4d&quot;&gt;&lt;span style=&quot;font-size: 11px ; line-height: 1&quot;&gt;VENDOR_ACCOUNTS&lt;br&gt;&lt;/span&gt;&lt;/font&gt;" style="whiteSpace=wrap;html=1;fontFamily=Roboto Mono;align=left;fontSize=14;spacingLeft=8;dashed=1;dashPattern=1 1;fontSource=https%3A%2F%2Ffonts.googleapis.com%2Fcss%3Ffamily%3DRoboto%2BMono;spacing=0;spacingBottom=4;" vertex="1" parent="d2YbWiwlK6z3USRgEM1a-169">
          <mxGeometry x="52.12075620767496" width="180" height="40" as="geometry" />
        </mxCell>
        <mxCell id="d2YbWiwlK6z3USRgEM1a-171" value="" style="group" vertex="1" connectable="0" parent="d2YbWiwlK6z3USRgEM1a-169">
          <mxGeometry width="45" height="40" as="geometry" />
        </mxCell>
        <mxCell id="d2YbWiwlK6z3USRgEM1a-172" value="" style="group;allowArrows=0;dropTarget=0;expand=0;rotatable=0;" vertex="1" connectable="0" parent="d2YbWiwlK6z3USRgEM1a-171">
          <mxGeometry x="7.5" y="3.6000000000000227" width="30" height="32.799999999999955" as="geometry" />
        </mxCell>
        <mxCell id="d2YbWiwlK6z3USRgEM1a-173" value="&lt;pre&gt;&lt;br&gt;&lt;/pre&gt;" style="dashed=0;connectable=0;html=1;strokeColor=none;shape=mxgraph.gcp2.report;part=1;labelPosition=center;verticalLabelPosition=top;align=center;verticalAlign=middle;fontFamily=Roboto Mono;fontSource=https://fonts.googleapis.com/css?family=Roboto+Mono;spacingTop=6;fillColor=#4D4D4D;allowArrows=0;dashPattern=1 1;" vertex="1" parent="d2YbWiwlK6z3USRgEM1a-172">
          <mxGeometry y="8.799999999999955" width="30" height="24" as="geometry" />
        </mxCell>
        <mxCell id="d2YbWiwlK6z3USRgEM1a-174" value="&lt;b style=&quot;font-size: 8px&quot;&gt;&lt;font color=&quot;#ffffff&quot; style=&quot;font-size: 8px&quot;&gt;SQL&lt;/font&gt;&lt;/b&gt;" style="rounded=0;whiteSpace=wrap;html=1;fontFamily=Roboto Mono;fontSource=https://fonts.googleapis.com/css?family=Roboto+Mono;fontSize=8;fontColor=#4D4D4D;strokeWidth=1;verticalAlign=middle;strokeColor=none;fillColor=#4D4D4D;connectable=0;allowArrows=0;dashed=1;dashPattern=1 1;" vertex="1" parent="d2YbWiwlK6z3USRgEM1a-172">
          <mxGeometry width="30" height="10.6" as="geometry" />
        </mxCell>
        <mxCell id="d2YbWiwlK6z3USRgEM1a-175" value="" style="whiteSpace=wrap;html=1;dashed=1;dashPattern=1 1;fontFamily=Roboto Mono;fontSource=https%3A%2F%2Ffonts.googleapis.com%2Fcss%3Ffamily%3DRoboto%2BMono;strokeWidth=1;fillColor=none;align=left;verticalAlign=middle;noLabel=1;connectable=0;allowArrows=0;snapToPoint=0;" vertex="1" parent="d2YbWiwlK6z3USRgEM1a-171">
          <mxGeometry width="45" height="40" as="geometry" />
        </mxCell>
        <mxCell id="d2YbWiwlK6z3USRgEM1a-176" style="rounded=0;orthogonalLoop=1;jettySize=auto;html=1;exitX=-0.021;exitY=0.366;exitDx=0;exitDy=0;exitPerimeter=0;edgeStyle=orthogonalEdgeStyle;" edge="1" parent="0X5DWx-J_k25tCR8zMgC-1" source="iTqYewabS4GiflsHvlJ8-15" target="iTqYewabS4GiflsHvlJ8-50">
          <mxGeometry relative="1" as="geometry" />
        </mxCell>
        <mxCell id="d2YbWiwlK6z3USRgEM1a-184" style="edgeStyle=orthogonalEdgeStyle;rounded=0;orthogonalLoop=1;jettySize=auto;html=1;exitX=0;exitY=0.5;exitDx=0;exitDy=0;entryX=1;entryY=0.5;entryDx=0;entryDy=0;startArrow=ERoneToMany;startFill=0;endArrow=classic;endFill=0;strokeColor=default;" edge="1" parent="0X5DWx-J_k25tCR8zMgC-1" source="Qn1kcclNdGQqGJFEb3BC-25" target="iTqYewabS4GiflsHvlJ8-57">
          <mxGeometry relative="1" as="geometry" />
        </mxCell>
        <mxCell id="Qn1kcclNdGQqGJFEb3BC-25" value="JOIN" style="rounded=1;whiteSpace=wrap;html=1;dashed=1;dashPattern=1 1;fontFamily=Roboto;fontSource=https%3A%2F%2Ffonts.googleapis.com%2Fcss%3Ffamily%3DRoboto;strokeColor=default;fillColor=#808080;gradientColor=none;fontStyle=1;fontSize=14;fontColor=#FFFFFF;" parent="0X5DWx-J_k25tCR8zMgC-1" vertex="1">
          <mxGeometry x="4260" y="719" width="70" height="30" as="geometry" />
        </mxCell>
        <mxCell id="d2YbWiwlK6z3USRgEM1a-182" style="edgeStyle=orthogonalEdgeStyle;rounded=0;orthogonalLoop=1;jettySize=auto;html=1;exitX=0.75;exitY=1;exitDx=0;exitDy=0;entryX=1;entryY=0.25;entryDx=0;entryDy=0;startArrow=ERoneToMany;startFill=0;endArrow=classic;endFill=0;strokeColor=default;" edge="1" parent="0X5DWx-J_k25tCR8zMgC-1" source="iTqYewabS4GiflsHvlJ8-13" target="Qn1kcclNdGQqGJFEb3BC-25">
          <mxGeometry relative="1" as="geometry" />
        </mxCell>
        <mxCell id="d2YbWiwlK6z3USRgEM1a-185" style="edgeStyle=orthogonalEdgeStyle;rounded=0;orthogonalLoop=1;jettySize=auto;html=1;exitX=0;exitY=0.5;exitDx=0;exitDy=0;startArrow=ERoneToMany;startFill=0;endArrow=classic;endFill=0;strokeColor=default;" edge="1" parent="0X5DWx-J_k25tCR8zMgC-1" source="iTqYewabS4GiflsHvlJ8-51" target="d2YbWiwlK6z3USRgEM1a-170">
          <mxGeometry relative="1" as="geometry" />
        </mxCell>
        <mxCell id="iTqYewabS4GiflsHvlJ8-55" value="" style="group" parent="0X5DWx-J_k25tCR8zMgC-1" vertex="1" connectable="0">
          <mxGeometry x="3922.88" y="713" width="237.12075620767519" height="40" as="geometry" />
        </mxCell>
        <mxCell id="iTqYewabS4GiflsHvlJ8-56" value="" style="group;rounded=0;fontFamily=Roboto;fontSource=https://fonts.googleapis.com/css?family=Roboto;opacity=70;html=0;container=0;dashed=1;dashPattern=1 1;fillColor=default;gradientColor=none;strokeColor=default;" parent="iTqYewabS4GiflsHvlJ8-55" vertex="1" connectable="0">
          <mxGeometry width="45" height="40" as="geometry" />
        </mxCell>
        <mxCell id="iTqYewabS4GiflsHvlJ8-57" value="&lt;font color=&quot;#172b4d&quot;&gt;&lt;span style=&quot;font-size: 11px ; line-height: 1&quot;&gt;OD_ACCOUNT_ACTIVITY&lt;br&gt;&lt;/span&gt;&lt;/font&gt;" style="whiteSpace=wrap;html=1;fontFamily=Roboto Mono;align=left;fontSize=14;spacingLeft=8;dashed=1;dashPattern=1 1;fontSource=https://fonts.googleapis.com/css?family=Roboto+Mono;spacing=0;spacingBottom=4;rounded=0;fillColor=#FFFFFF;" parent="iTqYewabS4GiflsHvlJ8-55" vertex="1">
          <mxGeometry x="57.120756207675186" width="180" height="40" as="geometry" />
        </mxCell>
        <mxCell id="iTqYewabS4GiflsHvlJ8-58" value="" style="whiteSpace=wrap;html=1;dashed=1;dashPattern=1 1;fontFamily=Roboto Mono;fontSource=https://fonts.googleapis.com/css?family=Roboto+Mono;strokeWidth=1;fillColor=none;align=left;verticalAlign=middle;noLabel=1;connectable=1;allowArrows=1;snapToPoint=1;rounded=0;strokeColor=none;" parent="iTqYewabS4GiflsHvlJ8-55" vertex="1">
          <mxGeometry width="45" height="40" as="geometry" />
        </mxCell>
        <mxCell id="iTqYewabS4GiflsHvlJ8-59" value="" style="group" parent="iTqYewabS4GiflsHvlJ8-55" vertex="1" connectable="0">
          <mxGeometry x="7.5" y="4.27000000000001" width="30" height="32.12999999999997" as="geometry" />
        </mxCell>
        <mxCell id="iTqYewabS4GiflsHvlJ8-60" value="&lt;pre&gt;&lt;br&gt;&lt;/pre&gt;" style="dashed=0;connectable=1;html=1;strokeColor=none;shape=mxgraph.gcp2.report;part=1;labelPosition=center;verticalLabelPosition=top;align=center;verticalAlign=middle;fontFamily=Roboto Mono;fontSource=https://fonts.googleapis.com/css?family=Roboto+Mono;spacingTop=6;fillColor=#7EA6E0;editable=1;dashPattern=1 1;rounded=0;movable=1;resizable=1;rotatable=1;deletable=1;" parent="iTqYewabS4GiflsHvlJ8-59" vertex="1">
          <mxGeometry y="8.129999999999967" width="30" height="24" as="geometry" />
        </mxCell>
        <mxCell id="iTqYewabS4GiflsHvlJ8-61" value="&lt;b style=&quot;font-size: 8px&quot;&gt;&lt;font color=&quot;#ffffff&quot; style=&quot;font-size: 8px&quot;&gt;SnowQL&lt;/font&gt;&lt;/b&gt;" style="rounded=0;whiteSpace=wrap;html=1;fontFamily=Roboto Mono;fontSource=https://fonts.googleapis.com/css?family=Roboto+Mono;fontSize=8;fontColor=#4D4D4D;strokeWidth=1;verticalAlign=middle;strokeColor=none;fillColor=#7EA6E0;connectable=1;allowArrows=0;editable=1;dashed=1;dashPattern=1 1;movable=1;resizable=1;rotatable=1;deletable=1;" parent="iTqYewabS4GiflsHvlJ8-59" vertex="1">
          <mxGeometry width="30" height="11" as="geometry" />
        </mxCell>
        <mxCell id="d2YbWiwlK6z3USRgEM1a-186" style="edgeStyle=orthogonalEdgeStyle;rounded=0;orthogonalLoop=1;jettySize=auto;html=1;exitX=0;exitY=0.5;exitDx=0;exitDy=0;startArrow=ERoneToMany;startFill=0;endArrow=classic;endFill=0;strokeColor=default;entryX=1;entryY=0.5;entryDx=0;entryDy=0;" edge="1" parent="0X5DWx-J_k25tCR8zMgC-1" source="iTqYewabS4GiflsHvlJ8-58" target="Qn1kcclNdGQqGJFEb3BC-17">
          <mxGeometry relative="1" as="geometry">
            <mxPoint x="3790" y="733.1111111111111" as="targetPoint" />
          </mxGeometry>
        </mxCell>
        <mxCell id="d2YbWiwlK6z3USRgEM1a-187" value="" style="whiteSpace=wrap;html=1;fillColor=#ECDFF2;strokeColor=#9673a6;" vertex="1" parent="0X5DWx-J_k25tCR8zMgC-1">
          <mxGeometry x="3930" y="1157.88" width="575" height="90.25" as="geometry" />
        </mxCell>
        <mxCell id="d2YbWiwlK6z3USRgEM1a-214" value="" style="group;fillColor=none;" vertex="1" connectable="0" parent="0X5DWx-J_k25tCR8zMgC-1">
          <mxGeometry x="4260" y="1113.63" width="234.62075620767496" height="40" as="geometry" />
        </mxCell>
        <mxCell id="d2YbWiwlK6z3USRgEM1a-215" value="&lt;font color=&quot;#172b4d&quot;&gt;&lt;span style=&quot;font-size: 11px ; line-height: 1&quot;&gt;GraphCMS&lt;br&gt;&lt;/span&gt;&lt;/font&gt;" style="whiteSpace=wrap;html=1;fontFamily=Roboto Mono;align=left;fontSize=14;spacingLeft=8;dashed=1;dashPattern=1 1;fontSource=https%3A%2F%2Ffonts.googleapis.com%2Fcss%3Ffamily%3DRoboto%2BMono;spacing=0;spacingBottom=4;" vertex="1" parent="d2YbWiwlK6z3USRgEM1a-214">
          <mxGeometry x="54.62075620767496" width="180" height="40" as="geometry" />
        </mxCell>
        <mxCell id="d2YbWiwlK6z3USRgEM1a-216" value="" style="group;fillColor=default;" vertex="1" connectable="0" parent="d2YbWiwlK6z3USRgEM1a-214">
          <mxGeometry width="45" height="40" as="geometry" />
        </mxCell>
        <mxCell id="d2YbWiwlK6z3USRgEM1a-217" value="" style="whiteSpace=wrap;html=1;dashed=1;dashPattern=1 1;fontFamily=Roboto Mono;fontSource=https%3A%2F%2Ffonts.googleapis.com%2Fcss%3Ffamily%3DRoboto%2BMono;strokeWidth=1;fillColor=none;align=left;verticalAlign=middle;noLabel=1;connectable=1;allowArrows=1;snapToPoint=1;fontSize=11;" vertex="1" parent="d2YbWiwlK6z3USRgEM1a-216">
          <mxGeometry width="45" height="40" as="geometry" />
        </mxCell>
        <mxCell id="d2YbWiwlK6z3USRgEM1a-218" value="" style="shape=image;verticalLabelPosition=bottom;labelBackgroundColor=#ffffff;verticalAlign=top;aspect=fixed;imageAspect=0;image=data:image/png,iVBORw0KGgoAAAANSUhEUgAAAMgAAADICAIAAAAiOjnJAAALyElEQVR4nOzde1RU9frHcYeZYbgjYqCIooaE5j2lTJP1s0grzSwvpUTknRSU2zDMyJ0ZYAi8kCKKWpAmkaHmhdS0DCzvoj+pTM8hTQspiYNyyQHPOsfWOisXygx+n9mz9/68/mae9SzXe82Me76zR2br5N0JgDUrrhcAYUJYQAJhAQmEBSQQFpBAWEACYQEJhAUkEBaQQFhAAmEBCYQFJBAWkEBYQAJhAQmEBSQQFpBAWEACYQEJhAUkEBaQQFhAAmEBCYQFJBAWkEBYQAJhAQmEBSQQFpBAWEACYQEJhAUkEBaQQFhAAmEBCYRlVjY2Cq5XMBOpXNGF6x1E5OC+Irlcfqai8s6dO1zvQgvPWGbl6uqyIivxaPnOAf19uN6FFsLiwID+Pt+W7VyRleTq6sL1LlQQFjdkMun8uTPPnToQuuhtuVzG9TrsISwude7slKFTn/h2z5TJE2xtbbhehyWExb1+3n02F+RUnNz3+vSXJRKut2EEYVkKzx7dN67P+rQ4v7eXJ9e7MICwLMv4AP9Tx0qTE6IcHOy53uWhICzzMuLqlY2NIipiwf69W8yxDxmEZV5Gv4VycnKg3YQYwgISCAtIICwggbCABMICEggLSCAs87G2liusrY39a56f10JYZjJpYsCpo3s9PLoZ+wCef2gowAMblmbQQF99mtp/7CiuFzErhEXIydFBmxITHDRNKpVyvYu5ISwqU199KTU5ulfPHlwvwg2ExZiVlVVQ4NTgoKl+I4dxvQuXEBZL/mOf0qdpBg305XoR7iEsNvr26aVLVb08MYDrRSwFwnpYMplUGRkSHRmiUBh9jUoEENZDCXhubIYu1vcxb64XsTgIq4N8fPpmaNXjn/fnehELhbBM5tLZWR0bOn/OLEF+H5AV/NOYQCaTzp09c1lsWJcunbnexdIhLKNIJJLRo0asWp7s64u3U0ZBWO17ym+4Pl0z4onBXC/CJwjrQXp6eqQkRU+fOpHrRfgHYbXNzs42MnzB0tA5ArulgtkgrHtJJJI3ZkxOTojy8HBnO7n2jzprudze3s6ov8ZBPyHp7eVZtCU3Py+TbVUGQ8u6/M2DhwVcr/nN2MfgoJ8wODjYR0cuDF30to2C8W1CD315RBmrPV95ge1YC4ew/vPaFzhzSlJ8ZLdubmwnV1fXhIbH79p9gO1YXhB7WKOeHK5PX/bE8EFsxxoMhvUbP0rVraytrWM7mS/EG9aY0SNXZif3Z33Bs6mpOWf1psys3Ju3GthO5hcxhuXq6hKnXjo7eIZMxvgo+vYdn6vj0qt++pntWD4SV1hymWz+vECNanHnzs5sJ589951SpT1cdpTtWP4SUVjjA/zTderHfPqyHdvY2JSYkr0694PW1la2k3lNLGGNGT2y5JN85mO3lezRxOkvX7lq7AOMv+zJ8wukYglLLpezHXjq9DllrO7INydMe5jxlz1xgVRsfvn1emJy1odbSgT/ezgPA2GZoKmpadV7mzKz194S96UEYyAsoxgMho3vF2WvXH/5stFvp8QNYbVv/4HDMZq077+/yPUifIKwHuTChX+oNGml+77kehH+QVhtq62t02Xk5K3fbDAYuN6FlxBWG/aWHpq3UHmj9g+uF+ExHPRrQ/k3J1DVQ0JYQAJhAQmEBSQQFpBAWEACYQEJhAUkEFbHyWTSdxYGTZk8wYTHiOagH8LqoIDnnjl2ZNe7GXEuLqYcn8dBP7ifft590nWxL4z/P64XsWgIywTOzo7qmNAF8wOtWR90Fh6EZRRbG5ulYXPVqlCpFG8ejIKw2vffX8VR9urpwfUifIKwHmTY0Mcz05c9PWoE14vwD8Jqm7tb18T4yDdnvWplhde+jkBYbZg86fmYqBBHRwf2o0VzHQthtWHkiCFUo0VzHQvP80ACYQEJhAUkEBaQQFhAAmEBCYQFJHAdq+MaG5tW5mwo+ngn14tYIoTVQcXbdi9L0F+5co3rRSwUwjLZyVNnlSrtN0dPcb2IRUNYJjhfeWHFqvwtW7fjJpHtQlhGuXHjD236qty8Qq4X4Q2E1Y7btw3rN2zRpq8S7a/idAzCepDP93+lUqf9cOES14vwD8Jq2/c/XFJpdPv2H+Z6Eb5CWPe6efNWQnL2+g2bDYYWtpOHDB5gwm/48Py/B7jy/je79nwx6pnJuXkFbKtyc3NdnaMt+7LExfiweH7QD89Yf6msvKBU6w4eKmc71tpavigkOCYqxMnJke1kC4ewOv1+ozZVuzJ/09aWFsavfU/6DcvPy3y0rxfbsbwg6rCu/VIdn/juR0U7mF/wHDPaLzNdM2TwALZjeUSkYbW2tubmFSSmLGf+qzhevTx1KTFTXjHlFjRCJMawjh47Ha1KPXHyLNux9vZ20RELwxbPtrFRsJ3MR+IK6+rVX+MSM4uKd7J96ZNIJDNffyU5IbJ7d3eWc/lMLGE1NjbpMt7LXrGuoaGR7eQ+vXuuydH6jx3FdizfP+eW2Dp5c70DXzk62isjQxa/E6xQMH7t++JgWYxaV/ndj2zHmpNYnrHYsrKyCgp8LWFZhLt7V7aTL16qUqnT9pQeZDvW/BCWyZ4Z46dPY38p4c/bt/PWfajLyKmrq2c7mRMIywQvvTBu7pyZ4wP82Y5taGhck1dQ+OG2Hy/+k+1kDiEso7i7P5IUFxH05lS2Y+/cuVNU/FlcYubVq7+yncw5hNUOhUIRtujtqMiFjg72bCcfO3FGqdIeO36G7VgLgbAeZMorE7TJMb29PNmOra+/uSQioaj4M75fU3gAhNW2oUMe16drxjw9ku3Y1tbWws2fJqZkV1fXsJ1saRDWvZydHdO1aoqbRJYdOa5Uac9UnGc71jIhrP+RSCQzpk1KSYzu0aMb28lVP/2sic8o2V7KdqwlQ1h/8Rs5VJ+u8RsxlO3Y+vpbmdlrc1ZvbG7+k+1kC4ewOg0a6Bu+ZN6MaZMkEpbHgZubm3fvORgZkyL4t1NtEnVY/bz7pGlVL04Yx3zy9h2l6nh9VdUV5pP5QqRhyeWyWOXiiPD5zH8Vp6KiUhmr/br8GNuxvCPGsF6cMC5Nq+rn3Yft2OrqmqSU5QWbt7W2trKdzEfiCmtA/34ZOvWz48awHdvc3Pzemvf17+bW37zFdjJ/iSUsV1eXOPWS2cGvy2RStpOPn6h4J0xz/vwPbMfynfDDkstkC+YHqmMWm/AtZONcu1Ydl5i59eOdAv5kpsMEHtaggb6Fm1b6+PRlO7axqWlVzobM7DzmB50FQ7Bhde3aJWFZeHDQNKmU8WvftpI9mnj95ctX2Y4VGAGG5dmje2pS9PRpk5hP/qCwOCE5+/r135hPFh5BhWVraxOxZF74knl2drZsJ1+8VBWrSdu9l/dH0c1GOGFNnzoxNUnp6dmd7di6f9Wn61fnri348/ZttpOFTQhh9ezpoU/TTJ70PNuxLS0tHxR+kpS6vKbmd7aTxYDfYdnZ2UaFL1gSOsfW1obt5K/LjkartGfPfcd2rHjwOyxV9KKIpfPYnsi7XvP70sjE7TtEdHaKglSu6ML1Dh136Ksj+w4c7u/bj8lbK4OhJX/jR7PeCj19+v9ZbCdqAvmK/aw3pmTp4x7mrnkC+Fa7RRFIWJ06dXJ7xPXNWa+Fhc55pKtpz8ElO0o3bNrK/CaRIiecsO5ydnJUKReFLAiytm7/oNWZivPKWG1Z+XGzrCYuQgvrrkcf9UpLjZ344rP3+4OGhsb4pKy16wpxdooIv9+8309tbV3xtl1Hvj05ZPAAN7e/3RDm7rfap88MOXioHKcS6AgzrLuqqq5sfH+rTCp7YvhgmUx291vtgW+FrVlbUF9/k+vtBE6YL4X38OrVQ60KO/RVedHHQv5Wu0URRVhgfvjJEyCBsIAEwgISCAtIICwggbCABMICEggLSCAsIIGwgATCAhIIC0ggLCCBsIAEwgISCAtIICwggbCABMICEggLSCAsIIGwgATCAhIIC0ggLCCBsIAEwgISCAtIICwggbCABMICEggLSCAsIIGwgATCAhL/DgAA//8OFzb1PgB4EAAAAABJRU5ErkJggg==;allowArrows=0;connectable=0;fillColor=#ECDFF2;imageBackground=#FFFFFF;" vertex="1" parent="d2YbWiwlK6z3USRgEM1a-216">
          <mxGeometry x="7.5" y="5" width="30" height="30" as="geometry" />
        </mxCell>
        <mxCell id="d2YbWiwlK6z3USRgEM1a-224" value="" style="group;" vertex="1" connectable="0" parent="0X5DWx-J_k25tCR8zMgC-1">
          <mxGeometry x="3948.75" y="1178.13" width="234.62075620767496" height="40" as="geometry" />
        </mxCell>
        <mxCell id="d2YbWiwlK6z3USRgEM1a-225" value="&lt;font color=&quot;#172b4d&quot;&gt;&lt;span style=&quot;font-size: 11px ; line-height: 1&quot;&gt;SpecialProducts&lt;/span&gt;&lt;/font&gt;" style="whiteSpace=wrap;html=1;fontFamily=Roboto Mono;align=left;fontSize=14;spacingLeft=8;dashed=1;dashPattern=1 1;fontSource=https%3A%2F%2Ffonts.googleapis.com%2Fcss%3Ffamily%3DRoboto%2BMono;spacing=0;spacingBottom=4;" vertex="1" parent="d2YbWiwlK6z3USRgEM1a-224">
          <mxGeometry x="54.62075620767496" width="180" height="40" as="geometry" />
        </mxCell>
        <mxCell id="d2YbWiwlK6z3USRgEM1a-226" value="" style="group;fillColor=default;" vertex="1" connectable="0" parent="d2YbWiwlK6z3USRgEM1a-224">
          <mxGeometry width="45" height="40" as="geometry" />
        </mxCell>
        <mxCell id="d2YbWiwlK6z3USRgEM1a-227" value="" style="whiteSpace=wrap;html=1;dashed=1;dashPattern=1 1;fontFamily=Roboto Mono;fontSource=https%3A%2F%2Ffonts.googleapis.com%2Fcss%3Ffamily%3DRoboto%2BMono;strokeWidth=1;fillColor=none;align=left;verticalAlign=middle;noLabel=1;connectable=1;allowArrows=1;snapToPoint=1;" vertex="1" parent="d2YbWiwlK6z3USRgEM1a-226">
          <mxGeometry width="45" height="40" as="geometry" />
        </mxCell>
        <mxCell id="d2YbWiwlK6z3USRgEM1a-228" value="" style="group;fillColor=none;" vertex="1" connectable="0" parent="d2YbWiwlK6z3USRgEM1a-226">
          <mxGeometry x="8.854136728531046" y="4.7751262658471205" width="27.29172654293791" height="30.449747468305873" as="geometry" />
        </mxCell>
        <mxCell id="d2YbWiwlK6z3USRgEM1a-229" value="" style="strokeWidth=1;html=1;shape=mxgraph.flowchart.start_2;whiteSpace=wrap;labelBackgroundColor=none;fontFamily=Roboto;fontSource=https%3A%2F%2Ffonts.googleapis.com%2Fcss%3Ffamily%3DRoboto;fontSize=12;fontColor=#D4E1F5;fillColor=#D4E1F5;aspect=fixed;strokeColor=#314354;connectable=0;allowArrows=0;" vertex="1" parent="d2YbWiwlK6z3USRgEM1a-228">
          <mxGeometry width="10" height="10" as="geometry" />
        </mxCell>
        <mxCell id="d2YbWiwlK6z3USRgEM1a-230" value="" style="strokeWidth=1;html=1;shape=mxgraph.flowchart.start_2;whiteSpace=wrap;labelBackgroundColor=none;fontFamily=Roboto;fontSource=https%3A%2F%2Ffonts.googleapis.com%2Fcss%3Ffamily%3DRoboto;fontSize=12;fontColor=#D4E1F5;fillColor=none;aspect=fixed;strokeColor=#314354;" vertex="1" parent="d2YbWiwlK6z3USRgEM1a-228">
          <mxGeometry x="14" y="14" width="5" height="5" as="geometry" />
        </mxCell>
        <mxCell id="d2YbWiwlK6z3USRgEM1a-231" style="rounded=0;orthogonalLoop=1;jettySize=auto;html=1;exitX=0.855;exitY=0.855;exitDx=0;exitDy=0;exitPerimeter=0;entryX=0.145;entryY=0.145;entryDx=0;entryDy=0;entryPerimeter=0;fontFamily=Roboto;fontSource=https%3A%2F%2Ffonts.googleapis.com%2Fcss%3Ffamily%3DRoboto;fontSize=12;fontColor=#D4E1F5;endArrow=none;endFill=0;startSize=4;endSize=3;strokeColor=#314354;strokeWidth=1;" edge="1" parent="d2YbWiwlK6z3USRgEM1a-228" source="d2YbWiwlK6z3USRgEM1a-229" target="d2YbWiwlK6z3USRgEM1a-230">
          <mxGeometry relative="1" as="geometry" />
        </mxCell>
        <mxCell id="d2YbWiwlK6z3USRgEM1a-232" style="rounded=0;orthogonalLoop=1;jettySize=auto;html=1;exitX=0;exitY=0.5;exitDx=0;exitDy=0;exitPerimeter=0;entryX=0.855;entryY=0.145;entryDx=0;entryDy=0;entryPerimeter=0;fontFamily=Roboto;fontSource=https%3A%2F%2Ffonts.googleapis.com%2Fcss%3Ffamily%3DRoboto;fontSize=12;fontColor=#D4E1F5;endArrow=none;endFill=0;startSize=4;endSize=3;strokeColor=#314354;strokeWidth=1;" edge="1" parent="d2YbWiwlK6z3USRgEM1a-228" source="d2YbWiwlK6z3USRgEM1a-233" target="d2YbWiwlK6z3USRgEM1a-230">
          <mxGeometry relative="1" as="geometry" />
        </mxCell>
        <mxCell id="d2YbWiwlK6z3USRgEM1a-233" value="" style="strokeWidth=1;html=1;shape=mxgraph.flowchart.start_2;whiteSpace=wrap;labelBackgroundColor=none;fontFamily=Roboto;fontSource=https%3A%2F%2Ffonts.googleapis.com%2Fcss%3Ffamily%3DRoboto;fontSize=12;fontColor=#D4E1F5;fillColor=#D4E1F5;aspect=fixed;strokeColor=#314354;rotation=-55;" vertex="1" parent="d2YbWiwlK6z3USRgEM1a-228">
          <mxGeometry x="20" y="4" width="6" height="6" as="geometry" />
        </mxCell>
        <mxCell id="d2YbWiwlK6z3USRgEM1a-234" value="" style="strokeWidth=1;html=1;shape=mxgraph.flowchart.start_2;whiteSpace=wrap;labelBackgroundColor=none;fontFamily=Roboto;fontSource=https%3A%2F%2Ffonts.googleapis.com%2Fcss%3Ffamily%3DRoboto;fontSize=12;fontColor=#D4E1F5;fillColor=none;aspect=fixed;strokeColor=#314354;rotation=-5;" vertex="1" parent="d2YbWiwlK6z3USRgEM1a-228">
          <mxGeometry x="20" y="19" width="7" height="7" as="geometry" />
        </mxCell>
        <mxCell id="d2YbWiwlK6z3USRgEM1a-235" style="edgeStyle=none;rounded=0;orthogonalLoop=1;jettySize=auto;html=1;exitX=0.855;exitY=0.855;exitDx=0;exitDy=0;exitPerimeter=0;entryX=0.186;entryY=0.167;entryDx=0;entryDy=0;entryPerimeter=0;fontFamily=Roboto;fontSource=https%3A%2F%2Ffonts.googleapis.com%2Fcss%3Ffamily%3DRoboto;fontSize=12;fontColor=#D4E1F5;endArrow=none;endFill=0;startSize=4;endSize=3;strokeColor=#314354;strokeWidth=1;" edge="1" parent="d2YbWiwlK6z3USRgEM1a-228" source="d2YbWiwlK6z3USRgEM1a-230" target="d2YbWiwlK6z3USRgEM1a-234">
          <mxGeometry relative="1" as="geometry" />
        </mxCell>
        <mxCell id="d2YbWiwlK6z3USRgEM1a-236" style="edgeStyle=none;rounded=0;orthogonalLoop=1;jettySize=auto;html=1;exitX=1;exitY=0.5;exitDx=0;exitDy=0;exitPerimeter=0;entryX=0.145;entryY=0.855;entryDx=0;entryDy=0;entryPerimeter=0;fontFamily=Roboto;fontSource=https%3A%2F%2Ffonts.googleapis.com%2Fcss%3Ffamily%3DRoboto;fontSize=12;fontColor=#D4E1F5;endArrow=none;endFill=0;startSize=4;endSize=3;strokeColor=#314354;strokeWidth=1;" edge="1" parent="d2YbWiwlK6z3USRgEM1a-228" source="d2YbWiwlK6z3USRgEM1a-237" target="d2YbWiwlK6z3USRgEM1a-230">
          <mxGeometry relative="1" as="geometry" />
        </mxCell>
        <mxCell id="d2YbWiwlK6z3USRgEM1a-237" value="" style="strokeWidth=1;html=1;shape=mxgraph.flowchart.start_2;whiteSpace=wrap;labelBackgroundColor=none;fontFamily=Roboto;fontSource=https%3A%2F%2Ffonts.googleapis.com%2Fcss%3Ffamily%3DRoboto;fontSize=12;fontColor=#D4E1F5;fillColor=none;aspect=fixed;strokeColor=#314354;rotation=-45;" vertex="1" parent="d2YbWiwlK6z3USRgEM1a-228">
          <mxGeometry x="1.5" y="22" width="7" height="7" as="geometry" />
        </mxCell>
        <mxCell id="d2YbWiwlK6z3USRgEM1a-245" style="edgeStyle=orthogonalEdgeStyle;rounded=0;orthogonalLoop=1;jettySize=auto;html=1;exitX=0.5;exitY=0;exitDx=0;exitDy=0;startArrow=ERone;startFill=0;endArrow=classic;endFill=0;strokeColor=default;" edge="1" parent="0X5DWx-J_k25tCR8zMgC-1" source="d2YbWiwlK6z3USRgEM1a-225" target="Qn1kcclNdGQqGJFEb3BC-10">
          <mxGeometry relative="1" as="geometry" />
        </mxCell>
        <mxCell id="d2YbWiwlK6z3USRgEM1a-247" value="" style="group" vertex="1" connectable="0" parent="0X5DWx-J_k25tCR8zMgC-1">
          <mxGeometry x="2220" y="1243.6200000000001" width="234.62075620767496" height="40" as="geometry" />
        </mxCell>
        <mxCell id="d2YbWiwlK6z3USRgEM1a-248" value="&lt;font color=&quot;#172b4d&quot;&gt;&lt;span style=&quot;font-size: 11px ; line-height: 1&quot;&gt;members&lt;br&gt;&lt;/span&gt;&lt;/font&gt;" style="whiteSpace=wrap;html=1;fontFamily=Roboto Mono;align=left;fontSize=14;spacingLeft=8;dashed=1;dashPattern=1 1;fontSource=https%3A%2F%2Ffonts.googleapis.com%2Fcss%3Ffamily%3DRoboto%2BMono;spacing=0;spacingBottom=4;" vertex="1" parent="d2YbWiwlK6z3USRgEM1a-247">
          <mxGeometry x="54.62075620767496" width="180" height="40" as="geometry" />
        </mxCell>
        <mxCell id="d2YbWiwlK6z3USRgEM1a-249" value="" style="group" vertex="1" connectable="0" parent="d2YbWiwlK6z3USRgEM1a-247">
          <mxGeometry width="45" height="40" as="geometry" />
        </mxCell>
        <mxCell id="d2YbWiwlK6z3USRgEM1a-250" value="" style="whiteSpace=wrap;html=1;dashed=1;dashPattern=1 1;fontFamily=Roboto Mono;fontSource=https%3A%2F%2Ffonts.googleapis.com%2Fcss%3Ffamily%3DRoboto%2BMono;strokeWidth=1;fillColor=none;align=left;verticalAlign=middle;noLabel=1;connectable=1;allowArrows=1;snapToPoint=1;" vertex="1" parent="d2YbWiwlK6z3USRgEM1a-249">
          <mxGeometry width="45" height="40" as="geometry" />
        </mxCell>
        <mxCell id="d2YbWiwlK6z3USRgEM1a-251" value="" style="group;noLabel=1;allowArrows=0;" vertex="1" connectable="0" parent="d2YbWiwlK6z3USRgEM1a-249">
          <mxGeometry x="7.5" y="3.6000000000000227" width="30" height="32.799999999999955" as="geometry" />
        </mxCell>
        <mxCell id="d2YbWiwlK6z3USRgEM1a-252" value="&lt;pre&gt;&lt;br&gt;&lt;/pre&gt;" style="dashed=0;connectable=0;html=1;strokeColor=none;shape=mxgraph.gcp2.report;part=1;labelPosition=center;verticalLabelPosition=top;align=center;verticalAlign=middle;fontFamily=Roboto Mono;fontSource=https%3A%2F%2Ffonts.googleapis.com%2Fcss%3Ffamily%3DRoboto%2BMono;spacingTop=6;allowArrows=0;dashPattern=1 1;fillColor=#f0a30a;fontColor=#000000;" vertex="1" parent="d2YbWiwlK6z3USRgEM1a-251">
          <mxGeometry y="8.799999999999955" width="30" height="24" as="geometry" />
        </mxCell>
        <mxCell id="d2YbWiwlK6z3USRgEM1a-253" value="&lt;b style=&quot;font-size: 8px&quot;&gt;&lt;font color=&quot;#ffffff&quot; style=&quot;font-size: 8px&quot;&gt;FSDB&lt;/font&gt;&lt;/b&gt;" style="whiteSpace=wrap;html=1;fontFamily=Roboto Mono;fontSource=https%3A%2F%2Ffonts.googleapis.com%2Fcss%3Ffamily%3DRoboto%2BMono;fontSize=8;strokeWidth=1;verticalAlign=middle;strokeColor=none;connectable=0;allowArrows=0;dashed=1;dashPattern=1 1;fillColor=#f0a30a;fontColor=#000000;" vertex="1" parent="d2YbWiwlK6z3USRgEM1a-251">
          <mxGeometry width="30" height="10.6" as="geometry" />
        </mxCell>
        <mxCell id="d2YbWiwlK6z3USRgEM1a-306" value="" style="group" vertex="1" connectable="0" parent="0X5DWx-J_k25tCR8zMgC-1">
          <mxGeometry x="2592" y="1233.6200000000001" width="108.4699999999998" height="118.8599999999999" as="geometry" />
        </mxCell>
        <object label="%route%" placeholders="1" route="/account" id="d2YbWiwlK6z3USRgEM1a-298">
          <mxCell style="whiteSpace=wrap;html=1;shape=stencil(tZY9b4MwEIZ/DSMR2KkIY0XSsUuHzg65JFaMjWzy0X9fg00bSEDGIhID9558D7x3NgQ4U0dSQoAiokrIqwCvA4QuRFKyZVpGOnM0YroyIScFGGUt8nMBvDK6qqQ4wZXuKruA8iNIarNXWyStQ7wJonct1hfOcsG5RlPBVSdzl9e1Ca1Bd/TP2FQuNaSACqSRI6PebLRAb0b46aQD9DGJhZxYs6CwEyqZg/XlZWHsx/Kx0BPlZaEf69vJwm6v/gydynKysMfyRDlZ2EMlfqyNi4XxPBZuXCzsszxRLhb2UUMW4kwrQwclzrYkPx2kOPPd0ycsSX0mPyTadCEu8P9I7Tnfbovl2Nu3JRjlwyXacEqJaOYKowfk8wKr5fQKORMKRmZF6w/NaNSBDuJsLySMtHZPGTNf3hHqpP77vDaRub5hRB4g1PfhnpFDZ7ls5902UrbTZfPqClDeLYs7uyRJbRiSG1WhFBWpd8HTSfGY1rQ38IvkVa126lqz9KHtjWp+1hrhFw==);strokeWidth=1;fontFamily=Roboto Mono;fontSize=10;align=left;verticalAlign=bottom;spacingLeft=2;fontStyle=1;rounded=0;sketch=0;fontSource=https%3A%2F%2Ffonts.googleapis.com%2Fcss%3Ffamily%3DRoboto%2BMono;fillColor=#FFFFFF;" vertex="1" parent="d2YbWiwlK6z3USRgEM1a-306">
            <mxGeometry width="108.47" height="118.86" as="geometry" />
          </mxCell>
        </object>
        <mxCell id="d2YbWiwlK6z3USRgEM1a-305" value="" style="group" vertex="1" connectable="0" parent="d2YbWiwlK6z3USRgEM1a-306">
          <mxGeometry x="12.759999999999764" y="20" width="85.71000000000004" height="80" as="geometry" />
        </mxCell>
        <mxCell id="d2YbWiwlK6z3USRgEM1a-303" value="activity" style="shape=card;whiteSpace=wrap;html=1;verticalAlign=bottom;spacingBottom=3;spacingLeft=16;points=[[0,0.25],[0,0.5],[0,0.75],[0.25,0],[0.5,0],[0.75,0],[1,0.25],[1,0.5],[1,0.75],[0.25,1],[0.5,1],[0.75,1]];fontFamily=Roboto;fontSource=https%3A%2F%2Ffonts.googleapis.com%2Fcss%3Ffamily%3DRoboto;" vertex="1" parent="d2YbWiwlK6z3USRgEM1a-305">
          <mxGeometry width="85.71" height="80" as="geometry" />
        </mxCell>
        <mxCell id="d2YbWiwlK6z3USRgEM1a-264" value="" style="sketch=0;outlineConnect=0;fontColor=#232F3E;gradientColor=none;fillColor=#A680B8;strokeColor=none;dashed=0;verticalLabelPosition=bottom;verticalAlign=top;align=center;html=1;fontSize=12;fontStyle=0;aspect=fixed;pointerEvents=1;shape=mxgraph.aws4.table;" vertex="1" parent="d2YbWiwlK6z3USRgEM1a-305">
          <mxGeometry x="37.710000000000036" y="10" width="38" height="38" as="geometry" />
        </mxCell>
        <mxCell id="d2YbWiwlK6z3USRgEM1a-276" value="" style="pointerEvents=1;shadow=0;dashed=0;html=1;strokeColor=none;labelPosition=center;verticalLabelPosition=bottom;verticalAlign=top;outlineConnect=0;align=center;shape=mxgraph.office.security.lock_with_key_security;fillColor=#575757;aspect=fixed;connectable=0;allowArrows=0;resizable=0;portConstraint=south;container=0;" vertex="1" parent="d2YbWiwlK6z3USRgEM1a-306">
          <mxGeometry x="2.9967200000000958" y="1.9975074818298708" width="19.45" height="24" as="geometry" />
        </mxCell>
        <mxCell id="d2YbWiwlK6z3USRgEM1a-308" style="edgeStyle=orthogonalEdgeStyle;rounded=0;orthogonalLoop=1;jettySize=auto;html=1;exitX=1;exitY=0.5;exitDx=0;exitDy=0;fontFamily=Roboto;fontSource=https%3A%2F%2Ffonts.googleapis.com%2Fcss%3Ffamily%3DRoboto;startArrow=ERone;startFill=0;endArrow=classic;endFill=0;strokeColor=default;" edge="1" parent="0X5DWx-J_k25tCR8zMgC-1" source="d2YbWiwlK6z3USRgEM1a-422" target="d2YbWiwlK6z3USRgEM1a-136">
          <mxGeometry relative="1" as="geometry">
            <mxPoint x="2300.4025" y="1558.0900000000004" as="sourcePoint" />
            <Array as="points">
              <mxPoint x="2187" y="1443.6200000000001" />
              <mxPoint x="2240" y="1443.6200000000001" />
              <mxPoint x="2240" y="1374.6200000000001" />
            </Array>
          </mxGeometry>
        </mxCell>
        <mxCell id="d2YbWiwlK6z3USRgEM1a-310" style="edgeStyle=orthogonalEdgeStyle;rounded=0;orthogonalLoop=1;jettySize=auto;html=1;exitX=0.25;exitY=1;exitDx=0;exitDy=0;fontFamily=Roboto;fontSource=https%3A%2F%2Ffonts.googleapis.com%2Fcss%3Ffamily%3DRoboto;startArrow=ERone;startFill=0;endArrow=classic;endFill=0;strokeColor=default;" edge="1" parent="0X5DWx-J_k25tCR8zMgC-1" source="Qn1kcclNdGQqGJFEb3BC-28" target="d2YbWiwlK6z3USRgEM1a-303">
          <mxGeometry relative="1" as="geometry" />
        </mxCell>
        <mxCell id="d2YbWiwlK6z3USRgEM1a-331" style="edgeStyle=orthogonalEdgeStyle;rounded=0;orthogonalLoop=1;jettySize=auto;html=1;exitX=0;exitY=0.5;exitDx=0;exitDy=0;fontFamily=Roboto;fontSource=https%3A%2F%2Ffonts.googleapis.com%2Fcss%3Ffamily%3DRoboto;startArrow=ERone;startFill=0;endArrow=classic;endFill=0;strokeColor=default;entryX=0.94;entryY=0.5;entryDx=0;entryDy=0;entryPerimeter=0;" edge="1" parent="0X5DWx-J_k25tCR8zMgC-1" source="0X5DWx-J_k25tCR8zMgC-295" target="d2YbWiwlK6z3USRgEM1a-395">
          <mxGeometry relative="1" as="geometry">
            <mxPoint x="2409" y="268.37999999999977" as="targetPoint" />
            <Array as="points">
              <mxPoint x="2650" y="191.38" />
            </Array>
          </mxGeometry>
        </mxCell>
        <mxCell id="d2YbWiwlK6z3USRgEM1a-334" style="edgeStyle=orthogonalEdgeStyle;rounded=0;orthogonalLoop=1;jettySize=auto;html=1;exitX=1;exitY=0.5;exitDx=0;exitDy=0;entryX=1;entryY=0.5;entryDx=0;entryDy=0;entryPerimeter=0;fontFamily=Roboto;fontSource=https%3A%2F%2Ffonts.googleapis.com%2Fcss%3Ffamily%3DRoboto;startArrow=ERone;startFill=0;endArrow=classic;endFill=0;strokeColor=default;" edge="1" parent="0X5DWx-J_k25tCR8zMgC-1" source="0X5DWx-J_k25tCR8zMgC-29" target="d2YbWiwlK6z3USRgEM1a-313">
          <mxGeometry relative="1" as="geometry">
            <Array as="points">
              <mxPoint x="2000" y="222.38" />
              <mxPoint x="2000" y="432.38" />
            </Array>
          </mxGeometry>
        </mxCell>
        <mxCell id="d2YbWiwlK6z3USRgEM1a-341" value="" style="group" vertex="1" connectable="0" parent="0X5DWx-J_k25tCR8zMgC-1">
          <mxGeometry x="1820" y="262.38" width="114" height="215" as="geometry" />
        </mxCell>
        <mxCell id="d2YbWiwlK6z3USRgEM1a-320" value="EMAIL Lead" style="shape=document;whiteSpace=wrap;html=1;boundedLbl=1;fontFamily=Roboto Mono;align=left;labelPosition=center;verticalLabelPosition=top;verticalAlign=bottom;fontSource=https://fonts.googleapis.com/css?family=Roboto+Mono;" vertex="1" parent="d2YbWiwlK6z3USRgEM1a-341">
          <mxGeometry x="6" width="100" height="80" as="geometry" />
        </mxCell>
        <mxCell id="d2YbWiwlK6z3USRgEM1a-321" value="CTA" style="html=1;dashed=0;whitespace=wrap;shape=mxgraph.dfd.start;connectable=1;allowArrows=1;fontFamily=Roboto Mono;fontSource=https://fonts.googleapis.com/css?family=Roboto+Mono;" vertex="1" parent="d2YbWiwlK6z3USRgEM1a-341">
          <mxGeometry x="30" y="21.82999999999987" width="60" height="23.42" as="geometry" />
        </mxCell>
        <mxCell id="d2YbWiwlK6z3USRgEM1a-338" value="" style="group" vertex="1" connectable="0" parent="d2YbWiwlK6z3USRgEM1a-341">
          <mxGeometry y="120" width="114" height="95" as="geometry" />
        </mxCell>
        <mxCell id="d2YbWiwlK6z3USRgEM1a-313" value="LANDING" style="whiteSpace=wrap;html=1;shape=mxgraph.basic.document;rounded=0;sketch=0;fontFamily=Roboto Mono;labelPosition=center;verticalLabelPosition=top;align=left;verticalAlign=bottom;fontSource=https://fonts.googleapis.com/css?family=Roboto+Mono;" vertex="1" parent="d2YbWiwlK6z3USRgEM1a-338">
          <mxGeometry x="14" width="100" height="80" as="geometry" />
        </mxCell>
        <mxCell id="d2YbWiwlK6z3USRgEM1a-337" value="sign-up" style="shape=card;whiteSpace=wrap;html=1;fontFamily=Roboto;fontSource=https%3A%2F%2Ffonts.googleapis.com%2Fcss%3Ffamily%3DRoboto;strokeWidth=1;verticalAlign=bottom;spacingBottom=3;" vertex="1" parent="d2YbWiwlK6z3USRgEM1a-338">
          <mxGeometry y="30" width="80" height="65" as="geometry" />
        </mxCell>
        <mxCell id="d2YbWiwlK6z3USRgEM1a-340" style="rounded=0;orthogonalLoop=1;jettySize=auto;html=1;fontFamily=Roboto;fontSource=https%3A%2F%2Ffonts.googleapis.com%2Fcss%3Ffamily%3DRoboto;startArrow=oval;startFill=0;endArrow=classic;endFill=0;strokeColor=default;edgeStyle=orthogonalEdgeStyle;" edge="1" parent="d2YbWiwlK6z3USRgEM1a-341" source="d2YbWiwlK6z3USRgEM1a-321" target="d2YbWiwlK6z3USRgEM1a-337">
          <mxGeometry relative="1" as="geometry">
            <mxPoint x="40" y="34" as="sourcePoint" />
            <Array as="points">
              <mxPoint x="-50" y="34" />
              <mxPoint x="-50" y="180" />
            </Array>
          </mxGeometry>
        </mxCell>
        <mxCell id="d2YbWiwlK6z3USRgEM1a-346" value="yes" style="edgeStyle=orthogonalEdgeStyle;rounded=0;orthogonalLoop=1;jettySize=auto;html=1;exitX=0;exitY=0.5;exitDx=0;exitDy=0;fontFamily=Roboto;fontSource=https%3A%2F%2Ffonts.googleapis.com%2Fcss%3Ffamily%3DRoboto;startArrow=oval;startFill=0;endArrow=classic;endFill=0;strokeColor=default;entryX=1;entryY=0.5;entryDx=0;entryDy=0;" edge="1" parent="0X5DWx-J_k25tCR8zMgC-1" source="d2YbWiwlK6z3USRgEM1a-343" target="d2YbWiwlK6z3USRgEM1a-348">
          <mxGeometry relative="1" as="geometry" />
        </mxCell>
        <mxCell id="d2YbWiwlK6z3USRgEM1a-349" style="edgeStyle=orthogonalEdgeStyle;rounded=0;orthogonalLoop=1;jettySize=auto;html=1;exitX=0.5;exitY=1;exitDx=0;exitDy=0;fontFamily=Roboto;fontSource=https%3A%2F%2Ffonts.googleapis.com%2Fcss%3Ffamily%3DRoboto;fontSize=12;fontColor=default;startArrow=oval;startFill=0;endArrow=classic;endFill=0;strokeColor=default;entryX=0.5;entryY=0;entryDx=0;entryDy=0;" edge="1" parent="0X5DWx-J_k25tCR8zMgC-1" source="d2YbWiwlK6z3USRgEM1a-343" target="d2YbWiwlK6z3USRgEM1a-345">
          <mxGeometry relative="1" as="geometry" />
        </mxCell>
        <mxCell id="d2YbWiwlK6z3USRgEM1a-343" value="does authUser&lt;br&gt;&amp;nbsp;have this&lt;br&gt;membership" style="shape=rhombus;html=1;dashed=0;whitespace=wrap;perimeter=rhombusPerimeter;" vertex="1" parent="0X5DWx-J_k25tCR8zMgC-1">
          <mxGeometry x="2148.04" y="772.38" width="138.5" height="120" as="geometry" />
        </mxCell>
        <mxCell id="d2YbWiwlK6z3USRgEM1a-351" style="edgeStyle=orthogonalEdgeStyle;rounded=0;orthogonalLoop=1;jettySize=auto;html=1;exitX=0.5;exitY=1;exitDx=0;exitDy=0;fontFamily=Roboto;fontSource=https%3A%2F%2Ffonts.googleapis.com%2Fcss%3Ffamily%3DRoboto;fontSize=12;fontColor=default;startArrow=oval;startFill=0;endArrow=classic;endFill=0;strokeColor=default;" edge="1" parent="0X5DWx-J_k25tCR8zMgC-1" source="d2YbWiwlK6z3USRgEM1a-345" target="d2YbWiwlK6z3USRgEM1a-425">
          <mxGeometry relative="1" as="geometry">
            <mxPoint x="1859.9999588559908" y="999.4144827586209" as="targetPoint" />
          </mxGeometry>
        </mxCell>
        <mxCell id="d2YbWiwlK6z3USRgEM1a-352" style="edgeStyle=orthogonalEdgeStyle;rounded=0;orthogonalLoop=1;jettySize=auto;html=1;exitX=1;exitY=0.5;exitDx=0;exitDy=0;fontFamily=Roboto;fontSource=https%3A%2F%2Ffonts.googleapis.com%2Fcss%3Ffamily%3DRoboto;fontSize=12;fontColor=default;startArrow=oval;startFill=0;endArrow=classic;endFill=0;strokeColor=default;entryX=0.5;entryY=1;entryDx=0;entryDy=0;" edge="1" parent="0X5DWx-J_k25tCR8zMgC-1" source="d2YbWiwlK6z3USRgEM1a-345" target="d2YbWiwlK6z3USRgEM1a-353">
          <mxGeometry relative="1" as="geometry" />
        </mxCell>
        <mxCell id="d2YbWiwlK6z3USRgEM1a-345" value="create membership&lt;br&gt;(Onboard)" style="html=1;dashed=0;whitespace=wrap;fontFamily=Roboto;fontSource=https%3A%2F%2Ffonts.googleapis.com%2Fcss%3Ffamily%3DRoboto;" vertex="1" parent="0X5DWx-J_k25tCR8zMgC-1">
          <mxGeometry x="2137.29" y="951.38" width="160" height="35" as="geometry" />
        </mxCell>
        <mxCell id="d2YbWiwlK6z3USRgEM1a-363" style="edgeStyle=orthogonalEdgeStyle;rounded=0;orthogonalLoop=1;jettySize=auto;html=1;exitX=0;exitY=0.5;exitDx=0;exitDy=0;entryX=0.5;entryY=1;entryDx=0;entryDy=0;entryPerimeter=0;fontFamily=Roboto;fontSource=https%3A%2F%2Ffonts.googleapis.com%2Fcss%3Ffamily%3DRoboto;fontSize=12;fontColor=default;startArrow=oval;startFill=0;endArrow=classic;endFill=0;strokeColor=default;" edge="1" parent="0X5DWx-J_k25tCR8zMgC-1" source="d2YbWiwlK6z3USRgEM1a-348" target="d2YbWiwlK6z3USRgEM1a-360">
          <mxGeometry relative="1" as="geometry" />
        </mxCell>
        <mxCell id="d2YbWiwlK6z3USRgEM1a-348" value="send to sign in" style="html=1;dashed=0;whitespace=wrap;fontFamily=Roboto;fontSource=https%3A%2F%2Ffonts.googleapis.com%2Fcss%3Ffamily%3DRoboto;" vertex="1" parent="0X5DWx-J_k25tCR8zMgC-1">
          <mxGeometry x="1910" y="862.38" width="120" height="35" as="geometry" />
        </mxCell>
        <mxCell id="d2YbWiwlK6z3USRgEM1a-354" value="" style="edgeStyle=orthogonalEdgeStyle;rounded=0;orthogonalLoop=1;jettySize=auto;html=1;fontFamily=Roboto;fontSource=https%3A%2F%2Ffonts.googleapis.com%2Fcss%3Ffamily%3DRoboto;fontSize=12;fontColor=default;startArrow=oval;startFill=0;endArrow=classic;endFill=0;strokeColor=default;" edge="1" parent="0X5DWx-J_k25tCR8zMgC-1" source="d2YbWiwlK6z3USRgEM1a-353" target="0X5DWx-J_k25tCR8zMgC-132">
          <mxGeometry relative="1" as="geometry">
            <mxPoint x="2400" y="788.38" as="targetPoint" />
          </mxGeometry>
        </mxCell>
        <mxCell id="d2YbWiwlK6z3USRgEM1a-353" value="update ea auth user" style="html=1;dashed=0;whitespace=wrap;" vertex="1" parent="0X5DWx-J_k25tCR8zMgC-1">
          <mxGeometry x="2320" y="818.38" width="160" height="30" as="geometry" />
        </mxCell>
        <mxCell id="d2YbWiwlK6z3USRgEM1a-358" value="" style="group" vertex="1" connectable="0" parent="0X5DWx-J_k25tCR8zMgC-1">
          <mxGeometry x="1796" y="742.38" width="114" height="95" as="geometry" />
        </mxCell>
        <mxCell id="d2YbWiwlK6z3USRgEM1a-359" value="LANDING" style="whiteSpace=wrap;html=1;shape=mxgraph.basic.document;rounded=0;sketch=0;fontFamily=Roboto Mono;labelPosition=center;verticalLabelPosition=top;align=left;verticalAlign=bottom;fontSource=https://fonts.googleapis.com/css?family=Roboto+Mono;" vertex="1" parent="d2YbWiwlK6z3USRgEM1a-358">
          <mxGeometry x="14" width="100" height="80" as="geometry" />
        </mxCell>
        <mxCell id="d2YbWiwlK6z3USRgEM1a-360" value="sign-in" style="shape=card;whiteSpace=wrap;html=1;fontFamily=Roboto;fontSource=https%3A%2F%2Ffonts.googleapis.com%2Fcss%3Ffamily%3DRoboto;strokeWidth=1;verticalAlign=bottom;spacingBottom=3;" vertex="1" parent="d2YbWiwlK6z3USRgEM1a-358">
          <mxGeometry y="30" width="80" height="65" as="geometry" />
        </mxCell>
        <mxCell id="d2YbWiwlK6z3USRgEM1a-362" style="edgeStyle=orthogonalEdgeStyle;rounded=0;orthogonalLoop=1;jettySize=auto;html=1;exitX=1;exitY=0.5;exitDx=0;exitDy=0;exitPerimeter=0;fontFamily=Roboto;fontSource=https%3A%2F%2Ffonts.googleapis.com%2Fcss%3Ffamily%3DRoboto;fontSize=12;fontColor=default;startArrow=oval;startFill=0;endArrow=classic;endFill=0;strokeColor=default;" edge="1" parent="0X5DWx-J_k25tCR8zMgC-1" source="d2YbWiwlK6z3USRgEM1a-359" target="0X5DWx-J_k25tCR8zMgC-226">
          <mxGeometry relative="1" as="geometry">
            <Array as="points">
              <mxPoint x="2010" y="732.38" />
            </Array>
          </mxGeometry>
        </mxCell>
        <mxCell id="d2YbWiwlK6z3USRgEM1a-369" value="" style="group" vertex="1" connectable="0" parent="0X5DWx-J_k25tCR8zMgC-1">
          <mxGeometry x="1390" y="600.0000000000002" width="90" height="90" as="geometry" />
        </mxCell>
        <mxCell id="d2YbWiwlK6z3USRgEM1a-370" value="BOT" style="shape=hexagon;perimeter=hexagonPerimeter2;whiteSpace=wrap;html=1;fixedSize=1;direction=south;strokeWidth=2;fontFamily=Roboto Mono;verticalAlign=bottom;spacingTop=17;labelPosition=center;verticalLabelPosition=middle;align=center;spacingBottom=16;fontSize=11;fillColor=#d5e8d4;strokeColor=#82b366;fontSource=https%3A%2F%2Ffonts.googleapis.com%2Fcss%3Ffamily%3DRoboto%2BMono;points=[[0,0],[0,0.25],[0,0.5],[0,0.75],[0,1],[0.25,0],[0.5,0],[0.75,0],[0,1],[1,0],[1,0.25],[1,0.5],[1,0.75],[0.25,1],[0.5,1],[0.75,1],[1,1]];snapToPoint=1;" vertex="1" parent="d2YbWiwlK6z3USRgEM1a-369">
          <mxGeometry width="90" height="90" as="geometry" />
        </mxCell>
        <mxCell id="d2YbWiwlK6z3USRgEM1a-371" value="" style="shape=image;verticalLabelPosition=bottom;verticalAlign=top;imageAspect=0;image=data:image/svg+xml,PHN2ZyB4bWxucz0iaHR0cDovL3d3dy53My5vcmcvMjAwMC9zdmciIHdpZHRoPSI3MSIgaGVpZ2h0PSI1NC4xMTc2MjIzNzU0ODgyOCIgdmlld0JveD0iMC4wMDAwMDE5MDczNDg2MzI4MTI1IDAuNDExNzQ0NTM0OTY5MzI5ODMgNzEgNTQuMTE3NjIyMzc1NDg4MjgiIGZpbGw9Im5vbmUiPiYjeGE7PGcgY2xpcC1wYXRoPSJ1cmwoI2NsaXAwKSI+JiN4YTs8cGF0aCBkPSJNNjAuMTA0NSA0Ljg5NzhDNTUuNTc5MiAyLjgyMTQgNTAuNzI2NSAxLjI5MTYgNDUuNjUyNyAwLjQxNTQyQzQ1LjU2MDMgMC4zOTg1MSA0NS40NjggMC40NDA3NjkgNDUuNDIwNCAwLjUyNTI4OUM0NC43OTYzIDEuNjM1MyA0NC4xMDUgMy4wODM0IDQzLjYyMDkgNC4yMjE2QzM4LjE2MzcgMy40MDQ2IDMyLjczNDUgMy40MDQ2IDI3LjM4OTIgNC4yMjE2QzI2LjkwNSAzLjA1ODEgMjYuMTg4NiAxLjYzNTMgMjUuNTYxNyAwLjUyNTI4OUMyNS41MTQxIDAuNDQzNTg5IDI1LjQyMTggMC40MDEzMyAyNS4zMjk0IDAuNDE1NDJDMjAuMjU4NCAxLjI4ODggMTUuNDA1NyAyLjgxODYgMTAuODc3NiA0Ljg5NzhDMTAuODM4NCA0LjkxNDcgMTAuODA0OCA0Ljk0MjkgMTAuNzgyNSA0Ljk3OTVDMS41Nzc5NSAxOC43MzA5IC0wLjk0MzU2MSAzMi4xNDQzIDAuMjkzNDA4IDQ1LjM5MTRDMC4yOTkwMDUgNDUuNDU2MiAwLjMzNTM4NiA0NS41MTgyIDAuMzg1NzYxIDQ1LjU1NzZDNi40NTg2NiA1MC4wMTc0IDEyLjM0MTMgNTIuNzI0OSAxOC4xMTQ3IDU0LjUxOTVDMTguMjA3MSA1NC41NDc3IDE4LjMwNSA1NC41MTM5IDE4LjM2MzggNTQuNDM3OEMxOS43Mjk1IDUyLjU3MjggMjAuOTQ2OSA1MC42MDYzIDIxLjk5MDcgNDguNTM4M0MyMi4wNTIzIDQ4LjQxNzIgMjEuOTkzNSA0OC4yNzM1IDIxLjg2NzYgNDguMjI1NkMxOS45MzY2IDQ3LjQ5MzEgMTguMDk3OSA0Ni42IDE2LjMyOTIgNDUuNTg1OEMxNi4xODkzIDQ1LjUwNDEgMTYuMTc4MSA0NS4zMDQgMTYuMzA2OCA0NS4yMDgyQzE2LjY3OSA0NC45MjkzIDE3LjA1MTMgNDQuNjM5MSAxNy40MDY3IDQ0LjM0NjFDMTcuNDcxIDQ0LjI5MjYgMTcuNTYwNiA0NC4yODEzIDE3LjYzNjIgNDQuMzE1MUMyOS4yNTU4IDQ5LjYyMDIgNDEuODM1NCA0OS42MjAyIDUzLjMxNzkgNDQuMzE1MUM1My4zOTM1IDQ0LjI3ODUgNTMuNDgzMSA0NC4yODk4IDUzLjU1MDIgNDQuMzQzM0M1My45MDU3IDQ0LjYzNjMgNTQuMjc3OSA0NC45MjkzIDU0LjY1MjkgNDUuMjA4MkM1NC43ODE2IDQ1LjMwNCA1NC43NzMyIDQ1LjUwNDEgNTQuNjMzMyA0NS41ODU4QzUyLjg2NDYgNDYuNjE5NyA1MS4wMjU5IDQ3LjQ5MzEgNDkuMDkyMSA0OC4yMjI4QzQ4Ljk2NjIgNDguMjcwNyA0OC45MTAyIDQ4LjQxNzIgNDguOTcxOCA0OC41MzgzQzUwLjAzOCA1MC42MDM0IDUxLjI1NTQgNTIuNTY5OSA1Mi41OTU5IDU0LjQzNUM1Mi42NTE5IDU0LjUxMzkgNTIuNzUyNiA1NC41NDc3IDUyLjg0NSA1NC41MTk1QzU4LjY0NjQgNTIuNzI0OSA2NC41MjkgNTAuMDE3NCA3MC42MDE5IDQ1LjU1NzZDNzAuNjU1MSA0NS41MTgyIDcwLjY4ODcgNDUuNDU5IDcwLjY5NDMgNDUuMzk0MkM3Mi4xNzQ3IDMwLjA3OTEgNjguMjE0NyAxNi43NzU3IDYwLjE5NjggNC45ODIzQzYwLjE3NzIgNC45NDI5IDYwLjE0MzcgNC45MTQ3IDYwLjEwNDUgNC44OTc4Wk0yMy43MjU5IDM3LjMyNTNDMjAuMjI3NiAzNy4zMjUzIDE3LjM0NTEgMzQuMTEzNiAxNy4zNDUxIDMwLjE2OTNDMTcuMzQ1MSAyNi4yMjUgMjAuMTcxNyAyMy4wMTMzIDIzLjcyNTkgMjMuMDEzM0MyNy4zMDggMjMuMDEzMyAzMC4xNjI2IDI2LjI1MzIgMzAuMTA2NiAzMC4xNjkzQzMwLjEwNjYgMzQuMTEzNiAyNy4yOCAzNy4zMjUzIDIzLjcyNTkgMzcuMzI1M1pNNDcuMzE3OCAzNy4zMjUzQzQzLjgxOTYgMzcuMzI1MyA0MC45MzcxIDM0LjExMzYgNDAuOTM3MSAzMC4xNjkzQzQwLjkzNzEgMjYuMjI1IDQzLjc2MzYgMjMuMDEzMyA0Ny4zMTc4IDIzLjAxMzNDNTAuOSAyMy4wMTMzIDUzLjc1NDUgMjYuMjUzMiA1My42OTg2IDMwLjE2OTNDNTMuNjk4NiAzNC4xMTM2IDUwLjkgMzcuMzI1MyA0Ny4zMTc4IDM3LjMyNTNaIiBmaWxsPSIjMjMyNzJBIi8+JiN4YTs8L2c+JiN4YTs8ZGVmcz4mI3hhOzxjbGlwUGF0aCBpZD0iY2xpcDAiPiYjeGE7PHJlY3Qgd2lkdGg9IjcxIiBoZWlnaHQ9IjU1IiBmaWxsPSJ3aGl0ZSIvPiYjeGE7PC9jbGlwUGF0aD4mI3hhOzwvZGVmcz4mI3hhOzwvc3ZnPg==;aspect=fixed;connectable=0;allowArrows=0;" vertex="1" parent="d2YbWiwlK6z3USRgEM1a-369">
          <mxGeometry x="27" y="30" width="31.26" height="23.68" as="geometry" />
        </mxCell>
        <mxCell id="d2YbWiwlK6z3USRgEM1a-390" value="" style="group" vertex="1" connectable="0" parent="0X5DWx-J_k25tCR8zMgC-1">
          <mxGeometry x="2317.31" y="462.38" width="120" height="130" as="geometry" />
        </mxCell>
        <mxCell id="d2YbWiwlK6z3USRgEM1a-389" value="TERMS &amp;amp; COND" style="rounded=0;whiteSpace=wrap;html=1;dashed=0;fontFamily=Roboto;fontSource=https%3A%2F%2Ffonts.googleapis.com%2Fcss%3Ffamily%3DRoboto;fontSize=12;verticalAlign=top;container=0;expand=0;collapsible=0;" vertex="1" parent="d2YbWiwlK6z3USRgEM1a-390">
          <mxGeometry width="120" height="130" as="geometry" />
        </mxCell>
        <mxCell id="d2YbWiwlK6z3USRgEM1a-385" value="ELEVATE" style="rounded=0;whiteSpace=wrap;html=1;sketch=0;dashed=1;labelPosition=center;verticalLabelPosition=middle;align=center;verticalAlign=middle;fontFamily=Roboto Mono;fontSize=14;strokeColor=#9673a6;fontStyle=0;strokeWidth=1;fontSource=https://fonts.googleapis.com/css?family=Roboto+Mono;fillColor=#e1d5e7;" vertex="1" parent="d2YbWiwlK6z3USRgEM1a-390">
          <mxGeometry x="10" y="58.75" width="100" height="24" as="geometry" />
        </mxCell>
        <mxCell id="d2YbWiwlK6z3USRgEM1a-386" value="EXCELERATE" style="rounded=0;whiteSpace=wrap;html=1;sketch=0;dashed=1;labelPosition=center;verticalLabelPosition=middle;align=center;verticalAlign=middle;fontFamily=Roboto Mono;fontSize=14;strokeColor=#d6b656;fontStyle=0;strokeWidth=1;fontSource=https://fonts.googleapis.com/css?family=Roboto+Mono;fillColor=#fff2cc;" vertex="1" parent="d2YbWiwlK6z3USRgEM1a-390">
          <mxGeometry x="10" y="88.75" width="100" height="24" as="geometry" />
        </mxCell>
        <mxCell id="d2YbWiwlK6z3USRgEM1a-387" value="REP HUB" style="rounded=0;whiteSpace=wrap;html=1;sketch=0;dashed=1;labelPosition=center;verticalLabelPosition=middle;align=center;verticalAlign=middle;fontFamily=Roboto Mono;fontSize=14;strokeColor=#b46504;fontStyle=0;strokeWidth=1;fontSource=https://fonts.googleapis.com/css?family=Roboto+Mono;fillColor=#fad7ac;" vertex="1" parent="d2YbWiwlK6z3USRgEM1a-390">
          <mxGeometry x="10" y="30" width="100" height="24" as="geometry" />
        </mxCell>
        <mxCell id="d2YbWiwlK6z3USRgEM1a-391" style="edgeStyle=orthogonalEdgeStyle;rounded=0;orthogonalLoop=1;jettySize=auto;html=1;exitX=0.5;exitY=1;exitDx=0;exitDy=0;exitPerimeter=0;entryX=0;entryY=0.25;entryDx=0;entryDy=0;fontFamily=Roboto;fontSource=https%3A%2F%2Ffonts.googleapis.com%2Fcss%3Ffamily%3DRoboto;fontSize=12;fontColor=default;startArrow=oval;startFill=0;endArrow=classic;endFill=0;strokeColor=default;" edge="1" parent="0X5DWx-J_k25tCR8zMgC-1" source="d2YbWiwlK6z3USRgEM1a-337" target="d2YbWiwlK6z3USRgEM1a-389">
          <mxGeometry relative="1" as="geometry" />
        </mxCell>
        <mxCell id="d2YbWiwlK6z3USRgEM1a-392" style="edgeStyle=orthogonalEdgeStyle;rounded=0;orthogonalLoop=1;jettySize=auto;html=1;exitX=0;exitY=0.5;exitDx=0;exitDy=0;fontFamily=Roboto;fontSource=https%3A%2F%2Ffonts.googleapis.com%2Fcss%3Ffamily%3DRoboto;fontSize=12;fontColor=default;startArrow=oval;startFill=0;endArrow=classic;endFill=0;strokeColor=default;" edge="1" parent="0X5DWx-J_k25tCR8zMgC-1" source="0X5DWx-J_k25tCR8zMgC-226" target="d2YbWiwlK6z3USRgEM1a-389">
          <mxGeometry relative="1" as="geometry" />
        </mxCell>
        <mxCell id="d2YbWiwlK6z3USRgEM1a-397" value="" style="group" vertex="1" connectable="0" parent="0X5DWx-J_k25tCR8zMgC-1">
          <mxGeometry x="2470" y="262.38" width="93" height="93" as="geometry" />
        </mxCell>
        <mxCell id="d2YbWiwlK6z3USRgEM1a-396" value="LIST" style="whiteSpace=wrap;html=1;aspect=fixed;dashed=0;fontFamily=Roboto;fontSource=https%3A%2F%2Ffonts.googleapis.com%2Fcss%3Ffamily%3DRoboto;fontSize=12;verticalAlign=top;" vertex="1" parent="d2YbWiwlK6z3USRgEM1a-397">
          <mxGeometry width="93" height="93" as="geometry" />
        </mxCell>
        <mxCell id="d2YbWiwlK6z3USRgEM1a-394" value="" style="sketch=0;pointerEvents=1;shadow=0;dashed=0;html=1;strokeColor=none;fillColor=#505050;labelPosition=center;verticalLabelPosition=bottom;verticalAlign=top;outlineConnect=0;align=center;shape=mxgraph.office.communications.global_address_list;fontFamily=Roboto;fontSource=https%3A%2F%2Ffonts.googleapis.com%2Fcss%3Ffamily%3DRoboto;fontSize=12;fontColor=default;" vertex="1" parent="d2YbWiwlK6z3USRgEM1a-397">
          <mxGeometry x="11" y="30" width="59" height="53" as="geometry" />
        </mxCell>
        <mxCell id="d2YbWiwlK6z3USRgEM1a-398" style="edgeStyle=orthogonalEdgeStyle;rounded=0;orthogonalLoop=1;jettySize=auto;html=1;exitX=0.5;exitY=0;exitDx=0;exitDy=0;fontFamily=Roboto;fontSource=https%3A%2F%2Ffonts.googleapis.com%2Fcss%3Ffamily%3DRoboto;fontSize=12;fontColor=default;startArrow=oval;startFill=0;endArrow=classic;endFill=0;strokeColor=default;" edge="1" parent="0X5DWx-J_k25tCR8zMgC-1" source="0X5DWx-J_k25tCR8zMgC-84" target="d2YbWiwlK6z3USRgEM1a-394">
          <mxGeometry relative="1" as="geometry" />
        </mxCell>
        <mxCell id="d2YbWiwlK6z3USRgEM1a-399" style="edgeStyle=orthogonalEdgeStyle;rounded=0;orthogonalLoop=1;jettySize=auto;html=1;exitX=0.5;exitY=1;exitDx=0;exitDy=0;fontFamily=Roboto;fontSource=https%3A%2F%2Ffonts.googleapis.com%2Fcss%3Ffamily%3DRoboto;fontSize=12;fontColor=default;startArrow=oval;startFill=0;endArrow=classic;endFill=0;strokeColor=default;jumpStyle=arc;" edge="1" parent="0X5DWx-J_k25tCR8zMgC-1" source="0X5DWx-J_k25tCR8zMgC-32" target="d2YbWiwlK6z3USRgEM1a-320">
          <mxGeometry relative="1" as="geometry" />
        </mxCell>
        <mxCell id="d2YbWiwlK6z3USRgEM1a-400" style="edgeStyle=orthogonalEdgeStyle;rounded=0;jumpStyle=arc;orthogonalLoop=1;jettySize=auto;html=1;exitX=0.06;exitY=0.5;exitDx=0;exitDy=0;exitPerimeter=0;entryX=1;entryY=0.5;entryDx=0;entryDy=0;fontFamily=Roboto;fontSource=https%3A%2F%2Ffonts.googleapis.com%2Fcss%3Ffamily%3DRoboto;fontSize=12;fontColor=default;startArrow=oval;startFill=0;endArrow=classic;endFill=0;strokeColor=default;" edge="1" parent="0X5DWx-J_k25tCR8zMgC-1" source="d2YbWiwlK6z3USRgEM1a-395" target="0X5DWx-J_k25tCR8zMgC-23">
          <mxGeometry relative="1" as="geometry" />
        </mxCell>
        <mxCell id="d2YbWiwlK6z3USRgEM1a-395" value="" style="outlineConnect=0;dashed=0;verticalLabelPosition=bottom;verticalAlign=top;align=center;html=1;shape=mxgraph.aws3.bucket_with_objects;fillColor=#D4E1F5;gradientColor=none;fontFamily=Roboto;fontSource=https%3A%2F%2Ffonts.googleapis.com%2Fcss%3Ffamily%3DRoboto;fontSize=12;fontColor=default;strokeColor=default;" vertex="1" parent="0X5DWx-J_k25tCR8zMgC-1">
          <mxGeometry x="2504.62" y="132.38" width="60" height="61.5" as="geometry" />
        </mxCell>
        <mxCell id="d2YbWiwlK6z3USRgEM1a-410" value="" style="group" vertex="1" connectable="0" parent="0X5DWx-J_k25tCR8zMgC-1">
          <mxGeometry x="1540" y="892.38" width="116.05999999999995" height="130" as="geometry" />
        </mxCell>
        <mxCell id="0X5DWx-J_k25tCR8zMgC-5" value="ELEVATE" style="rounded=0;whiteSpace=wrap;html=1;sketch=0;dashed=1;labelPosition=center;verticalLabelPosition=top;align=left;verticalAlign=bottom;fontFamily=Roboto Mono;fontSize=14;strokeColor=#9673a6;fontStyle=0;strokeWidth=1;fontSource=https://fonts.googleapis.com/css?family=Roboto+Mono;fillColor=#e1d5e7;" parent="d2YbWiwlK6z3USRgEM1a-410" vertex="1">
          <mxGeometry width="89.94" height="130" as="geometry" />
        </mxCell>
        <mxCell id="d2YbWiwlK6z3USRgEM1a-366" value="HOME" style="whiteSpace=wrap;html=1;shape=mxgraph.basic.document;rounded=0;sketch=0;fontFamily=Roboto Mono;labelPosition=center;verticalLabelPosition=middle;align=center;verticalAlign=middle;fontSource=https://fonts.googleapis.com/css?family=Roboto+Mono;" vertex="1" parent="d2YbWiwlK6z3USRgEM1a-410">
          <mxGeometry x="16.059999999999945" y="25.549999999999955" width="100" height="43.9" as="geometry" />
        </mxCell>
        <mxCell id="d2YbWiwlK6z3USRgEM1a-403" value="CONTINUE&lt;br&gt;ONBOARDING" style="whiteSpace=wrap;html=1;shape=mxgraph.basic.document;rounded=0;sketch=0;fontFamily=Roboto Mono;labelPosition=center;verticalLabelPosition=middle;align=center;verticalAlign=middle;fontSource=https://fonts.googleapis.com/css?family=Roboto+Mono;" vertex="1" parent="d2YbWiwlK6z3USRgEM1a-410">
          <mxGeometry x="16.059999999999945" y="78.75" width="100" height="43.9" as="geometry" />
        </mxCell>
        <mxCell id="d2YbWiwlK6z3USRgEM1a-418" value="" style="group" vertex="1" connectable="0" parent="0X5DWx-J_k25tCR8zMgC-1">
          <mxGeometry x="1540" y="722.38" width="116.05999999999995" height="130" as="geometry" />
        </mxCell>
        <mxCell id="d2YbWiwlK6z3USRgEM1a-412" value="REP HUB" style="rounded=0;whiteSpace=wrap;html=1;sketch=0;dashed=1;labelPosition=center;verticalLabelPosition=top;align=left;verticalAlign=bottom;fontFamily=Roboto Mono;fontSize=14;strokeColor=#d79b00;fontStyle=0;strokeWidth=1;fontSource=https://fonts.googleapis.com/css?family=Roboto+Mono;fillColor=#ffe6cc;" vertex="1" parent="d2YbWiwlK6z3USRgEM1a-418">
          <mxGeometry width="89.94" height="130" as="geometry" />
        </mxCell>
        <mxCell id="d2YbWiwlK6z3USRgEM1a-413" value="HOME" style="whiteSpace=wrap;html=1;shape=mxgraph.basic.document;rounded=0;sketch=0;fontFamily=Roboto Mono;labelPosition=center;verticalLabelPosition=middle;align=center;verticalAlign=middle;fontSource=https://fonts.googleapis.com/css?family=Roboto+Mono;" vertex="1" parent="d2YbWiwlK6z3USRgEM1a-418">
          <mxGeometry x="16.059999999999945" y="25.549999999999955" width="100" height="43.9" as="geometry" />
        </mxCell>
        <mxCell id="d2YbWiwlK6z3USRgEM1a-414" value="CONTINUE&lt;br&gt;ONBOARDING" style="whiteSpace=wrap;html=1;shape=mxgraph.basic.document;rounded=0;sketch=0;fontFamily=Roboto Mono;labelPosition=center;verticalLabelPosition=middle;align=center;verticalAlign=middle;fontSource=https://fonts.googleapis.com/css?family=Roboto+Mono;" vertex="1" parent="d2YbWiwlK6z3USRgEM1a-418">
          <mxGeometry x="16.059999999999945" y="78.75" width="100" height="43.9" as="geometry" />
        </mxCell>
        <mxCell id="d2YbWiwlK6z3USRgEM1a-416" value="HOME" style="whiteSpace=wrap;html=1;shape=mxgraph.basic.document;rounded=0;sketch=0;fontFamily=Roboto Mono;labelPosition=center;verticalLabelPosition=middle;align=center;verticalAlign=middle;fontSource=https://fonts.googleapis.com/css?family=Roboto+Mono;" vertex="1" parent="0X5DWx-J_k25tCR8zMgC-1">
          <mxGeometry x="1543.0299999999997" y="558.3799999999999" width="100" height="43.9" as="geometry" />
        </mxCell>
        <mxCell id="d2YbWiwlK6z3USRgEM1a-376" value="" style="shape=image;verticalLabelPosition=bottom;verticalAlign=top;aspect=fixed;imageAspect=0;image=data:image/svg+xml,PHN2ZyB4bWxucz0iaHR0cDovL3d3dy53My5vcmcvMjAwMC9zdmciIHdpZHRoPSIxNSIgaGVpZ2h0PSIxMi44NTczMDc0MzQwODIwMzEiIHZpZXdCb3g9Ii00Ljc2ODM3MTU4MjAzMTI1ZS03IDEuMDcxMjkzMjM0ODI1MTM0MyAxNSAxMi44NTczMDc0MzQwODIwMzEiIGZpbGw9Im5vbmUiPiYjeGE7PHBhdGggZD0iTTQuNDE5NjQgNy43Mjc0NEM0LjQxOTY0IDcuMTkzMDIgNC44MDI0OCA2LjgzNzcxIDUuMTkzNzYgNi44Mzc3MUM1LjU5MjYxIDYuODM3NzEgNS45NzY1OCA3LjE5OTU4IDUuOTY4MDMgNy43MTg2Mkw1Ljk2Nzk2IDcuNzI3NDRDNS45Njc5NiA4LjI2MTk1IDUuNTg1MTIgOC42MTcyNiA1LjE5Mzc2IDguNjE3MjZDNC44MTIwNyA4LjYxNzI2IDQuNDE5NjQgOC4yNTg0MiA0LjQxOTY0IDcuNzI3NDRaIiBmaWxsPSJibGFjayIvPiYjeGE7PHBhdGggZD0iTTkuMTA3MDIgNy43Mjc0NEM5LjEwNzAyIDcuNDQ0NzQgOS4xOTMwOSA3LjI0Nzc3IDkuMzAxMzkgNy4xMjgwMUM5LjQwNTIyIDcuMDEzMTggOS41NjA5IDYuOTMzMTcgOS43ODU4NSA2LjkzMzE3QzEwLjE3NzEgNi45MzMxNyAxMC41NiA3LjI4ODQ4IDEwLjU2IDcuODIyOTFDMTAuNTYgOC4zNTc0NCAxMC4xNzcxIDguNzEyNzMgOS43ODU4NSA4LjcxMjczQzkuNjI2NTUgOC43MTI3MyA5LjQ2OTg2IDguNjM1MTggOS4zMzYgOC40NTgzN0M5LjE5ODQ0IDguMjc2NjcgOS4xMDcwMiA4LjAxMjI1IDkuMTA3MDIgNy43Mjc0NFoiIGZpbGw9ImJsYWNrIi8+JiN4YTs8cGF0aCBmaWxsLXJ1bGU9ImV2ZW5vZGQiIGNsaXAtcnVsZT0iZXZlbm9kZCIgZD0iTTMuNzk5MyAxMi4xNDE4QzQuMDc2ODcgMTIuMjUwMSA0LjM4MzEyIDEyLjM1ODkgNC43MTc3OCAxMi40NTkyQzQuMTI4MjEgMTMuMDcxNCAzLjIxNDI5IDEzLjkyODYgMy4yMTQyOSAxMy45Mjg2QzAuMzc2MDMgMTMuODM4NyAwIDExLjUxNDIgMCAxMS41MTQyQzAgNy4zNzg5OCAxLjg0OTMgMi40MTk4NSAxLjg0OTMgMi40MTk4NUMzLjY5ODYgMS4wMzI4NiA1LjQ1OCAxLjA3MTQgNS40NTggMS4wNzE0TDUuNjIwOTMgMi4xNjcwMUM0Ljc2ODc1IDIuMzkzNyAzLjg5NTI0IDIuNzY4NDIgMi45NTc4MSAzLjI3OTY3TDMuNDcwODEgNC4yMjAzQzUuMDE2OTYgMy4zNzcwOCA2LjI3NjEyIDIuOTgzNjUgNy41MDI1NCAyLjk4MzA0QzguNzI4NjQgMi45ODI0MyA5Ljk4NTkyIDMuMzc0NDMgMTEuNTI4MyA0LjIxOTc3TDEyLjA0MzIgMy4yODAyQzExLjA2MDEgMi43NDEzOSAxMC4xNDcxIDIuMzU0NzQgOS4yNTQ4MiAyLjEzMjY3TDkuNTQxOTEgMS4wNzE0OEM5LjU0MTkxIDEuMDcxNDggMTEuMzAxMyAxLjAzMjg2IDEzLjE1MDYgMi40MTk5NEMxMy4xNTA2IDIuNDE5OTQgMTUgNy4zNzg5OCAxNSAxMS41MTQyQzE1IDExLjUxNDIgMTQuNjIzOSAxMy44Mzg3IDExLjc4NTcgMTMuOTI4NkMxMS43ODU3IDEzLjkyODYgMTAuOTMyMyAxMy4wODY5IDEwLjM2ODIgMTIuNDgwM0MxMC42NjQzIDEyLjM4OTQgMTAuOTYzNyAxMi4yODA5IDExLjI2NzMgMTIuMTUzN0MxMS43NTIgMTEuOTcyOSAxMi4yODU0IDExLjcxMTYgMTIuODQxNyAxMS4zNDUyTDEyLjI1MjQgMTAuNDUwNEMxMS43NTk4IDEwLjc3NDggMTEuMjk1MyAxMS4wMDA1IDEwLjg4MzggMTEuMTUzMkwxMC44NzcgMTEuMTU1N0wxMC44NzE3IDExLjE1NzhMMTAuODYyNyAxMS4xNjE1QzEwLjI1NTcgMTEuNDE2NiA5LjY3ODU3IDExLjU4NDEgOS4xMTgxMiAxMS42Nzk2TDkuMTA5MzUgMTEuNjgxMkM3Ljk1NDIyIDExLjg5NzcgNi44OTI2NSAxMS44Mzg1IDUuOTgxNzUgMTEuNjY4NkM1LjI4OTcgMTEuNTM0OCA0LjY5Mjg2IDExLjM0MDMgNC4xODkyOSAxMS4xNDM4QzMuNjg1NDMgMTAuOTQ2NiAzLjI1NDMyIDEwLjczODEgMi44MzcxNiAxMC40NDYxTDIuMjIyNzcgMTEuMzIzOUMyLjczMjc0IDExLjY4MDggMy4yNDc0MyAxMS45MjU4IDMuNzk4NzkgMTIuMTQxNkwzLjc5OTMgMTIuMTQxOFpNNS4xOTM3NiA1Ljc2NjI4QzQuMTIxMDUgNS43NjYyOCAzLjM0ODIxIDYuNjk1MTYgMy4zNDgyMSA3LjcyNzQ0QzMuMzQ4MjEgOC43NjMzMyA0LjEzNzA5IDkuNjg4NjkgNS4xOTM3NiA5LjY4ODY5QzYuMjY1MDMgOS42ODg2OSA3LjAzNzE5IDguNzYyNDQgNy4wMzkzOCA3LjczMTgzQzcuMDU0MzMgNi42ODU5OSA2LjI1NzM5IDUuNzY2MjggNS4xOTM3NiA1Ljc2NjI4Wk05Ljc4NTg1IDUuODYxNzRDOS4yNzg3MSA1Ljg2MTc0IDguODI3MTIgNi4wNTUwNSA4LjUwNjcgNi40MDkzOEM4LjE5MDc1IDYuNzU4NzcgOC4wMzU1OSA3LjIyNjc4IDguMDM1NTkgNy43Mjc0NEM4LjAzNTU5IDguMjI2MDYgOC4xOTE4NSA4LjcyMjE1IDguNDgxNzcgOS4xMDUwOUM4Ljc3NTM4IDkuNDkyOTIgOS4yMjU5NyA5Ljc4NDE2IDkuNzg1ODUgOS43ODQxNkMxMC44NTg2IDkuNzg0MTYgMTEuNjMxNCA4Ljg1NTI1IDExLjYzMTQgNy44MjI5MUMxMS42MzE0IDYuNzkwNjIgMTAuODU4NiA1Ljg2MTc0IDkuNzg1ODUgNS44NjE3NFoiIGZpbGw9ImJsYWNrIi8+JiN4YTs8L3N2Zz4=;shadow=0;fontFamily=Roboto;fontSource=https%3A%2F%2Ffonts.googleapis.com%2Fcss%3Ffamily%3DRoboto;fillColor=#FFFFFF;container=0;" vertex="1" parent="0X5DWx-J_k25tCR8zMgC-1">
          <mxGeometry x="1501.06" y="628.1300000000001" width="30" height="26" as="geometry" />
        </mxCell>
        <mxCell id="d2YbWiwlK6z3USRgEM1a-420" style="edgeStyle=orthogonalEdgeStyle;rounded=0;jumpStyle=arc;orthogonalLoop=1;jettySize=auto;html=1;exitX=0.302;exitY=0.989;exitDx=0;exitDy=0;entryX=1;entryY=0.5;entryDx=0;entryDy=0;entryPerimeter=0;fontFamily=Roboto;fontSource=https%3A%2F%2Ffonts.googleapis.com%2Fcss%3Ffamily%3DRoboto;fontSize=12;fontColor=default;startArrow=oval;startFill=0;endArrow=classic;endFill=0;strokeColor=default;exitPerimeter=0;" edge="1" parent="0X5DWx-J_k25tCR8zMgC-1" source="0X5DWx-J_k25tCR8zMgC-226" target="d2YbWiwlK6z3USRgEM1a-416">
          <mxGeometry relative="1" as="geometry" />
        </mxCell>
        <mxCell id="d2YbWiwlK6z3USRgEM1a-422" value="connect&amp;nbsp;&lt;br&gt;vendor" style="html=1;dashed=0;whitespace=wrap;" vertex="1" parent="0X5DWx-J_k25tCR8zMgC-1">
          <mxGeometry x="2080" y="1425.6200000000001" width="100" height="50" as="geometry" />
        </mxCell>
        <mxCell id="d2YbWiwlK6z3USRgEM1a-1" value="&lt;font color=&quot;#172b4d&quot;&gt;&lt;span style=&quot;font-size: 11px ; line-height: 1&quot;&gt;teamAccounts&lt;br&gt;&lt;/span&gt;&lt;/font&gt;" style="whiteSpace=wrap;html=1;fontFamily=Roboto Mono;align=left;fontSize=14;spacingLeft=8;dashed=1;dashPattern=1 1;fontSource=https%3A%2F%2Ffonts.googleapis.com%2Fcss%3Ffamily%3DRoboto%2BMono;spacing=0;spacingBottom=4;" vertex="1" parent="0X5DWx-J_k25tCR8zMgC-1">
          <mxGeometry x="2321.9307562076747" y="1304.6200000000001" width="180" height="40" as="geometry" />
        </mxCell>
        <mxCell id="d2YbWiwlK6z3USRgEM1a-2" value="" style="group" vertex="1" connectable="0" parent="0X5DWx-J_k25tCR8zMgC-1">
          <mxGeometry x="2267.31" y="1304.6200000000001" width="45" height="40" as="geometry" />
        </mxCell>
        <mxCell id="d2YbWiwlK6z3USRgEM1a-3" value="" style="whiteSpace=wrap;html=1;dashed=1;dashPattern=1 1;fontFamily=Roboto Mono;fontSource=https%3A%2F%2Ffonts.googleapis.com%2Fcss%3Ffamily%3DRoboto%2BMono;strokeWidth=1;fillColor=none;align=left;verticalAlign=middle;noLabel=1;connectable=1;allowArrows=1;snapToPoint=1;" vertex="1" parent="d2YbWiwlK6z3USRgEM1a-2">
          <mxGeometry width="45" height="40" as="geometry" />
        </mxCell>
        <mxCell id="d2YbWiwlK6z3USRgEM1a-4" value="" style="group;noLabel=1;allowArrows=0;" vertex="1" connectable="0" parent="d2YbWiwlK6z3USRgEM1a-2">
          <mxGeometry x="7.5" y="3.6000000000000227" width="30" height="32.799999999999955" as="geometry" />
        </mxCell>
        <mxCell id="d2YbWiwlK6z3USRgEM1a-5" value="&lt;pre&gt;&lt;br&gt;&lt;/pre&gt;" style="dashed=0;connectable=0;html=1;strokeColor=none;shape=mxgraph.gcp2.report;part=1;labelPosition=center;verticalLabelPosition=top;align=center;verticalAlign=middle;fontFamily=Roboto Mono;fontSource=https%3A%2F%2Ffonts.googleapis.com%2Fcss%3Ffamily%3DRoboto%2BMono;spacingTop=6;allowArrows=0;dashPattern=1 1;fillColor=#f0a30a;fontColor=#000000;" vertex="1" parent="d2YbWiwlK6z3USRgEM1a-4">
          <mxGeometry y="8.799999999999955" width="30" height="24" as="geometry" />
        </mxCell>
        <mxCell id="d2YbWiwlK6z3USRgEM1a-6" value="&lt;b style=&quot;font-size: 8px&quot;&gt;&lt;font color=&quot;#ffffff&quot; style=&quot;font-size: 8px&quot;&gt;FSDB&lt;/font&gt;&lt;/b&gt;" style="whiteSpace=wrap;html=1;fontFamily=Roboto Mono;fontSource=https%3A%2F%2Ffonts.googleapis.com%2Fcss%3Ffamily%3DRoboto%2BMono;fontSize=8;strokeWidth=1;verticalAlign=middle;strokeColor=none;connectable=0;allowArrows=0;dashed=1;dashPattern=1 1;fillColor=#f0a30a;fontColor=#000000;" vertex="1" parent="d2YbWiwlK6z3USRgEM1a-4">
          <mxGeometry width="30" height="10.6" as="geometry" />
        </mxCell>
        <mxCell id="d2YbWiwlK6z3USRgEM1a-135" value="connectedAccounts" style="swimlane;fontStyle=0;childLayout=stackLayout;horizontal=1;startSize=26;horizontalStack=0;resizeParent=1;resizeParentMax=0;resizeLast=0;collapsible=0;marginBottom=0;align=center;fontSize=13;expand=0;" vertex="1" parent="0X5DWx-J_k25tCR8zMgC-1">
          <mxGeometry x="2306.93" y="1339.6200000000001" width="195" height="86" as="geometry" />
        </mxCell>
        <mxCell id="d2YbWiwlK6z3USRgEM1a-136" value="otherAccount" style="text;strokeColor=none;fillColor=none;spacingLeft=4;spacingRight=4;overflow=hidden;rotatable=0;points=[[0,0.5],[1,0.5]];portConstraint=eastwest;fontSize=12;" vertex="1" parent="d2YbWiwlK6z3USRgEM1a-135">
          <mxGeometry y="26" width="195" height="30" as="geometry" />
        </mxCell>
        <mxCell id="d2YbWiwlK6z3USRgEM1a-137" value="odAccount" style="text;strokeColor=none;fillColor=none;spacingLeft=4;spacingRight=4;overflow=hidden;rotatable=0;points=[[0,0.5],[1,0.5]];portConstraint=eastwest;fontSize=12;" vertex="1" parent="d2YbWiwlK6z3USRgEM1a-135">
          <mxGeometry y="56" width="195" height="30" as="geometry" />
        </mxCell>
        <mxCell id="d2YbWiwlK6z3USRgEM1a-280" value="" style="rounded=0;orthogonalLoop=1;jettySize=auto;html=1;exitX=1;exitY=0.5;exitDx=0;exitDy=0;fontFamily=Roboto;fontSource=https%3A%2F%2Ffonts.googleapis.com%2Fcss%3Ffamily%3DRoboto;endArrow=classic;entryX=0;entryY=0.25;entryDx=0;entryDy=0;endFill=0;" edge="1" parent="0X5DWx-J_k25tCR8zMgC-1" source="0X5DWx-J_k25tCR8zMgC-97" target="d2YbWiwlK6z3USRgEM1a-3">
          <mxGeometry relative="1" as="geometry">
            <mxPoint x="1697.06" y="1440.6200000000001" as="sourcePoint" />
            <mxPoint x="2432.5" y="1383.6200000000001" as="targetPoint" />
          </mxGeometry>
        </mxCell>
        <mxCell id="d2YbWiwlK6z3USRgEM1a-426" style="edgeStyle=orthogonalEdgeStyle;rounded=0;jumpStyle=arc;orthogonalLoop=1;jettySize=auto;html=1;exitX=0.75;exitY=0;exitDx=0;exitDy=0;entryX=1;entryY=0.75;entryDx=0;entryDy=0;fontFamily=Roboto;fontSource=https%3A%2F%2Ffonts.googleapis.com%2Fcss%3Ffamily%3DRoboto;fontSize=12;fontColor=default;startArrow=oval;startFill=0;endArrow=classic;endFill=0;strokeColor=default;" edge="1" parent="0X5DWx-J_k25tCR8zMgC-1" source="d2YbWiwlK6z3USRgEM1a-425" target="d2YbWiwlK6z3USRgEM1a-415">
          <mxGeometry relative="1" as="geometry" />
        </mxCell>
        <mxCell id="d2YbWiwlK6z3USRgEM1a-427" style="edgeStyle=orthogonalEdgeStyle;rounded=0;jumpStyle=arc;orthogonalLoop=1;jettySize=auto;html=1;exitX=0.5;exitY=0;exitDx=0;exitDy=0;entryX=1;entryY=0.5;entryDx=0;entryDy=0;entryPerimeter=0;fontFamily=Roboto;fontSource=https%3A%2F%2Ffonts.googleapis.com%2Fcss%3Ffamily%3DRoboto;fontSize=12;fontColor=default;startArrow=oval;startFill=0;endArrow=classic;endFill=0;strokeColor=default;" edge="1" parent="0X5DWx-J_k25tCR8zMgC-1" source="d2YbWiwlK6z3USRgEM1a-425" target="d2YbWiwlK6z3USRgEM1a-414">
          <mxGeometry relative="1" as="geometry">
            <Array as="points">
              <mxPoint x="1730" y="1008.38" />
              <mxPoint x="1730" y="823.38" />
            </Array>
          </mxGeometry>
        </mxCell>
        <mxCell id="d2YbWiwlK6z3USRgEM1a-428" style="edgeStyle=orthogonalEdgeStyle;rounded=0;jumpStyle=arc;orthogonalLoop=1;jettySize=auto;html=1;exitX=0.25;exitY=0;exitDx=0;exitDy=0;fontFamily=Roboto;fontSource=https%3A%2F%2Ffonts.googleapis.com%2Fcss%3Ffamily%3DRoboto;fontSize=12;fontColor=default;startArrow=oval;startFill=0;endArrow=classic;endFill=0;strokeColor=default;" edge="1" parent="0X5DWx-J_k25tCR8zMgC-1" source="d2YbWiwlK6z3USRgEM1a-425" target="d2YbWiwlK6z3USRgEM1a-403">
          <mxGeometry relative="1" as="geometry">
            <Array as="points">
              <mxPoint x="1710" y="1033.38" />
              <mxPoint x="1710" y="993.38" />
            </Array>
          </mxGeometry>
        </mxCell>
        <mxCell id="d2YbWiwlK6z3USRgEM1a-425" value="" style="verticalLabelPosition=middle;verticalAlign=middle;html=1;shape=trapezoid;perimeter=trapezoidPerimeter;whiteSpace=wrap;size=0.23;arcSize=10;flipV=1;labelPosition=center;align=center;dashed=1;dashPattern=1 1;fontFamily=Roboto;fontSource=https%3A%2F%2Ffonts.googleapis.com%2Fcss%3Ffamily%3DRoboto;fontSize=12;fontColor=#333333;strokeColor=#666666;fillColor=#f5f5f5;rotation=-91;" vertex="1" parent="0X5DWx-J_k25tCR8zMgC-1">
          <mxGeometry x="1841.11" y="1014.65" width="72.75" height="14.5" as="geometry" />
        </mxCell>
        <mxCell id="d2YbWiwlK6z3USRgEM1a-429" value="" style="group" vertex="1" connectable="0" parent="0X5DWx-J_k25tCR8zMgC-1">
          <mxGeometry x="3369.995" y="465.25" width="234.5557562076749" height="40" as="geometry" />
        </mxCell>
        <mxCell id="d2YbWiwlK6z3USRgEM1a-430" value="&lt;font color=&quot;#172b4d&quot;&gt;&lt;span style=&quot;font-size: 11px ; line-height: 1&quot;&gt;EA GDL&lt;/span&gt;&lt;/font&gt;" style="whiteSpace=wrap;html=1;fontFamily=Roboto Mono;align=left;fontSize=14;spacingLeft=8;dashed=1;dashPattern=1 1;fontSource=https%3A%2F%2Ffonts.googleapis.com%2Fcss%3Ffamily%3DRoboto%2BMono;spacing=0;spacingBottom=4;" vertex="1" parent="d2YbWiwlK6z3USRgEM1a-429">
          <mxGeometry x="54.555756207674904" width="180" height="40" as="geometry" />
        </mxCell>
        <mxCell id="d2YbWiwlK6z3USRgEM1a-431" value="" style="group" vertex="1" connectable="0" parent="d2YbWiwlK6z3USRgEM1a-429">
          <mxGeometry width="45" height="40" as="geometry" />
        </mxCell>
        <mxCell id="d2YbWiwlK6z3USRgEM1a-432" value="" style="whiteSpace=wrap;html=1;dashed=1;dashPattern=1 1;fontFamily=Roboto Mono;fontSource=https%3A%2F%2Ffonts.googleapis.com%2Fcss%3Ffamily%3DRoboto%2BMono;strokeWidth=1;fillColor=none;align=left;verticalAlign=middle;noLabel=1;connectable=1;allowArrows=1;snapToPoint=1;" vertex="1" parent="d2YbWiwlK6z3USRgEM1a-431">
          <mxGeometry width="45" height="40" as="geometry" />
        </mxCell>
        <mxCell id="d2YbWiwlK6z3USRgEM1a-433" value="" style="shape=mxgraph.signs.nature.snowflake;html=1;pointerEvents=1;fillColor=#29B5E8;strokeColor=none;verticalLabelPosition=bottom;verticalAlign=top;align=center;aspect=fixed;connectable=0;allowArrows=0;noLabel=1;" vertex="1" parent="d2YbWiwlK6z3USRgEM1a-431">
          <mxGeometry x="7.5" y="5" width="30" height="30" as="geometry" />
        </mxCell>
        <mxCell id="d2YbWiwlK6z3USRgEM1a-467" value="" style="group;dashed=1;dashPattern=1 1;fontFamily=Roboto;fontSource=https%3A%2F%2Ffonts.googleapis.com%2Fcss%3Ffamily%3DRoboto;fontSize=12;fontColor=default;strokeColor=default;fillColor=#D4E1F5;gradientColor=#F8CECC;gradientDirection=east;html=1;" vertex="1" connectable="0" parent="0X5DWx-J_k25tCR8zMgC-1">
          <mxGeometry x="3662.12" y="374.26" width="80" height="80" as="geometry" />
        </mxCell>
        <mxCell id="d2YbWiwlK6z3USRgEM1a-468" value="dashboard" style="rounded=0;whiteSpace=wrap;html=1;fillColor=#FFFFFF;verticalAlign=bottom;strokeColor=#7D7D7D;dashed=1;dashPattern=1 1;fontFamily=Roboto;fontSource=https%3A%2F%2Ffonts.googleapis.com%2Fcss%3Ffamily%3DRoboto;fontSize=12;fontColor=default;" vertex="1" parent="d2YbWiwlK6z3USRgEM1a-467">
          <mxGeometry width="80" height="80" as="geometry" />
        </mxCell>
        <mxCell id="d2YbWiwlK6z3USRgEM1a-469" value="" style="pointerEvents=1;shadow=0;dashed=0;html=1;strokeColor=none;labelPosition=center;verticalLabelPosition=bottom;verticalAlign=top;align=center;shape=mxgraph.mscae.intune.dashboard;fillColor=#7D7D7D;dashPattern=1 1;fontFamily=Roboto;fontSource=https%3A%2F%2Ffonts.googleapis.com%2Fcss%3Ffamily%3DRoboto;fontSize=12;fontColor=default;" vertex="1" parent="d2YbWiwlK6z3USRgEM1a-467">
          <mxGeometry x="14" y="18" width="50" height="40" as="geometry" />
        </mxCell>
        <mxCell id="d2YbWiwlK6z3USRgEM1a-475" value="" style="group;dashed=1;dashPattern=1 1;fontFamily=Roboto;fontSource=https%3A%2F%2Ffonts.googleapis.com%2Fcss%3Ffamily%3DRoboto;fontSize=12;fontColor=default;strokeColor=default;fillColor=#D4E1F5;gradientColor=#F8CECC;gradientDirection=east;html=1;" vertex="1" connectable="0" parent="0X5DWx-J_k25tCR8zMgC-1">
          <mxGeometry x="3780" y="374.26" width="80" height="80" as="geometry" />
        </mxCell>
        <mxCell id="d2YbWiwlK6z3USRgEM1a-476" value="analytics" style="rounded=0;whiteSpace=wrap;html=1;fillColor=#FFFFFF;verticalAlign=bottom;strokeColor=#7D7D7D;dashed=1;dashPattern=1 1;fontFamily=Roboto;fontSource=https%3A%2F%2Ffonts.googleapis.com%2Fcss%3Ffamily%3DRoboto;fontSize=12;fontColor=default;" vertex="1" parent="d2YbWiwlK6z3USRgEM1a-475">
          <mxGeometry width="80" height="80" as="geometry" />
        </mxCell>
        <mxCell id="d2YbWiwlK6z3USRgEM1a-477" value="" style="aspect=fixed;pointerEvents=1;shadow=0;dashed=0;html=1;strokeColor=none;labelPosition=center;verticalLabelPosition=bottom;verticalAlign=top;align=center;shape=mxgraph.mscae.enterprise.application_blank;fillColor=#7D7D7D;dashPattern=1 1;fontFamily=Roboto;fontSource=https%3A%2F%2Ffonts.googleapis.com%2Fcss%3Ffamily%3DRoboto;fontSize=12;fontColor=default;" vertex="1" parent="d2YbWiwlK6z3USRgEM1a-475">
          <mxGeometry x="16.450000000000045" y="12" width="47.09" height="40.5" as="geometry" />
        </mxCell>
        <mxCell id="d2YbWiwlK6z3USRgEM1a-478" value="" style="shape=image;html=1;verticalAlign=top;verticalLabelPosition=bottom;labelBackgroundColor=#ffffff;imageAspect=0;aspect=fixed;image=https://cdn0.iconfinder.com/data/icons/business-collection-2027/56/graph-8-128.png;fillColor=#7D7D7D;fontFamily=Verdana;imageBackground=#ffffff;dashed=1;dashPattern=1 1;fontSource=https%3A%2F%2Ffonts.googleapis.com%2Fcss%3Ffamily%3DRoboto;fontSize=12;fontColor=default;strokeColor=default;" vertex="1" parent="d2YbWiwlK6z3USRgEM1a-475">
          <mxGeometry x="40" y="28" width="32" height="32" as="geometry" />
        </mxCell>
        <mxCell id="d2YbWiwlK6z3USRgEM1a-497" value="" style="group;dashed=1;dashPattern=1 1;fontFamily=Roboto;fontSource=https%3A%2F%2Ffonts.googleapis.com%2Fcss%3Ffamily%3DRoboto;fontSize=12;fontColor=default;strokeColor=default;fillColor=#D4E1F5;gradientColor=#F8CECC;gradientDirection=east;html=1;" vertex="1" connectable="0" parent="0X5DWx-J_k25tCR8zMgC-1">
          <mxGeometry x="3930" y="370" width="80" height="80" as="geometry" />
        </mxCell>
        <mxCell id="d2YbWiwlK6z3USRgEM1a-498" value="dashboard" style="rounded=0;whiteSpace=wrap;html=1;fillColor=#FFFFFF;verticalAlign=bottom;strokeColor=#7D7D7D;dashed=1;dashPattern=1 1;fontFamily=Roboto;fontSource=https%3A%2F%2Ffonts.googleapis.com%2Fcss%3Ffamily%3DRoboto;fontSize=12;fontColor=default;" vertex="1" parent="d2YbWiwlK6z3USRgEM1a-497">
          <mxGeometry width="80" height="80" as="geometry" />
        </mxCell>
        <mxCell id="d2YbWiwlK6z3USRgEM1a-499" value="" style="pointerEvents=1;shadow=0;dashed=0;html=1;strokeColor=none;labelPosition=center;verticalLabelPosition=bottom;verticalAlign=top;align=center;shape=mxgraph.mscae.intune.dashboard;fillColor=#7D7D7D;dashPattern=1 1;fontFamily=Roboto;fontSource=https%3A%2F%2Ffonts.googleapis.com%2Fcss%3Ffamily%3DRoboto;fontSize=12;fontColor=default;" vertex="1" parent="d2YbWiwlK6z3USRgEM1a-497">
          <mxGeometry x="14" y="18" width="50" height="40" as="geometry" />
        </mxCell>
      </root>
    </mxGraphModel>
  </diagram>
</mxfile>
